%TF.GenerationSoftware,KiCad,Pcbnew,(6.0.7)*%
%TF.CreationDate,2025-06-09T21:53:25+08:00*%
%TF.ProjectId,ESP32-S3-MINI-1-N8_V6,45535033-322d-4533-932d-4d494e492d31,rev?*%
%TF.SameCoordinates,PX6a24da0PY78114e0*%
%TF.FileFunction,Legend,Top*%
%TF.FilePolarity,Positive*%
%FSLAX46Y46*%
G04 Gerber Fmt 4.6, Leading zero omitted, Abs format (unit mm)*
G04 Created by KiCad (PCBNEW (6.0.7)) date 2025-06-09 21:53:25*
%MOMM*%
%LPD*%
G01*
G04 APERTURE LIST*
%ADD10C,0.150000*%
%ADD11C,0.098425*%
%ADD12C,0.250000*%
%ADD13C,0.120000*%
%ADD14C,0.203200*%
%ADD15C,0.200000*%
%ADD16C,0.300000*%
%ADD17C,0.127000*%
%ADD18C,0.240000*%
G04 APERTURE END LIST*
D10*
X33385714Y971429D02*
X33414285Y1000000D01*
X33471428Y1028572D01*
X33614285Y1028572D01*
X33671428Y1000000D01*
X33700000Y971429D01*
X33728571Y914286D01*
X33728571Y857143D01*
X33700000Y771429D01*
X33357142Y428572D01*
X33728571Y428572D01*
X34242857Y828572D02*
X34242857Y428572D01*
X34100000Y1057143D02*
X33957142Y628572D01*
X34328571Y628572D01*
X34471428Y1028572D02*
X34671428Y428572D01*
X34871428Y1028572D01*
X24142857Y900000D02*
X24085714Y928572D01*
X24000000Y928572D01*
X23914285Y900000D01*
X23857142Y842858D01*
X23828571Y785715D01*
X23800000Y671429D01*
X23800000Y585715D01*
X23828571Y471429D01*
X23857142Y414286D01*
X23914285Y357143D01*
X24000000Y328572D01*
X24057142Y328572D01*
X24142857Y357143D01*
X24171428Y385715D01*
X24171428Y585715D01*
X24057142Y585715D01*
X24428571Y328572D02*
X24428571Y928572D01*
X24771428Y328572D01*
X24771428Y928572D01*
X25057142Y328572D02*
X25057142Y928572D01*
X25200000Y928572D01*
X25285714Y900000D01*
X25342857Y842858D01*
X25371428Y785715D01*
X25400000Y671429D01*
X25400000Y585715D01*
X25371428Y471429D01*
X25342857Y414286D01*
X25285714Y357143D01*
X25200000Y328572D01*
X25057142Y328572D01*
X7142857Y1000000D02*
X7085714Y1028572D01*
X7000000Y1028572D01*
X6914285Y1000000D01*
X6857142Y942858D01*
X6828571Y885715D01*
X6800000Y771429D01*
X6800000Y685715D01*
X6828571Y571429D01*
X6857142Y514286D01*
X6914285Y457143D01*
X7000000Y428572D01*
X7057142Y428572D01*
X7142857Y457143D01*
X7171428Y485715D01*
X7171428Y685715D01*
X7057142Y685715D01*
X7428571Y428572D02*
X7428571Y1028572D01*
X7771428Y428572D01*
X7771428Y1028572D01*
X8057142Y428572D02*
X8057142Y1028572D01*
X8200000Y1028572D01*
X8285714Y1000000D01*
X8342857Y942858D01*
X8371428Y885715D01*
X8400000Y771429D01*
X8400000Y685715D01*
X8371428Y571429D01*
X8342857Y514286D01*
X8285714Y457143D01*
X8200000Y428572D01*
X8057142Y428572D01*
X16485714Y871429D02*
X16514285Y900000D01*
X16571428Y928572D01*
X16714285Y928572D01*
X16771428Y900000D01*
X16800000Y871429D01*
X16828571Y814286D01*
X16828571Y757143D01*
X16800000Y671429D01*
X16457142Y328572D01*
X16828571Y328572D01*
X17342857Y728572D02*
X17342857Y328572D01*
X17200000Y957143D02*
X17057142Y528572D01*
X17428571Y528572D01*
X17571428Y928572D02*
X17771428Y328572D01*
X17971428Y928572D01*
%TO.C,C13*%
X14214285Y37214286D02*
X14242857Y37185715D01*
X14271428Y37100000D01*
X14271428Y37042858D01*
X14242857Y36957143D01*
X14185714Y36900000D01*
X14128571Y36871429D01*
X14014285Y36842858D01*
X13928571Y36842858D01*
X13814285Y36871429D01*
X13757142Y36900000D01*
X13700000Y36957143D01*
X13671428Y37042858D01*
X13671428Y37100000D01*
X13700000Y37185715D01*
X13728571Y37214286D01*
X14271428Y37785715D02*
X14271428Y37442858D01*
X14271428Y37614286D02*
X13671428Y37614286D01*
X13757142Y37557143D01*
X13814285Y37500000D01*
X13842857Y37442858D01*
X13671428Y37985715D02*
X13671428Y38357143D01*
X13900000Y38157143D01*
X13900000Y38242858D01*
X13928571Y38300000D01*
X13957142Y38328572D01*
X14014285Y38357143D01*
X14157142Y38357143D01*
X14214285Y38328572D01*
X14242857Y38300000D01*
X14271428Y38242858D01*
X14271428Y38071429D01*
X14242857Y38014286D01*
X14214285Y37985715D01*
%TO.C,C3*%
X8514285Y10900000D02*
X8542857Y10871429D01*
X8571428Y10785715D01*
X8571428Y10728572D01*
X8542857Y10642858D01*
X8485714Y10585715D01*
X8428571Y10557143D01*
X8314285Y10528572D01*
X8228571Y10528572D01*
X8114285Y10557143D01*
X8057142Y10585715D01*
X8000000Y10642858D01*
X7971428Y10728572D01*
X7971428Y10785715D01*
X8000000Y10871429D01*
X8028571Y10900000D01*
X7971428Y11100000D02*
X7971428Y11471429D01*
X8200000Y11271429D01*
X8200000Y11357143D01*
X8228571Y11414286D01*
X8257142Y11442858D01*
X8314285Y11471429D01*
X8457142Y11471429D01*
X8514285Y11442858D01*
X8542857Y11414286D01*
X8571428Y11357143D01*
X8571428Y11185715D01*
X8542857Y11128572D01*
X8514285Y11100000D01*
%TO.C,C16*%
X27864285Y18175715D02*
X27835714Y18147143D01*
X27750000Y18118572D01*
X27692857Y18118572D01*
X27607142Y18147143D01*
X27550000Y18204286D01*
X27521428Y18261429D01*
X27492857Y18375715D01*
X27492857Y18461429D01*
X27521428Y18575715D01*
X27550000Y18632858D01*
X27607142Y18690000D01*
X27692857Y18718572D01*
X27750000Y18718572D01*
X27835714Y18690000D01*
X27864285Y18661429D01*
X28435714Y18118572D02*
X28092857Y18118572D01*
X28264285Y18118572D02*
X28264285Y18718572D01*
X28207142Y18632858D01*
X28150000Y18575715D01*
X28092857Y18547143D01*
X28950000Y18718572D02*
X28835714Y18718572D01*
X28778571Y18690000D01*
X28750000Y18661429D01*
X28692857Y18575715D01*
X28664285Y18461429D01*
X28664285Y18232858D01*
X28692857Y18175715D01*
X28721428Y18147143D01*
X28778571Y18118572D01*
X28892857Y18118572D01*
X28950000Y18147143D01*
X28978571Y18175715D01*
X29007142Y18232858D01*
X29007142Y18375715D01*
X28978571Y18432858D01*
X28950000Y18461429D01*
X28892857Y18490000D01*
X28778571Y18490000D01*
X28721428Y18461429D01*
X28692857Y18432858D01*
X28664285Y18375715D01*
%TO.C,R12*%
X28371428Y9014286D02*
X28085714Y8814286D01*
X28371428Y8671429D02*
X27771428Y8671429D01*
X27771428Y8900000D01*
X27800000Y8957143D01*
X27828571Y8985715D01*
X27885714Y9014286D01*
X27971428Y9014286D01*
X28028571Y8985715D01*
X28057142Y8957143D01*
X28085714Y8900000D01*
X28085714Y8671429D01*
X28371428Y9585715D02*
X28371428Y9242858D01*
X28371428Y9414286D02*
X27771428Y9414286D01*
X27857142Y9357143D01*
X27914285Y9300000D01*
X27942857Y9242858D01*
X27828571Y9814286D02*
X27800000Y9842858D01*
X27771428Y9900000D01*
X27771428Y10042858D01*
X27800000Y10100000D01*
X27828571Y10128572D01*
X27885714Y10157143D01*
X27942857Y10157143D01*
X28028571Y10128572D01*
X28371428Y9785715D01*
X28371428Y10157143D01*
D11*
%TO.C,C5*%
X11360607Y16734384D02*
X11379355Y16715636D01*
X11398102Y16659393D01*
X11398102Y16621898D01*
X11379355Y16565655D01*
X11341859Y16528159D01*
X11304364Y16509412D01*
X11229373Y16490664D01*
X11173130Y16490664D01*
X11098140Y16509412D01*
X11060644Y16528159D01*
X11023149Y16565655D01*
X11004401Y16621898D01*
X11004401Y16659393D01*
X11023149Y16715636D01*
X11041897Y16734384D01*
X11004401Y17090589D02*
X11004401Y16903113D01*
X11191878Y16884365D01*
X11173130Y16903113D01*
X11154383Y16940608D01*
X11154383Y17034346D01*
X11173130Y17071842D01*
X11191878Y17090589D01*
X11229373Y17109337D01*
X11323112Y17109337D01*
X11360607Y17090589D01*
X11379355Y17071842D01*
X11398102Y17034346D01*
X11398102Y16940608D01*
X11379355Y16903113D01*
X11360607Y16884365D01*
D10*
%TO.C,C7*%
X10314285Y37700000D02*
X10342857Y37671429D01*
X10371428Y37585715D01*
X10371428Y37528572D01*
X10342857Y37442858D01*
X10285714Y37385715D01*
X10228571Y37357143D01*
X10114285Y37328572D01*
X10028571Y37328572D01*
X9914285Y37357143D01*
X9857142Y37385715D01*
X9800000Y37442858D01*
X9771428Y37528572D01*
X9771428Y37585715D01*
X9800000Y37671429D01*
X9828571Y37700000D01*
X9771428Y37900000D02*
X9771428Y38300000D01*
X10371428Y38042858D01*
%TO.C,R1*%
X2671428Y17600000D02*
X2385714Y17400000D01*
X2671428Y17257143D02*
X2071428Y17257143D01*
X2071428Y17485715D01*
X2100000Y17542858D01*
X2128571Y17571429D01*
X2185714Y17600000D01*
X2271428Y17600000D01*
X2328571Y17571429D01*
X2357142Y17542858D01*
X2385714Y17485715D01*
X2385714Y17257143D01*
X2671428Y18171429D02*
X2671428Y17828572D01*
X2671428Y18000000D02*
X2071428Y18000000D01*
X2157142Y17942858D01*
X2214285Y17885715D01*
X2242857Y17828572D01*
%TO.C,C14*%
X30014285Y11685715D02*
X29985714Y11657143D01*
X29900000Y11628572D01*
X29842857Y11628572D01*
X29757142Y11657143D01*
X29700000Y11714286D01*
X29671428Y11771429D01*
X29642857Y11885715D01*
X29642857Y11971429D01*
X29671428Y12085715D01*
X29700000Y12142858D01*
X29757142Y12200000D01*
X29842857Y12228572D01*
X29900000Y12228572D01*
X29985714Y12200000D01*
X30014285Y12171429D01*
X30585714Y11628572D02*
X30242857Y11628572D01*
X30414285Y11628572D02*
X30414285Y12228572D01*
X30357142Y12142858D01*
X30300000Y12085715D01*
X30242857Y12057143D01*
X31100000Y12028572D02*
X31100000Y11628572D01*
X30957142Y12257143D02*
X30814285Y11828572D01*
X31185714Y11828572D01*
%TO.C,R5*%
X15800000Y24328572D02*
X15600000Y24614286D01*
X15457142Y24328572D02*
X15457142Y24928572D01*
X15685714Y24928572D01*
X15742857Y24900000D01*
X15771428Y24871429D01*
X15800000Y24814286D01*
X15800000Y24728572D01*
X15771428Y24671429D01*
X15742857Y24642858D01*
X15685714Y24614286D01*
X15457142Y24614286D01*
X16342857Y24928572D02*
X16057142Y24928572D01*
X16028571Y24642858D01*
X16057142Y24671429D01*
X16114285Y24700000D01*
X16257142Y24700000D01*
X16314285Y24671429D01*
X16342857Y24642858D01*
X16371428Y24585715D01*
X16371428Y24442858D01*
X16342857Y24385715D01*
X16314285Y24357143D01*
X16257142Y24328572D01*
X16114285Y24328572D01*
X16057142Y24357143D01*
X16028571Y24385715D01*
%TO.C,C11*%
X19614285Y6485715D02*
X19585714Y6457143D01*
X19500000Y6428572D01*
X19442857Y6428572D01*
X19357142Y6457143D01*
X19300000Y6514286D01*
X19271428Y6571429D01*
X19242857Y6685715D01*
X19242857Y6771429D01*
X19271428Y6885715D01*
X19300000Y6942858D01*
X19357142Y7000000D01*
X19442857Y7028572D01*
X19500000Y7028572D01*
X19585714Y7000000D01*
X19614285Y6971429D01*
X20185714Y6428572D02*
X19842857Y6428572D01*
X20014285Y6428572D02*
X20014285Y7028572D01*
X19957142Y6942858D01*
X19900000Y6885715D01*
X19842857Y6857143D01*
X20757142Y6428572D02*
X20414285Y6428572D01*
X20585714Y6428572D02*
X20585714Y7028572D01*
X20528571Y6942858D01*
X20471428Y6885715D01*
X20414285Y6857143D01*
%TO.C,R10*%
X17571428Y8306786D02*
X17285714Y8106786D01*
X17571428Y7963929D02*
X16971428Y7963929D01*
X16971428Y8192500D01*
X17000000Y8249643D01*
X17028571Y8278215D01*
X17085714Y8306786D01*
X17171428Y8306786D01*
X17228571Y8278215D01*
X17257142Y8249643D01*
X17285714Y8192500D01*
X17285714Y7963929D01*
X17571428Y8878215D02*
X17571428Y8535358D01*
X17571428Y8706786D02*
X16971428Y8706786D01*
X17057142Y8649643D01*
X17114285Y8592500D01*
X17142857Y8535358D01*
X16971428Y9249643D02*
X16971428Y9306786D01*
X17000000Y9363929D01*
X17028571Y9392500D01*
X17085714Y9421072D01*
X17200000Y9449643D01*
X17342857Y9449643D01*
X17457142Y9421072D01*
X17514285Y9392500D01*
X17542857Y9363929D01*
X17571428Y9306786D01*
X17571428Y9249643D01*
X17542857Y9192500D01*
X17514285Y9163929D01*
X17457142Y9135358D01*
X17342857Y9106786D01*
X17200000Y9106786D01*
X17085714Y9135358D01*
X17028571Y9163929D01*
X17000000Y9192500D01*
X16971428Y9249643D01*
%TO.C,U1*%
X7542857Y2228572D02*
X7542857Y1742858D01*
X7571428Y1685715D01*
X7600000Y1657143D01*
X7657142Y1628572D01*
X7771428Y1628572D01*
X7828571Y1657143D01*
X7857142Y1685715D01*
X7885714Y1742858D01*
X7885714Y2228572D01*
X8485714Y1628572D02*
X8142857Y1628572D01*
X8314285Y1628572D02*
X8314285Y2228572D01*
X8257142Y2142858D01*
X8200000Y2085715D01*
X8142857Y2057143D01*
%TO.C,C6*%
X27700000Y20685715D02*
X27671428Y20657143D01*
X27585714Y20628572D01*
X27528571Y20628572D01*
X27442857Y20657143D01*
X27385714Y20714286D01*
X27357142Y20771429D01*
X27328571Y20885715D01*
X27328571Y20971429D01*
X27357142Y21085715D01*
X27385714Y21142858D01*
X27442857Y21200000D01*
X27528571Y21228572D01*
X27585714Y21228572D01*
X27671428Y21200000D01*
X27700000Y21171429D01*
X28214285Y21228572D02*
X28100000Y21228572D01*
X28042857Y21200000D01*
X28014285Y21171429D01*
X27957142Y21085715D01*
X27928571Y20971429D01*
X27928571Y20742858D01*
X27957142Y20685715D01*
X27985714Y20657143D01*
X28042857Y20628572D01*
X28157142Y20628572D01*
X28214285Y20657143D01*
X28242857Y20685715D01*
X28271428Y20742858D01*
X28271428Y20885715D01*
X28242857Y20942858D01*
X28214285Y20971429D01*
X28157142Y21000000D01*
X28042857Y21000000D01*
X27985714Y20971429D01*
X27957142Y20942858D01*
X27928571Y20885715D01*
%TO.C,C12*%
X15082285Y36880715D02*
X15053714Y36852143D01*
X14968000Y36823572D01*
X14910857Y36823572D01*
X14825142Y36852143D01*
X14768000Y36909286D01*
X14739428Y36966429D01*
X14710857Y37080715D01*
X14710857Y37166429D01*
X14739428Y37280715D01*
X14768000Y37337858D01*
X14825142Y37395000D01*
X14910857Y37423572D01*
X14968000Y37423572D01*
X15053714Y37395000D01*
X15082285Y37366429D01*
X15653714Y36823572D02*
X15310857Y36823572D01*
X15482285Y36823572D02*
X15482285Y37423572D01*
X15425142Y37337858D01*
X15368000Y37280715D01*
X15310857Y37252143D01*
X15882285Y37366429D02*
X15910857Y37395000D01*
X15968000Y37423572D01*
X16110857Y37423572D01*
X16168000Y37395000D01*
X16196571Y37366429D01*
X16225142Y37309286D01*
X16225142Y37252143D01*
X16196571Y37166429D01*
X15853714Y36823572D01*
X16225142Y36823572D01*
%TO.C,JP1*%
X32171428Y8400000D02*
X32600000Y8400000D01*
X32685714Y8371429D01*
X32742857Y8314286D01*
X32771428Y8228572D01*
X32771428Y8171429D01*
X32771428Y8685715D02*
X32171428Y8685715D01*
X32171428Y8914286D01*
X32200000Y8971429D01*
X32228571Y9000000D01*
X32285714Y9028572D01*
X32371428Y9028572D01*
X32428571Y9000000D01*
X32457142Y8971429D01*
X32485714Y8914286D01*
X32485714Y8685715D01*
X32771428Y9600000D02*
X32771428Y9257143D01*
X32771428Y9428572D02*
X32171428Y9428572D01*
X32257142Y9371429D01*
X32314285Y9314286D01*
X32342857Y9257143D01*
%TO.C,U10*%
X23457142Y26028572D02*
X23457142Y25542858D01*
X23485714Y25485715D01*
X23514285Y25457143D01*
X23571428Y25428572D01*
X23685714Y25428572D01*
X23742857Y25457143D01*
X23771428Y25485715D01*
X23800000Y25542858D01*
X23800000Y26028572D01*
X24400000Y25428572D02*
X24057142Y25428572D01*
X24228571Y25428572D02*
X24228571Y26028572D01*
X24171428Y25942858D01*
X24114285Y25885715D01*
X24057142Y25857143D01*
X24771428Y26028572D02*
X24828571Y26028572D01*
X24885714Y26000000D01*
X24914285Y25971429D01*
X24942857Y25914286D01*
X24971428Y25800000D01*
X24971428Y25657143D01*
X24942857Y25542858D01*
X24914285Y25485715D01*
X24885714Y25457143D01*
X24828571Y25428572D01*
X24771428Y25428572D01*
X24714285Y25457143D01*
X24685714Y25485715D01*
X24657142Y25542858D01*
X24628571Y25657143D01*
X24628571Y25800000D01*
X24657142Y25914286D01*
X24685714Y25971429D01*
X24714285Y26000000D01*
X24771428Y26028572D01*
%TO.C,C9*%
X15433333Y22142858D02*
X15385714Y22095239D01*
X15242857Y22047620D01*
X15147619Y22047620D01*
X15004761Y22095239D01*
X14909523Y22190477D01*
X14861904Y22285715D01*
X14814285Y22476191D01*
X14814285Y22619048D01*
X14861904Y22809524D01*
X14909523Y22904762D01*
X15004761Y23000000D01*
X15147619Y23047620D01*
X15242857Y23047620D01*
X15385714Y23000000D01*
X15433333Y22952381D01*
X15909523Y22047620D02*
X16100000Y22047620D01*
X16195238Y22095239D01*
X16242857Y22142858D01*
X16338095Y22285715D01*
X16385714Y22476191D01*
X16385714Y22857143D01*
X16338095Y22952381D01*
X16290476Y23000000D01*
X16195238Y23047620D01*
X16004761Y23047620D01*
X15909523Y23000000D01*
X15861904Y22952381D01*
X15814285Y22857143D01*
X15814285Y22619048D01*
X15861904Y22523810D01*
X15909523Y22476191D01*
X16004761Y22428572D01*
X16195238Y22428572D01*
X16290476Y22476191D01*
X16338095Y22523810D01*
X16385714Y22619048D01*
%TO.C,R22*%
X14714285Y32428572D02*
X14514285Y32714286D01*
X14371428Y32428572D02*
X14371428Y33028572D01*
X14600000Y33028572D01*
X14657142Y33000000D01*
X14685714Y32971429D01*
X14714285Y32914286D01*
X14714285Y32828572D01*
X14685714Y32771429D01*
X14657142Y32742858D01*
X14600000Y32714286D01*
X14371428Y32714286D01*
X14942857Y32971429D02*
X14971428Y33000000D01*
X15028571Y33028572D01*
X15171428Y33028572D01*
X15228571Y33000000D01*
X15257142Y32971429D01*
X15285714Y32914286D01*
X15285714Y32857143D01*
X15257142Y32771429D01*
X14914285Y32428572D01*
X15285714Y32428572D01*
X15514285Y32971429D02*
X15542857Y33000000D01*
X15600000Y33028572D01*
X15742857Y33028572D01*
X15800000Y33000000D01*
X15828571Y32971429D01*
X15857142Y32914286D01*
X15857142Y32857143D01*
X15828571Y32771429D01*
X15485714Y32428572D01*
X15857142Y32428572D01*
%TO.C,R9*%
X6800000Y39628572D02*
X6600000Y39914286D01*
X6457142Y39628572D02*
X6457142Y40228572D01*
X6685714Y40228572D01*
X6742857Y40200000D01*
X6771428Y40171429D01*
X6800000Y40114286D01*
X6800000Y40028572D01*
X6771428Y39971429D01*
X6742857Y39942858D01*
X6685714Y39914286D01*
X6457142Y39914286D01*
X7085714Y39628572D02*
X7200000Y39628572D01*
X7257142Y39657143D01*
X7285714Y39685715D01*
X7342857Y39771429D01*
X7371428Y39885715D01*
X7371428Y40114286D01*
X7342857Y40171429D01*
X7314285Y40200000D01*
X7257142Y40228572D01*
X7142857Y40228572D01*
X7085714Y40200000D01*
X7057142Y40171429D01*
X7028571Y40114286D01*
X7028571Y39971429D01*
X7057142Y39914286D01*
X7085714Y39885715D01*
X7142857Y39857143D01*
X7257142Y39857143D01*
X7314285Y39885715D01*
X7342857Y39914286D01*
X7371428Y39971429D01*
%TO.C,R2*%
X15471428Y11800000D02*
X15185714Y11600000D01*
X15471428Y11457143D02*
X14871428Y11457143D01*
X14871428Y11685715D01*
X14900000Y11742858D01*
X14928571Y11771429D01*
X14985714Y11800000D01*
X15071428Y11800000D01*
X15128571Y11771429D01*
X15157142Y11742858D01*
X15185714Y11685715D01*
X15185714Y11457143D01*
X14928571Y12028572D02*
X14900000Y12057143D01*
X14871428Y12114286D01*
X14871428Y12257143D01*
X14900000Y12314286D01*
X14928571Y12342858D01*
X14985714Y12371429D01*
X15042857Y12371429D01*
X15128571Y12342858D01*
X15471428Y12000000D01*
X15471428Y12371429D01*
%TO.C,C2*%
X12500000Y26585715D02*
X12471428Y26557143D01*
X12385714Y26528572D01*
X12328571Y26528572D01*
X12242857Y26557143D01*
X12185714Y26614286D01*
X12157142Y26671429D01*
X12128571Y26785715D01*
X12128571Y26871429D01*
X12157142Y26985715D01*
X12185714Y27042858D01*
X12242857Y27100000D01*
X12328571Y27128572D01*
X12385714Y27128572D01*
X12471428Y27100000D01*
X12500000Y27071429D01*
X12728571Y27071429D02*
X12757142Y27100000D01*
X12814285Y27128572D01*
X12957142Y27128572D01*
X13014285Y27100000D01*
X13042857Y27071429D01*
X13071428Y27014286D01*
X13071428Y26957143D01*
X13042857Y26871429D01*
X12700000Y26528572D01*
X13071428Y26528572D01*
%TO.C,R14*%
X41571428Y36014286D02*
X41285714Y35814286D01*
X41571428Y35671429D02*
X40971428Y35671429D01*
X40971428Y35900000D01*
X41000000Y35957143D01*
X41028571Y35985715D01*
X41085714Y36014286D01*
X41171428Y36014286D01*
X41228571Y35985715D01*
X41257142Y35957143D01*
X41285714Y35900000D01*
X41285714Y35671429D01*
X41571428Y36585715D02*
X41571428Y36242858D01*
X41571428Y36414286D02*
X40971428Y36414286D01*
X41057142Y36357143D01*
X41114285Y36300000D01*
X41142857Y36242858D01*
X41171428Y37100000D02*
X41571428Y37100000D01*
X40942857Y36957143D02*
X41371428Y36814286D01*
X41371428Y37185715D01*
%TO.C,D2*%
X8571428Y33557143D02*
X7971428Y33557143D01*
X7971428Y33700000D01*
X8000000Y33785715D01*
X8057142Y33842858D01*
X8114285Y33871429D01*
X8228571Y33900000D01*
X8314285Y33900000D01*
X8428571Y33871429D01*
X8485714Y33842858D01*
X8542857Y33785715D01*
X8571428Y33700000D01*
X8571428Y33557143D01*
X8028571Y34128572D02*
X8000000Y34157143D01*
X7971428Y34214286D01*
X7971428Y34357143D01*
X8000000Y34414286D01*
X8028571Y34442858D01*
X8085714Y34471429D01*
X8142857Y34471429D01*
X8228571Y34442858D01*
X8571428Y34100000D01*
X8571428Y34471429D01*
%TO.C,C18*%
X2414285Y7914286D02*
X2442857Y7885715D01*
X2471428Y7800000D01*
X2471428Y7742858D01*
X2442857Y7657143D01*
X2385714Y7600000D01*
X2328571Y7571429D01*
X2214285Y7542858D01*
X2128571Y7542858D01*
X2014285Y7571429D01*
X1957142Y7600000D01*
X1900000Y7657143D01*
X1871428Y7742858D01*
X1871428Y7800000D01*
X1900000Y7885715D01*
X1928571Y7914286D01*
X2471428Y8485715D02*
X2471428Y8142858D01*
X2471428Y8314286D02*
X1871428Y8314286D01*
X1957142Y8257143D01*
X2014285Y8200000D01*
X2042857Y8142858D01*
X2128571Y8828572D02*
X2100000Y8771429D01*
X2071428Y8742858D01*
X2014285Y8714286D01*
X1985714Y8714286D01*
X1928571Y8742858D01*
X1900000Y8771429D01*
X1871428Y8828572D01*
X1871428Y8942858D01*
X1900000Y9000000D01*
X1928571Y9028572D01*
X1985714Y9057143D01*
X2014285Y9057143D01*
X2071428Y9028572D01*
X2100000Y9000000D01*
X2128571Y8942858D01*
X2128571Y8828572D01*
X2157142Y8771429D01*
X2185714Y8742858D01*
X2242857Y8714286D01*
X2357142Y8714286D01*
X2414285Y8742858D01*
X2442857Y8771429D01*
X2471428Y8828572D01*
X2471428Y8942858D01*
X2442857Y9000000D01*
X2414285Y9028572D01*
X2357142Y9057143D01*
X2242857Y9057143D01*
X2185714Y9028572D01*
X2157142Y9000000D01*
X2128571Y8942858D01*
%TO.C,R7*%
X13000000Y19328572D02*
X12800000Y19614286D01*
X12657142Y19328572D02*
X12657142Y19928572D01*
X12885714Y19928572D01*
X12942857Y19900000D01*
X12971428Y19871429D01*
X13000000Y19814286D01*
X13000000Y19728572D01*
X12971428Y19671429D01*
X12942857Y19642858D01*
X12885714Y19614286D01*
X12657142Y19614286D01*
X13200000Y19928572D02*
X13600000Y19928572D01*
X13342857Y19328572D01*
%TO.C,JP4*%
X38100000Y33528572D02*
X38100000Y33100000D01*
X38071428Y33014286D01*
X38014285Y32957143D01*
X37928571Y32928572D01*
X37871428Y32928572D01*
X38385714Y32928572D02*
X38385714Y33528572D01*
X38614285Y33528572D01*
X38671428Y33500000D01*
X38700000Y33471429D01*
X38728571Y33414286D01*
X38728571Y33328572D01*
X38700000Y33271429D01*
X38671428Y33242858D01*
X38614285Y33214286D01*
X38385714Y33214286D01*
X39242857Y33328572D02*
X39242857Y32928572D01*
X39100000Y33557143D02*
X38957142Y33128572D01*
X39328571Y33128572D01*
%TO.C,R19*%
X35514285Y41128572D02*
X35314285Y41414286D01*
X35171428Y41128572D02*
X35171428Y41728572D01*
X35400000Y41728572D01*
X35457142Y41700000D01*
X35485714Y41671429D01*
X35514285Y41614286D01*
X35514285Y41528572D01*
X35485714Y41471429D01*
X35457142Y41442858D01*
X35400000Y41414286D01*
X35171428Y41414286D01*
X36085714Y41128572D02*
X35742857Y41128572D01*
X35914285Y41128572D02*
X35914285Y41728572D01*
X35857142Y41642858D01*
X35800000Y41585715D01*
X35742857Y41557143D01*
X36371428Y41128572D02*
X36485714Y41128572D01*
X36542857Y41157143D01*
X36571428Y41185715D01*
X36628571Y41271429D01*
X36657142Y41385715D01*
X36657142Y41614286D01*
X36628571Y41671429D01*
X36600000Y41700000D01*
X36542857Y41728572D01*
X36428571Y41728572D01*
X36371428Y41700000D01*
X36342857Y41671429D01*
X36314285Y41614286D01*
X36314285Y41471429D01*
X36342857Y41414286D01*
X36371428Y41385715D01*
X36428571Y41357143D01*
X36542857Y41357143D01*
X36600000Y41385715D01*
X36628571Y41414286D01*
X36657142Y41471429D01*
%TO.C,SW2*%
X9242857Y37400000D02*
X9271428Y37485715D01*
X9271428Y37628572D01*
X9242857Y37685715D01*
X9214285Y37714286D01*
X9157142Y37742858D01*
X9100000Y37742858D01*
X9042857Y37714286D01*
X9014285Y37685715D01*
X8985714Y37628572D01*
X8957142Y37514286D01*
X8928571Y37457143D01*
X8900000Y37428572D01*
X8842857Y37400000D01*
X8785714Y37400000D01*
X8728571Y37428572D01*
X8700000Y37457143D01*
X8671428Y37514286D01*
X8671428Y37657143D01*
X8700000Y37742858D01*
X8671428Y37942858D02*
X9271428Y38085715D01*
X8842857Y38200000D01*
X9271428Y38314286D01*
X8671428Y38457143D01*
X8728571Y38657143D02*
X8700000Y38685715D01*
X8671428Y38742858D01*
X8671428Y38885715D01*
X8700000Y38942858D01*
X8728571Y38971429D01*
X8785714Y39000000D01*
X8842857Y39000000D01*
X8928571Y38971429D01*
X9271428Y38628572D01*
X9271428Y39000000D01*
%TO.C,JP2*%
X15100000Y26128572D02*
X15100000Y25700000D01*
X15071428Y25614286D01*
X15014285Y25557143D01*
X14928571Y25528572D01*
X14871428Y25528572D01*
X15385714Y25528572D02*
X15385714Y26128572D01*
X15614285Y26128572D01*
X15671428Y26100000D01*
X15700000Y26071429D01*
X15728571Y26014286D01*
X15728571Y25928572D01*
X15700000Y25871429D01*
X15671428Y25842858D01*
X15614285Y25814286D01*
X15385714Y25814286D01*
X15957142Y26071429D02*
X15985714Y26100000D01*
X16042857Y26128572D01*
X16185714Y26128572D01*
X16242857Y26100000D01*
X16271428Y26071429D01*
X16300000Y26014286D01*
X16300000Y25957143D01*
X16271428Y25871429D01*
X15928571Y25528572D01*
X16300000Y25528572D01*
%TO.C,U12*%
X1742385Y39007056D02*
X2085837Y38663604D01*
X2146446Y38643401D01*
X2186852Y38643401D01*
X2247461Y38663604D01*
X2328274Y38744417D01*
X2348477Y38805026D01*
X2348477Y38845432D01*
X2328274Y38906041D01*
X1984822Y39249493D01*
X2833350Y39249493D02*
X2590913Y39007056D01*
X2712132Y39128275D02*
X2287867Y39552539D01*
X2308071Y39451523D01*
X2308071Y39370711D01*
X2287867Y39310102D01*
X2611116Y39794975D02*
X2611116Y39835381D01*
X2631319Y39895991D01*
X2732335Y39997006D01*
X2792944Y40017209D01*
X2833350Y40017209D01*
X2893959Y39997006D01*
X2934365Y39956600D01*
X2974771Y39875787D01*
X2974771Y39390914D01*
X3237411Y39653554D01*
%TO.C,U11*%
X33971428Y9157143D02*
X34457142Y9157143D01*
X34514285Y9185715D01*
X34542857Y9214286D01*
X34571428Y9271429D01*
X34571428Y9385715D01*
X34542857Y9442858D01*
X34514285Y9471429D01*
X34457142Y9500000D01*
X33971428Y9500000D01*
X34571428Y10100000D02*
X34571428Y9757143D01*
X34571428Y9928572D02*
X33971428Y9928572D01*
X34057142Y9871429D01*
X34114285Y9814286D01*
X34142857Y9757143D01*
X34571428Y10671429D02*
X34571428Y10328572D01*
X34571428Y10500000D02*
X33971428Y10500000D01*
X34057142Y10442858D01*
X34114285Y10385715D01*
X34142857Y10328572D01*
%TO.C,C8*%
X17300000Y1785715D02*
X17271428Y1757143D01*
X17185714Y1728572D01*
X17128571Y1728572D01*
X17042857Y1757143D01*
X16985714Y1814286D01*
X16957142Y1871429D01*
X16928571Y1985715D01*
X16928571Y2071429D01*
X16957142Y2185715D01*
X16985714Y2242858D01*
X17042857Y2300000D01*
X17128571Y2328572D01*
X17185714Y2328572D01*
X17271428Y2300000D01*
X17300000Y2271429D01*
X17642857Y2071429D02*
X17585714Y2100000D01*
X17557142Y2128572D01*
X17528571Y2185715D01*
X17528571Y2214286D01*
X17557142Y2271429D01*
X17585714Y2300000D01*
X17642857Y2328572D01*
X17757142Y2328572D01*
X17814285Y2300000D01*
X17842857Y2271429D01*
X17871428Y2214286D01*
X17871428Y2185715D01*
X17842857Y2128572D01*
X17814285Y2100000D01*
X17757142Y2071429D01*
X17642857Y2071429D01*
X17585714Y2042858D01*
X17557142Y2014286D01*
X17528571Y1957143D01*
X17528571Y1842858D01*
X17557142Y1785715D01*
X17585714Y1757143D01*
X17642857Y1728572D01*
X17757142Y1728572D01*
X17814285Y1757143D01*
X17842857Y1785715D01*
X17871428Y1842858D01*
X17871428Y1957143D01*
X17842857Y2014286D01*
X17814285Y2042858D01*
X17757142Y2071429D01*
%TO.C,J3*%
X40971428Y7000000D02*
X41400000Y7000000D01*
X41485714Y6971429D01*
X41542857Y6914286D01*
X41571428Y6828572D01*
X41571428Y6771429D01*
X40971428Y7228572D02*
X40971428Y7600000D01*
X41200000Y7400000D01*
X41200000Y7485715D01*
X41228571Y7542858D01*
X41257142Y7571429D01*
X41314285Y7600000D01*
X41457142Y7600000D01*
X41514285Y7571429D01*
X41542857Y7542858D01*
X41571428Y7485715D01*
X41571428Y7314286D01*
X41542857Y7257143D01*
X41514285Y7228572D01*
%TO.C,U5*%
X12242857Y32328572D02*
X12242857Y31842858D01*
X12271428Y31785715D01*
X12300000Y31757143D01*
X12357142Y31728572D01*
X12471428Y31728572D01*
X12528571Y31757143D01*
X12557142Y31785715D01*
X12585714Y31842858D01*
X12585714Y32328572D01*
X13157142Y32328572D02*
X12871428Y32328572D01*
X12842857Y32042858D01*
X12871428Y32071429D01*
X12928571Y32100000D01*
X13071428Y32100000D01*
X13128571Y32071429D01*
X13157142Y32042858D01*
X13185714Y31985715D01*
X13185714Y31842858D01*
X13157142Y31785715D01*
X13128571Y31757143D01*
X13071428Y31728572D01*
X12928571Y31728572D01*
X12871428Y31757143D01*
X12842857Y31785715D01*
%TO.C,J4*%
X40826243Y3490914D02*
X41129289Y3187868D01*
X41169695Y3107056D01*
X41169695Y3026244D01*
X41129289Y2945432D01*
X41088883Y2905026D01*
X41351522Y3733351D02*
X41634365Y3450508D01*
X41088883Y3793960D02*
X41290913Y3389899D01*
X41553553Y3652539D01*
%TO.C,R4*%
X22000000Y24328572D02*
X21800000Y24614286D01*
X21657142Y24328572D02*
X21657142Y24928572D01*
X21885714Y24928572D01*
X21942857Y24900000D01*
X21971428Y24871429D01*
X22000000Y24814286D01*
X22000000Y24728572D01*
X21971428Y24671429D01*
X21942857Y24642858D01*
X21885714Y24614286D01*
X21657142Y24614286D01*
X22514285Y24728572D02*
X22514285Y24328572D01*
X22371428Y24957143D02*
X22228571Y24528572D01*
X22600000Y24528572D01*
%TO.C,R13*%
X1014285Y35228572D02*
X814285Y35514286D01*
X671428Y35228572D02*
X671428Y35828572D01*
X900000Y35828572D01*
X957142Y35800000D01*
X985714Y35771429D01*
X1014285Y35714286D01*
X1014285Y35628572D01*
X985714Y35571429D01*
X957142Y35542858D01*
X900000Y35514286D01*
X671428Y35514286D01*
X1585714Y35228572D02*
X1242857Y35228572D01*
X1414285Y35228572D02*
X1414285Y35828572D01*
X1357142Y35742858D01*
X1300000Y35685715D01*
X1242857Y35657143D01*
X1785714Y35828572D02*
X2157142Y35828572D01*
X1957142Y35600000D01*
X2042857Y35600000D01*
X2100000Y35571429D01*
X2128571Y35542858D01*
X2157142Y35485715D01*
X2157142Y35342858D01*
X2128571Y35285715D01*
X2100000Y35257143D01*
X2042857Y35228572D01*
X1871428Y35228572D01*
X1814285Y35257143D01*
X1785714Y35285715D01*
%TO.C,C17*%
X19214285Y16885715D02*
X19185714Y16857143D01*
X19100000Y16828572D01*
X19042857Y16828572D01*
X18957142Y16857143D01*
X18900000Y16914286D01*
X18871428Y16971429D01*
X18842857Y17085715D01*
X18842857Y17171429D01*
X18871428Y17285715D01*
X18900000Y17342858D01*
X18957142Y17400000D01*
X19042857Y17428572D01*
X19100000Y17428572D01*
X19185714Y17400000D01*
X19214285Y17371429D01*
X19785714Y16828572D02*
X19442857Y16828572D01*
X19614285Y16828572D02*
X19614285Y17428572D01*
X19557142Y17342858D01*
X19500000Y17285715D01*
X19442857Y17257143D01*
X19985714Y17428572D02*
X20385714Y17428572D01*
X20128571Y16828572D01*
%TO.C,R6*%
X4200000Y17728572D02*
X4000000Y18014286D01*
X3857142Y17728572D02*
X3857142Y18328572D01*
X4085714Y18328572D01*
X4142857Y18300000D01*
X4171428Y18271429D01*
X4200000Y18214286D01*
X4200000Y18128572D01*
X4171428Y18071429D01*
X4142857Y18042858D01*
X4085714Y18014286D01*
X3857142Y18014286D01*
X4714285Y18328572D02*
X4600000Y18328572D01*
X4542857Y18300000D01*
X4514285Y18271429D01*
X4457142Y18185715D01*
X4428571Y18071429D01*
X4428571Y17842858D01*
X4457142Y17785715D01*
X4485714Y17757143D01*
X4542857Y17728572D01*
X4657142Y17728572D01*
X4714285Y17757143D01*
X4742857Y17785715D01*
X4771428Y17842858D01*
X4771428Y17985715D01*
X4742857Y18042858D01*
X4714285Y18071429D01*
X4657142Y18100000D01*
X4542857Y18100000D01*
X4485714Y18071429D01*
X4457142Y18042858D01*
X4428571Y17985715D01*
%TO.C,C20*%
X15114285Y41085715D02*
X15085714Y41057143D01*
X15000000Y41028572D01*
X14942857Y41028572D01*
X14857142Y41057143D01*
X14800000Y41114286D01*
X14771428Y41171429D01*
X14742857Y41285715D01*
X14742857Y41371429D01*
X14771428Y41485715D01*
X14800000Y41542858D01*
X14857142Y41600000D01*
X14942857Y41628572D01*
X15000000Y41628572D01*
X15085714Y41600000D01*
X15114285Y41571429D01*
X15342857Y41571429D02*
X15371428Y41600000D01*
X15428571Y41628572D01*
X15571428Y41628572D01*
X15628571Y41600000D01*
X15657142Y41571429D01*
X15685714Y41514286D01*
X15685714Y41457143D01*
X15657142Y41371429D01*
X15314285Y41028572D01*
X15685714Y41028572D01*
X16057142Y41628572D02*
X16114285Y41628572D01*
X16171428Y41600000D01*
X16200000Y41571429D01*
X16228571Y41514286D01*
X16257142Y41400000D01*
X16257142Y41257143D01*
X16228571Y41142858D01*
X16200000Y41085715D01*
X16171428Y41057143D01*
X16114285Y41028572D01*
X16057142Y41028572D01*
X16000000Y41057143D01*
X15971428Y41085715D01*
X15942857Y41142858D01*
X15914285Y41257143D01*
X15914285Y41400000D01*
X15942857Y41514286D01*
X15971428Y41571429D01*
X16000000Y41600000D01*
X16057142Y41628572D01*
%TO.C,U7*%
X17242857Y6928572D02*
X17242857Y6442858D01*
X17271428Y6385715D01*
X17300000Y6357143D01*
X17357142Y6328572D01*
X17471428Y6328572D01*
X17528571Y6357143D01*
X17557142Y6385715D01*
X17585714Y6442858D01*
X17585714Y6928572D01*
X17814285Y6928572D02*
X18214285Y6928572D01*
X17957142Y6328572D01*
%TO.C,R24*%
X34871428Y31614286D02*
X34585714Y31414286D01*
X34871428Y31271429D02*
X34271428Y31271429D01*
X34271428Y31500000D01*
X34300000Y31557143D01*
X34328571Y31585715D01*
X34385714Y31614286D01*
X34471428Y31614286D01*
X34528571Y31585715D01*
X34557142Y31557143D01*
X34585714Y31500000D01*
X34585714Y31271429D01*
X34328571Y31842858D02*
X34300000Y31871429D01*
X34271428Y31928572D01*
X34271428Y32071429D01*
X34300000Y32128572D01*
X34328571Y32157143D01*
X34385714Y32185715D01*
X34442857Y32185715D01*
X34528571Y32157143D01*
X34871428Y31814286D01*
X34871428Y32185715D01*
X34471428Y32700000D02*
X34871428Y32700000D01*
X34242857Y32557143D02*
X34671428Y32414286D01*
X34671428Y32785715D01*
%TO.C,USB1*%
X2357142Y32628572D02*
X2357142Y32142858D01*
X2385714Y32085715D01*
X2414285Y32057143D01*
X2471428Y32028572D01*
X2585714Y32028572D01*
X2642857Y32057143D01*
X2671428Y32085715D01*
X2700000Y32142858D01*
X2700000Y32628572D01*
X2957142Y32057143D02*
X3042857Y32028572D01*
X3185714Y32028572D01*
X3242857Y32057143D01*
X3271428Y32085715D01*
X3300000Y32142858D01*
X3300000Y32200000D01*
X3271428Y32257143D01*
X3242857Y32285715D01*
X3185714Y32314286D01*
X3071428Y32342858D01*
X3014285Y32371429D01*
X2985714Y32400000D01*
X2957142Y32457143D01*
X2957142Y32514286D01*
X2985714Y32571429D01*
X3014285Y32600000D01*
X3071428Y32628572D01*
X3214285Y32628572D01*
X3300000Y32600000D01*
X3757142Y32342858D02*
X3842857Y32314286D01*
X3871428Y32285715D01*
X3900000Y32228572D01*
X3900000Y32142858D01*
X3871428Y32085715D01*
X3842857Y32057143D01*
X3785714Y32028572D01*
X3557142Y32028572D01*
X3557142Y32628572D01*
X3757142Y32628572D01*
X3814285Y32600000D01*
X3842857Y32571429D01*
X3871428Y32514286D01*
X3871428Y32457143D01*
X3842857Y32400000D01*
X3814285Y32371429D01*
X3757142Y32342858D01*
X3557142Y32342858D01*
X4471428Y32028572D02*
X4128571Y32028572D01*
X4300000Y32028572D02*
X4300000Y32628572D01*
X4242857Y32542858D01*
X4185714Y32485715D01*
X4128571Y32457143D01*
%TO.C,J1*%
X38400000Y1128572D02*
X38400000Y700000D01*
X38371428Y614286D01*
X38314285Y557143D01*
X38228571Y528572D01*
X38171428Y528572D01*
X39000000Y528572D02*
X38657142Y528572D01*
X38828571Y528572D02*
X38828571Y1128572D01*
X38771428Y1042858D01*
X38714285Y985715D01*
X38657142Y957143D01*
%TO.C,U2*%
X33442857Y2128572D02*
X33442857Y1642858D01*
X33471428Y1585715D01*
X33500000Y1557143D01*
X33557142Y1528572D01*
X33671428Y1528572D01*
X33728571Y1557143D01*
X33757142Y1585715D01*
X33785714Y1642858D01*
X33785714Y2128572D01*
X34042857Y2071429D02*
X34071428Y2100000D01*
X34128571Y2128572D01*
X34271428Y2128572D01*
X34328571Y2100000D01*
X34357142Y2071429D01*
X34385714Y2014286D01*
X34385714Y1957143D01*
X34357142Y1871429D01*
X34014285Y1528572D01*
X34385714Y1528572D01*
%TO.C,R16*%
X33471428Y34114286D02*
X33185714Y33914286D01*
X33471428Y33771429D02*
X32871428Y33771429D01*
X32871428Y34000000D01*
X32900000Y34057143D01*
X32928571Y34085715D01*
X32985714Y34114286D01*
X33071428Y34114286D01*
X33128571Y34085715D01*
X33157142Y34057143D01*
X33185714Y34000000D01*
X33185714Y33771429D01*
X33471428Y34685715D02*
X33471428Y34342858D01*
X33471428Y34514286D02*
X32871428Y34514286D01*
X32957142Y34457143D01*
X33014285Y34400000D01*
X33042857Y34342858D01*
X32871428Y35200000D02*
X32871428Y35085715D01*
X32900000Y35028572D01*
X32928571Y35000000D01*
X33014285Y34942858D01*
X33128571Y34914286D01*
X33357142Y34914286D01*
X33414285Y34942858D01*
X33442857Y34971429D01*
X33471428Y35028572D01*
X33471428Y35142858D01*
X33442857Y35200000D01*
X33414285Y35228572D01*
X33357142Y35257143D01*
X33214285Y35257143D01*
X33157142Y35228572D01*
X33128571Y35200000D01*
X33100000Y35142858D01*
X33100000Y35028572D01*
X33128571Y34971429D01*
X33157142Y34942858D01*
X33214285Y34914286D01*
%TO.C,D3*%
X8771428Y27357143D02*
X8171428Y27357143D01*
X8171428Y27500000D01*
X8200000Y27585715D01*
X8257142Y27642858D01*
X8314285Y27671429D01*
X8428571Y27700000D01*
X8514285Y27700000D01*
X8628571Y27671429D01*
X8685714Y27642858D01*
X8742857Y27585715D01*
X8771428Y27500000D01*
X8771428Y27357143D01*
X8171428Y27900000D02*
X8171428Y28271429D01*
X8400000Y28071429D01*
X8400000Y28157143D01*
X8428571Y28214286D01*
X8457142Y28242858D01*
X8514285Y28271429D01*
X8657142Y28271429D01*
X8714285Y28242858D01*
X8742857Y28214286D01*
X8771428Y28157143D01*
X8771428Y27985715D01*
X8742857Y27928572D01*
X8714285Y27900000D01*
%TO.C,J2*%
X40916243Y37940914D02*
X41219289Y37637868D01*
X41259695Y37557056D01*
X41259695Y37476244D01*
X41219289Y37395432D01*
X41178883Y37355026D01*
X41138477Y38082336D02*
X41138477Y38122742D01*
X41158680Y38183351D01*
X41259695Y38284366D01*
X41320304Y38304569D01*
X41360710Y38304569D01*
X41421319Y38284366D01*
X41461725Y38243960D01*
X41502132Y38163148D01*
X41502132Y37678275D01*
X41764771Y37940914D01*
%TO.C,C4*%
X27700000Y21885715D02*
X27671428Y21857143D01*
X27585714Y21828572D01*
X27528571Y21828572D01*
X27442857Y21857143D01*
X27385714Y21914286D01*
X27357142Y21971429D01*
X27328571Y22085715D01*
X27328571Y22171429D01*
X27357142Y22285715D01*
X27385714Y22342858D01*
X27442857Y22400000D01*
X27528571Y22428572D01*
X27585714Y22428572D01*
X27671428Y22400000D01*
X27700000Y22371429D01*
X28214285Y22228572D02*
X28214285Y21828572D01*
X28071428Y22457143D02*
X27928571Y22028572D01*
X28300000Y22028572D01*
%TO.C,J5*%
X37303156Y41300914D02*
X37606202Y40997868D01*
X37646608Y40917056D01*
X37646608Y40836244D01*
X37606202Y40755432D01*
X37565796Y40715026D01*
X37707217Y41704975D02*
X37505187Y41502945D01*
X37687014Y41280711D01*
X37687014Y41321117D01*
X37707217Y41381726D01*
X37808232Y41482742D01*
X37868841Y41502945D01*
X37909248Y41502945D01*
X37969857Y41482742D01*
X38070872Y41381726D01*
X38091075Y41321117D01*
X38091075Y41280711D01*
X38070872Y41220102D01*
X37969857Y41119087D01*
X37909248Y41098884D01*
X37868841Y41098884D01*
%TO.C,U6*%
X16171428Y20342858D02*
X16657142Y20342858D01*
X16714285Y20371429D01*
X16742857Y20400000D01*
X16771428Y20457143D01*
X16771428Y20571429D01*
X16742857Y20628572D01*
X16714285Y20657143D01*
X16657142Y20685715D01*
X16171428Y20685715D01*
X16171428Y21228572D02*
X16171428Y21114286D01*
X16200000Y21057143D01*
X16228571Y21028572D01*
X16314285Y20971429D01*
X16428571Y20942858D01*
X16657142Y20942858D01*
X16714285Y20971429D01*
X16742857Y21000000D01*
X16771428Y21057143D01*
X16771428Y21171429D01*
X16742857Y21228572D01*
X16714285Y21257143D01*
X16657142Y21285715D01*
X16514285Y21285715D01*
X16457142Y21257143D01*
X16428571Y21228572D01*
X16400000Y21171429D01*
X16400000Y21057143D01*
X16428571Y21000000D01*
X16457142Y20971429D01*
X16514285Y20942858D01*
%TO.C,L1*%
X15900000Y16628572D02*
X15614285Y16628572D01*
X15614285Y17228572D01*
X16414285Y16628572D02*
X16071428Y16628572D01*
X16242857Y16628572D02*
X16242857Y17228572D01*
X16185714Y17142858D01*
X16128571Y17085715D01*
X16071428Y17057143D01*
%TO.C,U9*%
X28571428Y13642858D02*
X29057142Y13642858D01*
X29114285Y13671429D01*
X29142857Y13700000D01*
X29171428Y13757143D01*
X29171428Y13871429D01*
X29142857Y13928572D01*
X29114285Y13957143D01*
X29057142Y13985715D01*
X28571428Y13985715D01*
X29171428Y14300000D02*
X29171428Y14414286D01*
X29142857Y14471429D01*
X29114285Y14500000D01*
X29028571Y14557143D01*
X28914285Y14585715D01*
X28685714Y14585715D01*
X28628571Y14557143D01*
X28600000Y14528572D01*
X28571428Y14471429D01*
X28571428Y14357143D01*
X28600000Y14300000D01*
X28628571Y14271429D01*
X28685714Y14242858D01*
X28828571Y14242858D01*
X28885714Y14271429D01*
X28914285Y14300000D01*
X28942857Y14357143D01*
X28942857Y14471429D01*
X28914285Y14528572D01*
X28885714Y14557143D01*
X28828571Y14585715D01*
%TO.C,C1*%
X8757142Y8433334D02*
X8804761Y8385715D01*
X8852380Y8242858D01*
X8852380Y8147620D01*
X8804761Y8004762D01*
X8709523Y7909524D01*
X8614285Y7861905D01*
X8423809Y7814286D01*
X8280952Y7814286D01*
X8090476Y7861905D01*
X7995238Y7909524D01*
X7900000Y8004762D01*
X7852380Y8147620D01*
X7852380Y8242858D01*
X7900000Y8385715D01*
X7947619Y8433334D01*
X8852380Y9385715D02*
X8852380Y8814286D01*
X8852380Y9100000D02*
X7852380Y9100000D01*
X7995238Y9004762D01*
X8090476Y8909524D01*
X8138095Y8814286D01*
%TO.C,R15*%
X40371428Y36014286D02*
X40085714Y35814286D01*
X40371428Y35671429D02*
X39771428Y35671429D01*
X39771428Y35900000D01*
X39800000Y35957143D01*
X39828571Y35985715D01*
X39885714Y36014286D01*
X39971428Y36014286D01*
X40028571Y35985715D01*
X40057142Y35957143D01*
X40085714Y35900000D01*
X40085714Y35671429D01*
X40371428Y36585715D02*
X40371428Y36242858D01*
X40371428Y36414286D02*
X39771428Y36414286D01*
X39857142Y36357143D01*
X39914285Y36300000D01*
X39942857Y36242858D01*
X39771428Y37128572D02*
X39771428Y36842858D01*
X40057142Y36814286D01*
X40028571Y36842858D01*
X40000000Y36900000D01*
X40000000Y37042858D01*
X40028571Y37100000D01*
X40057142Y37128572D01*
X40114285Y37157143D01*
X40257142Y37157143D01*
X40314285Y37128572D01*
X40342857Y37100000D01*
X40371428Y37042858D01*
X40371428Y36900000D01*
X40342857Y36842858D01*
X40314285Y36814286D01*
%TO.C,SW1*%
X25942857Y23600000D02*
X25971428Y23685715D01*
X25971428Y23828572D01*
X25942857Y23885715D01*
X25914285Y23914286D01*
X25857142Y23942858D01*
X25800000Y23942858D01*
X25742857Y23914286D01*
X25714285Y23885715D01*
X25685714Y23828572D01*
X25657142Y23714286D01*
X25628571Y23657143D01*
X25600000Y23628572D01*
X25542857Y23600000D01*
X25485714Y23600000D01*
X25428571Y23628572D01*
X25400000Y23657143D01*
X25371428Y23714286D01*
X25371428Y23857143D01*
X25400000Y23942858D01*
X25371428Y24142858D02*
X25971428Y24285715D01*
X25542857Y24400000D01*
X25971428Y24514286D01*
X25371428Y24657143D01*
X25971428Y25200000D02*
X25971428Y24857143D01*
X25971428Y25028572D02*
X25371428Y25028572D01*
X25457142Y24971429D01*
X25514285Y24914286D01*
X25542857Y24857143D01*
%TO.C,C15*%
X16014285Y10014286D02*
X16042857Y9985715D01*
X16071428Y9900000D01*
X16071428Y9842858D01*
X16042857Y9757143D01*
X15985714Y9700000D01*
X15928571Y9671429D01*
X15814285Y9642858D01*
X15728571Y9642858D01*
X15614285Y9671429D01*
X15557142Y9700000D01*
X15500000Y9757143D01*
X15471428Y9842858D01*
X15471428Y9900000D01*
X15500000Y9985715D01*
X15528571Y10014286D01*
X16071428Y10585715D02*
X16071428Y10242858D01*
X16071428Y10414286D02*
X15471428Y10414286D01*
X15557142Y10357143D01*
X15614285Y10300000D01*
X15642857Y10242858D01*
X15471428Y11128572D02*
X15471428Y10842858D01*
X15757142Y10814286D01*
X15728571Y10842858D01*
X15700000Y10900000D01*
X15700000Y11042858D01*
X15728571Y11100000D01*
X15757142Y11128572D01*
X15814285Y11157143D01*
X15957142Y11157143D01*
X16014285Y11128572D01*
X16042857Y11100000D01*
X16071428Y11042858D01*
X16071428Y10900000D01*
X16042857Y10842858D01*
X16014285Y10814286D01*
%TO.C,R23*%
X36271428Y25614286D02*
X35985714Y25414286D01*
X36271428Y25271429D02*
X35671428Y25271429D01*
X35671428Y25500000D01*
X35700000Y25557143D01*
X35728571Y25585715D01*
X35785714Y25614286D01*
X35871428Y25614286D01*
X35928571Y25585715D01*
X35957142Y25557143D01*
X35985714Y25500000D01*
X35985714Y25271429D01*
X35728571Y25842858D02*
X35700000Y25871429D01*
X35671428Y25928572D01*
X35671428Y26071429D01*
X35700000Y26128572D01*
X35728571Y26157143D01*
X35785714Y26185715D01*
X35842857Y26185715D01*
X35928571Y26157143D01*
X36271428Y25814286D01*
X36271428Y26185715D01*
X35671428Y26385715D02*
X35671428Y26757143D01*
X35900000Y26557143D01*
X35900000Y26642858D01*
X35928571Y26700000D01*
X35957142Y26728572D01*
X36014285Y26757143D01*
X36157142Y26757143D01*
X36214285Y26728572D01*
X36242857Y26700000D01*
X36271428Y26642858D01*
X36271428Y26471429D01*
X36242857Y26414286D01*
X36214285Y26385715D01*
%TO.C,C19*%
X33514285Y38214286D02*
X33542857Y38185715D01*
X33571428Y38100000D01*
X33571428Y38042858D01*
X33542857Y37957143D01*
X33485714Y37900000D01*
X33428571Y37871429D01*
X33314285Y37842858D01*
X33228571Y37842858D01*
X33114285Y37871429D01*
X33057142Y37900000D01*
X33000000Y37957143D01*
X32971428Y38042858D01*
X32971428Y38100000D01*
X33000000Y38185715D01*
X33028571Y38214286D01*
X33571428Y38785715D02*
X33571428Y38442858D01*
X33571428Y38614286D02*
X32971428Y38614286D01*
X33057142Y38557143D01*
X33114285Y38500000D01*
X33142857Y38442858D01*
X33571428Y39071429D02*
X33571428Y39185715D01*
X33542857Y39242858D01*
X33514285Y39271429D01*
X33428571Y39328572D01*
X33314285Y39357143D01*
X33085714Y39357143D01*
X33028571Y39328572D01*
X33000000Y39300000D01*
X32971428Y39242858D01*
X32971428Y39128572D01*
X33000000Y39071429D01*
X33028571Y39042858D01*
X33085714Y39014286D01*
X33228571Y39014286D01*
X33285714Y39042858D01*
X33314285Y39071429D01*
X33342857Y39128572D01*
X33342857Y39242858D01*
X33314285Y39300000D01*
X33285714Y39328572D01*
X33228571Y39357143D01*
%TO.C,JP3*%
X38300000Y27128572D02*
X38300000Y26700000D01*
X38271428Y26614286D01*
X38214285Y26557143D01*
X38128571Y26528572D01*
X38071428Y26528572D01*
X38585714Y26528572D02*
X38585714Y27128572D01*
X38814285Y27128572D01*
X38871428Y27100000D01*
X38900000Y27071429D01*
X38928571Y27014286D01*
X38928571Y26928572D01*
X38900000Y26871429D01*
X38871428Y26842858D01*
X38814285Y26814286D01*
X38585714Y26814286D01*
X39128571Y27128572D02*
X39500000Y27128572D01*
X39300000Y26900000D01*
X39385714Y26900000D01*
X39442857Y26871429D01*
X39471428Y26842858D01*
X39500000Y26785715D01*
X39500000Y26642858D01*
X39471428Y26585715D01*
X39442857Y26557143D01*
X39385714Y26528572D01*
X39214285Y26528572D01*
X39157142Y26557143D01*
X39128571Y26585715D01*
%TO.C,U4*%
X7871428Y15042858D02*
X8357142Y15042858D01*
X8414285Y15071429D01*
X8442857Y15100000D01*
X8471428Y15157143D01*
X8471428Y15271429D01*
X8442857Y15328572D01*
X8414285Y15357143D01*
X8357142Y15385715D01*
X7871428Y15385715D01*
X8071428Y15928572D02*
X8471428Y15928572D01*
X7842857Y15785715D02*
X8271428Y15642858D01*
X8271428Y16014286D01*
%TO.C,R17*%
X34871428Y29214286D02*
X34585714Y29014286D01*
X34871428Y28871429D02*
X34271428Y28871429D01*
X34271428Y29100000D01*
X34300000Y29157143D01*
X34328571Y29185715D01*
X34385714Y29214286D01*
X34471428Y29214286D01*
X34528571Y29185715D01*
X34557142Y29157143D01*
X34585714Y29100000D01*
X34585714Y28871429D01*
X34871428Y29785715D02*
X34871428Y29442858D01*
X34871428Y29614286D02*
X34271428Y29614286D01*
X34357142Y29557143D01*
X34414285Y29500000D01*
X34442857Y29442858D01*
X34271428Y29985715D02*
X34271428Y30385715D01*
X34871428Y30128572D01*
%TO.C,R3*%
X17900000Y16228572D02*
X17700000Y16514286D01*
X17557142Y16228572D02*
X17557142Y16828572D01*
X17785714Y16828572D01*
X17842857Y16800000D01*
X17871428Y16771429D01*
X17900000Y16714286D01*
X17900000Y16628572D01*
X17871428Y16571429D01*
X17842857Y16542858D01*
X17785714Y16514286D01*
X17557142Y16514286D01*
X18100000Y16828572D02*
X18471428Y16828572D01*
X18271428Y16600000D01*
X18357142Y16600000D01*
X18414285Y16571429D01*
X18442857Y16542858D01*
X18471428Y16485715D01*
X18471428Y16342858D01*
X18442857Y16285715D01*
X18414285Y16257143D01*
X18357142Y16228572D01*
X18185714Y16228572D01*
X18128571Y16257143D01*
X18100000Y16285715D01*
%TO.C,U3*%
X6671428Y30642858D02*
X7157142Y30642858D01*
X7214285Y30671429D01*
X7242857Y30700000D01*
X7271428Y30757143D01*
X7271428Y30871429D01*
X7242857Y30928572D01*
X7214285Y30957143D01*
X7157142Y30985715D01*
X6671428Y30985715D01*
X6671428Y31214286D02*
X6671428Y31585715D01*
X6900000Y31385715D01*
X6900000Y31471429D01*
X6928571Y31528572D01*
X6957142Y31557143D01*
X7014285Y31585715D01*
X7157142Y31585715D01*
X7214285Y31557143D01*
X7242857Y31528572D01*
X7271428Y31471429D01*
X7271428Y31300000D01*
X7242857Y31242858D01*
X7214285Y31214286D01*
%TO.C,R18*%
X34771428Y25014286D02*
X34485714Y24814286D01*
X34771428Y24671429D02*
X34171428Y24671429D01*
X34171428Y24900000D01*
X34200000Y24957143D01*
X34228571Y24985715D01*
X34285714Y25014286D01*
X34371428Y25014286D01*
X34428571Y24985715D01*
X34457142Y24957143D01*
X34485714Y24900000D01*
X34485714Y24671429D01*
X34771428Y25585715D02*
X34771428Y25242858D01*
X34771428Y25414286D02*
X34171428Y25414286D01*
X34257142Y25357143D01*
X34314285Y25300000D01*
X34342857Y25242858D01*
X34428571Y25928572D02*
X34400000Y25871429D01*
X34371428Y25842858D01*
X34314285Y25814286D01*
X34285714Y25814286D01*
X34228571Y25842858D01*
X34200000Y25871429D01*
X34171428Y25928572D01*
X34171428Y26042858D01*
X34200000Y26100000D01*
X34228571Y26128572D01*
X34285714Y26157143D01*
X34314285Y26157143D01*
X34371428Y26128572D01*
X34400000Y26100000D01*
X34428571Y26042858D01*
X34428571Y25928572D01*
X34457142Y25871429D01*
X34485714Y25842858D01*
X34542857Y25814286D01*
X34657142Y25814286D01*
X34714285Y25842858D01*
X34742857Y25871429D01*
X34771428Y25928572D01*
X34771428Y26042858D01*
X34742857Y26100000D01*
X34714285Y26128572D01*
X34657142Y26157143D01*
X34542857Y26157143D01*
X34485714Y26128572D01*
X34457142Y26100000D01*
X34428571Y26042858D01*
%TO.C,R11*%
X25814285Y7728572D02*
X25614285Y8014286D01*
X25471428Y7728572D02*
X25471428Y8328572D01*
X25700000Y8328572D01*
X25757142Y8300000D01*
X25785714Y8271429D01*
X25814285Y8214286D01*
X25814285Y8128572D01*
X25785714Y8071429D01*
X25757142Y8042858D01*
X25700000Y8014286D01*
X25471428Y8014286D01*
X26385714Y7728572D02*
X26042857Y7728572D01*
X26214285Y7728572D02*
X26214285Y8328572D01*
X26157142Y8242858D01*
X26100000Y8185715D01*
X26042857Y8157143D01*
X26957142Y7728572D02*
X26614285Y7728572D01*
X26785714Y7728572D02*
X26785714Y8328572D01*
X26728571Y8242858D01*
X26671428Y8185715D01*
X26614285Y8157143D01*
%TO.C,U8*%
X21842857Y1228572D02*
X21842857Y742858D01*
X21871428Y685715D01*
X21900000Y657143D01*
X21957142Y628572D01*
X22071428Y628572D01*
X22128571Y657143D01*
X22157142Y685715D01*
X22185714Y742858D01*
X22185714Y1228572D01*
X22557142Y971429D02*
X22500000Y1000000D01*
X22471428Y1028572D01*
X22442857Y1085715D01*
X22442857Y1114286D01*
X22471428Y1171429D01*
X22500000Y1200000D01*
X22557142Y1228572D01*
X22671428Y1228572D01*
X22728571Y1200000D01*
X22757142Y1171429D01*
X22785714Y1114286D01*
X22785714Y1085715D01*
X22757142Y1028572D01*
X22728571Y1000000D01*
X22671428Y971429D01*
X22557142Y971429D01*
X22500000Y942858D01*
X22471428Y914286D01*
X22442857Y857143D01*
X22442857Y742858D01*
X22471428Y685715D01*
X22500000Y657143D01*
X22557142Y628572D01*
X22671428Y628572D01*
X22728571Y657143D01*
X22757142Y685715D01*
X22785714Y742858D01*
X22785714Y857143D01*
X22757142Y914286D01*
X22728571Y942858D01*
X22671428Y971429D01*
%TO.C,C10*%
X21114285Y10914286D02*
X21142857Y10885715D01*
X21171428Y10800000D01*
X21171428Y10742858D01*
X21142857Y10657143D01*
X21085714Y10600000D01*
X21028571Y10571429D01*
X20914285Y10542858D01*
X20828571Y10542858D01*
X20714285Y10571429D01*
X20657142Y10600000D01*
X20600000Y10657143D01*
X20571428Y10742858D01*
X20571428Y10800000D01*
X20600000Y10885715D01*
X20628571Y10914286D01*
X21171428Y11485715D02*
X21171428Y11142858D01*
X21171428Y11314286D02*
X20571428Y11314286D01*
X20657142Y11257143D01*
X20714285Y11200000D01*
X20742857Y11142858D01*
X20571428Y11857143D02*
X20571428Y11914286D01*
X20600000Y11971429D01*
X20628571Y12000000D01*
X20685714Y12028572D01*
X20800000Y12057143D01*
X20942857Y12057143D01*
X21057142Y12028572D01*
X21114285Y12000000D01*
X21142857Y11971429D01*
X21171428Y11914286D01*
X21171428Y11857143D01*
X21142857Y11800000D01*
X21114285Y11771429D01*
X21057142Y11742858D01*
X20942857Y11714286D01*
X20800000Y11714286D01*
X20685714Y11742858D01*
X20628571Y11771429D01*
X20600000Y11800000D01*
X20571428Y11857143D01*
%TO.C,R8*%
X2671428Y19400000D02*
X2385714Y19200000D01*
X2671428Y19057143D02*
X2071428Y19057143D01*
X2071428Y19285715D01*
X2100000Y19342858D01*
X2128571Y19371429D01*
X2185714Y19400000D01*
X2271428Y19400000D01*
X2328571Y19371429D01*
X2357142Y19342858D01*
X2385714Y19285715D01*
X2385714Y19057143D01*
X2328571Y19742858D02*
X2300000Y19685715D01*
X2271428Y19657143D01*
X2214285Y19628572D01*
X2185714Y19628572D01*
X2128571Y19657143D01*
X2100000Y19685715D01*
X2071428Y19742858D01*
X2071428Y19857143D01*
X2100000Y19914286D01*
X2128571Y19942858D01*
X2185714Y19971429D01*
X2214285Y19971429D01*
X2271428Y19942858D01*
X2300000Y19914286D01*
X2328571Y19857143D01*
X2328571Y19742858D01*
X2357142Y19685715D01*
X2385714Y19657143D01*
X2442857Y19628572D01*
X2557142Y19628572D01*
X2614285Y19657143D01*
X2642857Y19685715D01*
X2671428Y19742858D01*
X2671428Y19857143D01*
X2642857Y19914286D01*
X2614285Y19942858D01*
X2557142Y19971429D01*
X2442857Y19971429D01*
X2385714Y19942858D01*
X2357142Y19914286D01*
X2328571Y19857143D01*
D12*
%TO.C,C3*%
X9010000Y13020000D02*
X9010000Y12220000D01*
X7900000Y14690000D02*
X8700000Y14690000D01*
X8700000Y11910000D02*
X7900000Y11910000D01*
X7590000Y13580000D02*
X7590000Y14380000D01*
X7590000Y13020000D02*
X7590000Y12220000D01*
X9010000Y13580000D02*
X9010000Y14380000D01*
X7590000Y12220000D02*
G75*
G03*
X7900000Y11910000I310000J0D01*
G01*
X9010000Y14380000D02*
G75*
G03*
X8700000Y14690000I-310000J0D01*
G01*
X8700000Y11910000D02*
G75*
G03*
X9010000Y12220000I0J310000D01*
G01*
X7900000Y14690000D02*
G75*
G03*
X7590000Y14380000I0J-310000D01*
G01*
D10*
%TO.C,C16*%
X29620000Y16940000D02*
X29620000Y17640000D01*
X27280000Y16940000D02*
X27280000Y17640000D01*
X28220000Y16790000D02*
X27430000Y16790000D01*
X27430000Y17790000D02*
X28220000Y17790000D01*
X29470000Y17790000D02*
X28680000Y17790000D01*
X28680000Y16790000D02*
X29470000Y16790000D01*
X29470000Y16790000D02*
G75*
G03*
X29620000Y16940000I0J150000D01*
G01*
X27280000Y16940000D02*
G75*
G03*
X27430000Y16790000I150000J0D01*
G01*
X27430000Y17790000D02*
G75*
G03*
X27280000Y17640000I0J-150000D01*
G01*
X29620000Y17640000D02*
G75*
G03*
X29470000Y17790000I-150000J0D01*
G01*
%TO.C,R12*%
X27440000Y9100000D02*
X27440000Y10100000D01*
X25560000Y9100000D02*
X25560000Y10100000D01*
X27440000Y10100000D02*
X26730000Y10100000D01*
X26730000Y9100000D02*
X27440000Y9100000D01*
X25560000Y10100000D02*
X26270000Y10100000D01*
X26270000Y9100000D02*
X25560000Y9100000D01*
D12*
%TO.C,C7*%
X13390000Y37600000D02*
X13390000Y36800000D01*
X11720000Y37910000D02*
X10920000Y37910000D01*
X10610000Y36800000D02*
X10610000Y37600000D01*
X12280000Y36490000D02*
X13080000Y36490000D01*
X12280000Y37910000D02*
X13080000Y37910000D01*
X11720000Y36490000D02*
X10920000Y36490000D01*
X10610000Y36800000D02*
G75*
G03*
X10920000Y36490000I310000J0D01*
G01*
X13080000Y36490000D02*
G75*
G03*
X13390000Y36800000I0J310000D01*
G01*
X10920000Y37910000D02*
G75*
G03*
X10610000Y37600000I0J-310000D01*
G01*
X13390000Y37600000D02*
G75*
G03*
X13080000Y37910000I-310000J0D01*
G01*
D10*
%TO.C,R5*%
X18940000Y25100000D02*
X18230000Y25100000D01*
X17060000Y24100000D02*
X17060000Y25100000D01*
X17060000Y25100000D02*
X17770000Y25100000D01*
X18940000Y24100000D02*
X18940000Y25100000D01*
X18230000Y24100000D02*
X18940000Y24100000D01*
X17770000Y24100000D02*
X17060000Y24100000D01*
D12*
%TO.C,C11*%
X19390000Y8987500D02*
X19390000Y9787500D01*
X20810000Y8987500D02*
X20810000Y9787500D01*
X20500000Y7317500D02*
X19700000Y7317500D01*
X19700000Y10097500D02*
X20500000Y10097500D01*
X19390000Y8427500D02*
X19390000Y7627500D01*
X20810000Y8427500D02*
X20810000Y7627500D01*
X19390000Y7627500D02*
G75*
G03*
X19700000Y7317500I310000J0D01*
G01*
X20810000Y9787500D02*
G75*
G03*
X20500000Y10097500I-310000J0D01*
G01*
X20500000Y7317500D02*
G75*
G03*
X20810000Y7627500I0J310000D01*
G01*
X19700000Y10097500D02*
G75*
G03*
X19390000Y9787500I0J-310000D01*
G01*
D10*
%TO.C,R10*%
X17900000Y7970000D02*
X17900000Y7260000D01*
X17900000Y9140000D02*
X18900000Y9140000D01*
X18900000Y7260000D02*
X18900000Y7970000D01*
X17900000Y8430000D02*
X17900000Y9140000D01*
X18900000Y9140000D02*
X18900000Y8430000D01*
X17900000Y7260000D02*
X18900000Y7260000D01*
D12*
%TO.C,U1*%
X16105000Y1205000D02*
X15305000Y1205000D01*
X16105000Y6955000D02*
X16105000Y255000D01*
X16105000Y255000D02*
X8795000Y255000D01*
X9635000Y1205000D02*
X8795000Y1205000D01*
X8795000Y255000D02*
X8795000Y6965000D01*
X8795000Y6965000D02*
X16105000Y6965000D01*
X13135000Y1205000D02*
X11805000Y1205000D01*
D13*
%TO.C,JP1*%
X31600000Y9200000D02*
X31600000Y8600000D01*
X28800000Y8600000D02*
X28800000Y9200000D01*
X30900000Y7900000D02*
X29500000Y7900000D01*
X29500000Y9900000D02*
X30900000Y9900000D01*
X31600000Y9200000D02*
G75*
G03*
X30900000Y9900000I-700000J0D01*
G01*
X29500000Y9900000D02*
G75*
G03*
X28800000Y9200000I-1J-699999D01*
G01*
X30900000Y7900000D02*
G75*
G03*
X31600000Y8600000I0J700000D01*
G01*
X28800000Y8600000D02*
G75*
G03*
X29500000Y7900000I699999J-1D01*
G01*
D12*
%TO.C,U10*%
X32470000Y41700000D02*
X32470000Y41740000D01*
X23470000Y44450000D02*
X23470000Y46050000D01*
X16970000Y26250000D02*
X16970000Y46750000D01*
X32470000Y26250000D02*
X16970000Y26250000D01*
X16970000Y41700000D02*
X32470000Y41700000D01*
X29970000Y46050000D02*
X29970000Y43350000D01*
X27870000Y46050000D02*
X29970000Y46050000D01*
X25670000Y44450000D02*
X27870000Y44450000D01*
X32470000Y46750000D02*
X32470000Y26250000D01*
X21270000Y46050000D02*
X21270000Y44450000D01*
X25670000Y46050000D02*
X25670000Y44450000D01*
X19770000Y46050000D02*
X19770000Y43350000D01*
X16970000Y46750000D02*
X32470000Y46750000D01*
X27870000Y44450000D02*
X27870000Y46050000D01*
X18170000Y43350000D02*
X18170000Y46050000D01*
X19770000Y46050000D02*
X21270000Y46050000D01*
X21270000Y44450000D02*
X23470000Y44450000D01*
X18170000Y46050000D02*
X19770000Y46050000D01*
X23470000Y46050000D02*
X25670000Y46050000D01*
X16610000Y40250000D02*
G75*
G03*
X16610000Y40250000I-140000J0D01*
G01*
D10*
%TO.C,C9*%
X9050000Y26030000D02*
X7040000Y26030000D01*
X7040000Y20170000D02*
X9050000Y20170000D01*
X12350000Y26030000D02*
X14360000Y26030000D01*
X14510000Y25880000D02*
X14510000Y20320000D01*
X14360000Y20170000D02*
X12350000Y20170000D01*
X6890000Y25880000D02*
X6890000Y20320000D01*
X6890000Y20320000D02*
G75*
G03*
X7040000Y20170000I150000J0D01*
G01*
X7040000Y26030000D02*
G75*
G03*
X6890000Y25880000I0J-150000D01*
G01*
X14510000Y25880000D02*
G75*
G03*
X14360000Y26030000I-150000J0D01*
G01*
X14360000Y20170000D02*
G75*
G03*
X14510000Y20320000I0J150000D01*
G01*
%TO.C,R22*%
X15840000Y32200000D02*
X15130000Y32200000D01*
X13960000Y31200000D02*
X13960000Y32200000D01*
X14670000Y31200000D02*
X13960000Y31200000D01*
X13960000Y32200000D02*
X14670000Y32200000D01*
X15130000Y31200000D02*
X15840000Y31200000D01*
X15840000Y31200000D02*
X15840000Y32200000D01*
%TO.C,R9*%
X7170000Y41500000D02*
X6460000Y41500000D01*
X6460000Y40500000D02*
X7170000Y40500000D01*
X7630000Y41500000D02*
X8340000Y41500000D01*
X6460000Y41500000D02*
X6460000Y40500000D01*
X8340000Y41500000D02*
X8340000Y40500000D01*
X8340000Y40500000D02*
X7630000Y40500000D01*
%TO.C,R2*%
X15690000Y11420000D02*
X17050000Y11420000D01*
X17050000Y13580000D02*
X15690000Y13580000D01*
X20310000Y11420000D02*
X18950000Y11420000D01*
X20310000Y13580000D02*
X20310000Y11420000D01*
X15690000Y13580000D02*
X15690000Y11420000D01*
X18950000Y13580000D02*
X20310000Y13580000D01*
D12*
%TO.C,C2*%
X11920000Y28910000D02*
X11120000Y28910000D01*
X13590000Y28600000D02*
X13590000Y27800000D01*
X11920000Y27490000D02*
X11120000Y27490000D01*
X12480000Y27490000D02*
X13280000Y27490000D01*
X12480000Y28910000D02*
X13280000Y28910000D01*
X10810000Y27800000D02*
X10810000Y28600000D01*
X10810000Y27800000D02*
G75*
G03*
X11120000Y27490000I310000J0D01*
G01*
X13590000Y28600000D02*
G75*
G03*
X13280000Y28910000I-310000J0D01*
G01*
X11120000Y28910000D02*
G75*
G03*
X10810000Y28600000I0J-310000D01*
G01*
X13280000Y27490000D02*
G75*
G03*
X13590000Y27800000I0J310000D01*
G01*
D10*
%TO.C,R14*%
X41700000Y33390000D02*
X40700000Y33390000D01*
X40700000Y33390000D02*
X40700000Y34100000D01*
X40700000Y35270000D02*
X40700000Y34560000D01*
X41700000Y34100000D02*
X41700000Y33390000D01*
X41700000Y35270000D02*
X40700000Y35270000D01*
X41700000Y34560000D02*
X41700000Y35270000D01*
D14*
%TO.C,D2*%
X10150000Y36000000D02*
X10150000Y34600000D01*
X10150000Y36000000D02*
X8850000Y36000000D01*
X8850000Y36400000D02*
X8850000Y36000000D01*
X8850000Y36000000D02*
X8850000Y34600000D01*
X10150000Y36400000D02*
X10150000Y36000000D01*
D10*
%TO.C,C18*%
X4540000Y16360000D02*
X7170000Y16380000D01*
X420000Y11020000D02*
X1820000Y9620000D01*
X420000Y16380000D02*
X420000Y11020000D01*
X1820000Y9620000D02*
X3110000Y9620000D01*
X7170000Y11020000D02*
X5780000Y9620000D01*
X5780000Y9620000D02*
X4480000Y9640000D01*
X3090000Y16370000D02*
X420000Y16380000D01*
X7170000Y16380000D02*
X7170000Y11020000D01*
%TO.C,R7*%
X12400000Y19840000D02*
X11400000Y19840000D01*
X12400000Y17960000D02*
X11400000Y17960000D01*
X12400000Y19130000D02*
X12400000Y19840000D01*
X11400000Y17960000D02*
X11400000Y18670000D01*
X11400000Y19840000D02*
X11400000Y19130000D01*
X12400000Y18670000D02*
X12400000Y17960000D01*
D13*
%TO.C,JP4*%
X37500000Y32557500D02*
X40300000Y32557500D01*
X37700000Y30357500D02*
X38000000Y30057500D01*
X36850000Y31257500D02*
X36850000Y31857500D01*
X40300000Y30557500D02*
X37500000Y30557500D01*
X37400000Y30057500D02*
X38000000Y30057500D01*
X37700000Y30357500D02*
X37400000Y30057500D01*
X40950000Y31857500D02*
X40950000Y31257500D01*
X40950000Y31857500D02*
G75*
G03*
X40250000Y32557500I-700000J0D01*
G01*
X36850000Y31257500D02*
G75*
G03*
X37550000Y30557500I699999J-1D01*
G01*
X40250000Y30557500D02*
G75*
G03*
X40950000Y31257500I0J700000D01*
G01*
X37550000Y32557500D02*
G75*
G03*
X36850000Y31857500I-1J-699999D01*
G01*
D10*
%TO.C,R19*%
X36740000Y39800000D02*
X36030000Y39800000D01*
X36740000Y40800000D02*
X36740000Y39800000D01*
X34860000Y40800000D02*
X34860000Y39800000D01*
X35570000Y40800000D02*
X34860000Y40800000D01*
X34860000Y39800000D02*
X35570000Y39800000D01*
X36030000Y40800000D02*
X36740000Y40800000D01*
%TO.C,SW2*%
X9570000Y41640000D02*
X13630000Y41640000D01*
X13630000Y38560000D02*
X13630000Y39220000D01*
X13630000Y41640000D02*
X13630000Y40980000D01*
X9570000Y38560000D02*
X13630000Y38560000D01*
D12*
X12500000Y40100000D02*
G75*
G03*
X12500000Y40100000I-900000J0D01*
G01*
D13*
%TO.C,JP2*%
X13942500Y29800000D02*
X13642500Y30100000D01*
X13642500Y30100000D02*
X13642500Y29500000D01*
X13942500Y29800000D02*
X13642500Y29500000D01*
X14842500Y30650000D02*
X15442500Y30650000D01*
X14142500Y27200000D02*
X14142500Y30000000D01*
X15442500Y26550000D02*
X14842500Y26550000D01*
X16142500Y30000000D02*
X16142500Y27200000D01*
X14842500Y30650000D02*
G75*
G03*
X14142500Y29950000I-1J-699999D01*
G01*
X14142500Y27250000D02*
G75*
G03*
X14842500Y26550000I700000J0D01*
G01*
X16142500Y29950000D02*
G75*
G03*
X15442500Y30650000I-699999J1D01*
G01*
X15442500Y26550000D02*
G75*
G03*
X16142500Y27250000I0J700000D01*
G01*
D10*
%TO.C,U12*%
X3160000Y41040000D02*
X3160000Y40340000D01*
X3160000Y40340000D02*
X3160000Y40240000D01*
X4510000Y41440000D02*
X3460000Y41440000D01*
X6040000Y41450000D02*
X6040000Y39970000D01*
X3160000Y41040000D02*
X3160000Y41140000D01*
D15*
X4680000Y40290000D02*
X4680000Y41080000D01*
X4680000Y40690000D02*
X4500000Y40690000D01*
D10*
X3160000Y41140000D02*
X3460000Y41440000D01*
X4890000Y41450000D02*
X6040000Y41450000D01*
X4510000Y39940000D02*
X3460000Y39940000D01*
X4890000Y39950000D02*
X6040000Y39950000D01*
X3160000Y40240000D02*
X3460000Y39940000D01*
D12*
%TO.C,U11*%
X35100000Y11020000D02*
X33120000Y11020000D01*
X35100000Y10000000D02*
X36620000Y10000000D01*
X33120000Y17110000D02*
X33120000Y17890000D01*
X33120000Y14570000D02*
X33120000Y15350000D01*
X41300000Y12200000D02*
X41300000Y22800000D01*
X33120000Y22190000D02*
X33120000Y24100000D01*
X33120000Y11020000D02*
X33120000Y12810000D01*
X33120000Y19650000D02*
X33120000Y20430000D01*
X33120000Y24100000D02*
X35100000Y24100000D01*
X35100000Y25000000D02*
X36620000Y25000000D01*
X35100000Y25000000D02*
X35100000Y10000000D01*
%TO.C,C8*%
X19320000Y790000D02*
X18520000Y790000D01*
X18210000Y1100000D02*
X18210000Y1900000D01*
X20990000Y1900000D02*
X20990000Y1100000D01*
X19880000Y790000D02*
X20680000Y790000D01*
X19320000Y2210000D02*
X18520000Y2210000D01*
X19880000Y2210000D02*
X20680000Y2210000D01*
X18210000Y1100000D02*
G75*
G03*
X18520000Y790000I310000J0D01*
G01*
X18520000Y2210000D02*
G75*
G03*
X18210000Y1900000I0J-310000D01*
G01*
X20680000Y790000D02*
G75*
G03*
X20990000Y1100000I0J310000D01*
G01*
X20990000Y1900000D02*
G75*
G03*
X20680000Y2210000I-310000J0D01*
G01*
D13*
%TO.C,J3*%
X41485000Y4605000D02*
X41485000Y5995000D01*
X41485000Y5995000D02*
X41360000Y5995000D01*
X40800000Y4605000D02*
X40115000Y4605000D01*
X40115000Y4605000D02*
X40115000Y5300000D01*
X41485000Y4605000D02*
X41485000Y4691724D01*
X41485000Y4605000D02*
X41360000Y4605000D01*
X41485000Y5908276D02*
X41485000Y5995000D01*
D12*
%TO.C,U5*%
X13430000Y34720000D02*
X13430000Y33960000D01*
X12960000Y32940000D02*
X12120000Y32940000D01*
X13240000Y35860000D02*
X11840000Y35860000D01*
D13*
%TO.C,J4*%
X39692929Y1424193D02*
X40675807Y2407071D01*
X40675807Y2407071D02*
X40587419Y2495459D01*
X38724193Y2392929D02*
X39215632Y2884368D01*
X39208561Y1908561D02*
X38724193Y2392929D01*
X39692929Y1424193D02*
X39754252Y1485516D01*
X39692929Y1424193D02*
X39604541Y1512581D01*
X40614484Y2345748D02*
X40675807Y2407071D01*
D10*
%TO.C,R4*%
X19460000Y24100000D02*
X19460000Y25100000D01*
X21340000Y24100000D02*
X21340000Y25100000D01*
X20630000Y24100000D02*
X21340000Y24100000D01*
X20170000Y24100000D02*
X19460000Y24100000D01*
X19460000Y25100000D02*
X20170000Y25100000D01*
X21340000Y25100000D02*
X20630000Y25100000D01*
%TO.C,C17*%
X22030000Y17600000D02*
X22820000Y17600000D01*
X22970000Y17450000D02*
X22970000Y16750000D01*
X20780000Y16600000D02*
X21570000Y16600000D01*
X20630000Y17450000D02*
X20630000Y16750000D01*
X22820000Y16600000D02*
X22030000Y16600000D01*
X21570000Y17600000D02*
X20780000Y17600000D01*
X20630000Y16750000D02*
G75*
G03*
X20780000Y16600000I150000J0D01*
G01*
X22820000Y16600000D02*
G75*
G03*
X22970000Y16750000I0J150000D01*
G01*
X22970000Y17450000D02*
G75*
G03*
X22820000Y17600000I-150000J0D01*
G01*
X20780000Y17600000D02*
G75*
G03*
X20630000Y17450000I0J-150000D01*
G01*
%TO.C,R6*%
X5160000Y16900000D02*
X5160000Y17900000D01*
X6330000Y16900000D02*
X7040000Y16900000D01*
X5160000Y17900000D02*
X5870000Y17900000D01*
X7040000Y17900000D02*
X6330000Y17900000D01*
X5870000Y16900000D02*
X5160000Y16900000D01*
X7040000Y16900000D02*
X7040000Y17900000D01*
D12*
%TO.C,U7*%
X17200000Y5950000D02*
X17200000Y5720000D01*
X20500000Y5950000D02*
X17200000Y5950000D01*
X20500000Y5710000D02*
X20500000Y5950000D01*
X20500000Y2650000D02*
X20500000Y2880000D01*
X17200000Y2650000D02*
X20500000Y2650000D01*
X17200000Y2870000D02*
X17200000Y2650000D01*
X21370000Y3060000D02*
G75*
G03*
X21370000Y3060000I-130000J0D01*
G01*
D10*
%TO.C,R24*%
X36200000Y31787500D02*
X36200000Y32497500D01*
X36200000Y31327500D02*
X36200000Y30617500D01*
X36200000Y30617500D02*
X35200000Y30617500D01*
X36200000Y32497500D02*
X35200000Y32497500D01*
X35200000Y30617500D02*
X35200000Y31327500D01*
X35200000Y32497500D02*
X35200000Y31787500D01*
D12*
%TO.C,USB1*%
X4747500Y26880000D02*
X-1502500Y26880000D01*
X-1502500Y22420000D02*
X257500Y22420000D01*
X-1502500Y31360000D02*
X-1502500Y22420000D01*
X3947500Y23710000D02*
X-1502500Y23710000D01*
X257500Y31360000D02*
X-1502500Y31360000D01*
X4607500Y31360000D02*
X2217500Y31360000D01*
X2217500Y22420000D02*
X4607500Y22420000D01*
X3947500Y30110000D02*
X-1502500Y30110000D01*
D13*
%TO.C,J1*%
X36105000Y1885000D02*
X36800000Y1885000D01*
X37495000Y515000D02*
X37495000Y640000D01*
X36105000Y515000D02*
X37495000Y515000D01*
X36105000Y515000D02*
X36191724Y515000D01*
X37408276Y515000D02*
X37495000Y515000D01*
X36105000Y515000D02*
X36105000Y640000D01*
X36105000Y1200000D02*
X36105000Y1885000D01*
D12*
%TO.C,U2*%
X33030000Y7000000D02*
X33030000Y300000D01*
X25720000Y7010000D02*
X33030000Y7010000D01*
X33030000Y300000D02*
X25720000Y300000D01*
X26560000Y1250000D02*
X25720000Y1250000D01*
X33030000Y1250000D02*
X32230000Y1250000D01*
X25720000Y300000D02*
X25720000Y7010000D01*
X30060000Y1250000D02*
X28730000Y1250000D01*
D10*
%TO.C,R16*%
X34000000Y31470000D02*
X34000000Y30760000D01*
X34000000Y31930000D02*
X34000000Y32640000D01*
X33000000Y32640000D02*
X33000000Y31930000D01*
X33000000Y30760000D02*
X33000000Y31470000D01*
X34000000Y30760000D02*
X33000000Y30760000D01*
X34000000Y32640000D02*
X33000000Y32640000D01*
D14*
%TO.C,D3*%
X10450000Y28300000D02*
X10450000Y26900000D01*
X10450000Y28700000D02*
X10450000Y28300000D01*
X9150000Y28300000D02*
X9150000Y26900000D01*
X9150000Y28700000D02*
X9150000Y28300000D01*
X10450000Y28300000D02*
X9150000Y28300000D01*
D13*
%TO.C,J2*%
X40362929Y37724193D02*
X41345807Y38707071D01*
X41284484Y38645748D02*
X41345807Y38707071D01*
X41345807Y38707071D02*
X41257419Y38795459D01*
X39394193Y38692929D02*
X39885632Y39184368D01*
X39878561Y38208561D02*
X39394193Y38692929D01*
X40362929Y37724193D02*
X40274541Y37812581D01*
X40362929Y37724193D02*
X40424252Y37785516D01*
%TO.C,J5*%
X39694484Y40205748D02*
X39755807Y40267071D01*
X39755807Y40267071D02*
X39667419Y40355459D01*
X37804193Y40252929D02*
X38295632Y40744368D01*
X38772929Y39284193D02*
X39755807Y40267071D01*
X38288561Y39768561D02*
X37804193Y40252929D01*
X38772929Y39284193D02*
X38834252Y39345516D01*
X38772929Y39284193D02*
X38684541Y39372581D01*
%TO.C,U6*%
X21000000Y18390000D02*
X18800000Y18390000D01*
X21000000Y23610000D02*
X17400000Y23610000D01*
X21000000Y23610000D02*
X23200000Y23610000D01*
X21000000Y18390000D02*
X23200000Y18390000D01*
D12*
%TO.C,L1*%
X13080000Y17600000D02*
X13080000Y17200000D01*
X15120000Y17200000D02*
X15120000Y17600000D01*
D15*
%TO.C,U9*%
X22250000Y11050000D02*
X22900000Y11050000D01*
X22250000Y11700000D02*
X22250000Y11050000D01*
X27550000Y16350000D02*
X26900000Y16350000D01*
X27550000Y11050000D02*
X27550000Y11700000D01*
X22250000Y16350000D02*
X22900000Y16350000D01*
X27550000Y15700000D02*
X27550000Y16350000D01*
X22250000Y15700000D02*
X22250000Y16350000D01*
X26900000Y11050000D02*
X27550000Y11050000D01*
D16*
X21900000Y16150000D02*
G75*
G03*
X21900000Y16150000I0J0D01*
G01*
D10*
%TO.C,C1*%
X9370000Y14960000D02*
X9370000Y12950000D01*
X15230000Y9650000D02*
X15230000Y7640000D01*
X15230000Y12950000D02*
X15230000Y14960000D01*
X9370000Y7640000D02*
X9370000Y9650000D01*
X15080000Y7490000D02*
X9520000Y7490000D01*
X15080000Y15110000D02*
X9520000Y15110000D01*
X9370000Y7640000D02*
G75*
G03*
X9520000Y7490000I150000J0D01*
G01*
X9520000Y15110000D02*
G75*
G03*
X9370000Y14960000I0J-150000D01*
G01*
X15230000Y14960000D02*
G75*
G03*
X15080000Y15110000I-150000J0D01*
G01*
X15080000Y7490000D02*
G75*
G03*
X15230000Y7640000I0J150000D01*
G01*
%TO.C,R15*%
X40500000Y35270000D02*
X39500000Y35270000D01*
X39500000Y35270000D02*
X39500000Y34560000D01*
X40500000Y34560000D02*
X40500000Y35270000D01*
X39500000Y33390000D02*
X39500000Y34100000D01*
X40500000Y34100000D02*
X40500000Y33390000D01*
X40500000Y33390000D02*
X39500000Y33390000D01*
%TO.C,SW1*%
X27170000Y22660000D02*
X27170000Y23320000D01*
X31230000Y25740000D02*
X27170000Y25740000D01*
X27170000Y25740000D02*
X27170000Y25080000D01*
X31230000Y22660000D02*
X27170000Y22660000D01*
D12*
X30100000Y24200000D02*
G75*
G03*
X30100000Y24200000I-900000J0D01*
G01*
D10*
%TO.C,C15*%
X18870000Y10050000D02*
X18870000Y10750000D01*
X16680000Y10900000D02*
X17470000Y10900000D01*
X17470000Y9900000D02*
X16680000Y9900000D01*
X17930000Y9900000D02*
X18720000Y9900000D01*
X18720000Y10900000D02*
X17930000Y10900000D01*
X16530000Y10050000D02*
X16530000Y10750000D01*
X18870000Y10750000D02*
G75*
G03*
X18720000Y10900000I-150000J0D01*
G01*
X16530000Y10050000D02*
G75*
G03*
X16680000Y9900000I150000J0D01*
G01*
X18720000Y9900000D02*
G75*
G03*
X18870000Y10050000I0J150000D01*
G01*
X16680000Y10900000D02*
G75*
G03*
X16530000Y10750000I0J-150000D01*
G01*
%TO.C,R23*%
X36200000Y28787500D02*
X36200000Y29497500D01*
X35200000Y27617500D02*
X35200000Y28327500D01*
X36200000Y29497500D02*
X35200000Y29497500D01*
X36200000Y27617500D02*
X35200000Y27617500D01*
X35200000Y29497500D02*
X35200000Y28787500D01*
X36200000Y28327500D02*
X36200000Y27617500D01*
D13*
%TO.C,JP3*%
X37400000Y27000000D02*
X38000000Y27000000D01*
X37500000Y29500000D02*
X40300000Y29500000D01*
X40950000Y28800000D02*
X40950000Y28200000D01*
X37700000Y27300000D02*
X38000000Y27000000D01*
X40300000Y27500000D02*
X37500000Y27500000D01*
X37700000Y27300000D02*
X37400000Y27000000D01*
X36850000Y28200000D02*
X36850000Y28800000D01*
X36850000Y28200000D02*
G75*
G03*
X37550000Y27500000I699999J-1D01*
G01*
X40950000Y28800000D02*
G75*
G03*
X40250000Y29500000I-700000J0D01*
G01*
X37550000Y29500000D02*
G75*
G03*
X36850000Y28800000I-1J-699999D01*
G01*
X40250000Y27500000D02*
G75*
G03*
X40950000Y28200000I0J700000D01*
G01*
D10*
%TO.C,U4*%
X7660000Y18890000D02*
X7660000Y17110000D01*
X10740000Y18890000D02*
X10740000Y17110000D01*
D16*
X11020000Y19300000D02*
G75*
G03*
X11020000Y19300000I-150000J0D01*
G01*
D10*
%TO.C,R17*%
X32900000Y28870000D02*
X32900000Y28160000D01*
X33900000Y28160000D02*
X33900000Y28870000D01*
X32900000Y29330000D02*
X32900000Y30040000D01*
X33900000Y30040000D02*
X33900000Y29330000D01*
X32900000Y28160000D02*
X33900000Y28160000D01*
X32900000Y30040000D02*
X33900000Y30040000D01*
%TO.C,R3*%
X17050000Y15980000D02*
X15690000Y15980000D01*
X18950000Y15980000D02*
X20310000Y15980000D01*
X15690000Y13820000D02*
X17050000Y13820000D01*
X15690000Y15980000D02*
X15690000Y13820000D01*
X20310000Y15980000D02*
X20310000Y13820000D01*
X20310000Y13820000D02*
X18950000Y13820000D01*
D13*
%TO.C,U3*%
X9600000Y29640000D02*
X11400000Y29640000D01*
X9600000Y32760000D02*
X10400000Y32760000D01*
X9600000Y29640000D02*
X8800000Y29640000D01*
X9600000Y32760000D02*
X8800000Y32760000D01*
D10*
%TO.C,R18*%
X32900000Y26470000D02*
X32900000Y25760000D01*
X32900000Y25760000D02*
X33900000Y25760000D01*
X32900000Y27640000D02*
X33900000Y27640000D01*
X33900000Y27640000D02*
X33900000Y26930000D01*
X33900000Y25760000D02*
X33900000Y26470000D01*
X32900000Y26930000D02*
X32900000Y27640000D01*
D17*
%TO.C,R11*%
X21400000Y7105335D02*
X21400000Y9755335D01*
X25000000Y7105335D02*
X25000000Y9755335D01*
X25000000Y9755335D02*
X24400000Y9755335D01*
X21400000Y9755335D02*
X22000000Y9755335D01*
D18*
X21762000Y5009665D02*
G75*
G03*
X21762000Y5009665I-120000J0D01*
G01*
D10*
%TO.C,U8*%
X24380000Y4780000D02*
X22620000Y4780000D01*
X24380000Y1620000D02*
X22620000Y1620000D01*
D16*
X24950000Y1530000D02*
G75*
G03*
X24950000Y1530000I-150000J0D01*
G01*
D10*
%TO.C,C10*%
X20600000Y13630000D02*
X20600000Y14420000D01*
X20750000Y14570000D02*
X21450000Y14570000D01*
X20750000Y12230000D02*
X21450000Y12230000D01*
X21600000Y14420000D02*
X21600000Y13630000D01*
X20600000Y13170000D02*
X20600000Y12380000D01*
X21600000Y12380000D02*
X21600000Y13170000D01*
X20600000Y12380000D02*
G75*
G03*
X20750000Y12230000I150000J0D01*
G01*
X21450000Y12230000D02*
G75*
G03*
X21600000Y12380000I0J150000D01*
G01*
X20750000Y14570000D02*
G75*
G03*
X20600000Y14420000I0J-150000D01*
G01*
X21600000Y14420000D02*
G75*
G03*
X21450000Y14570000I-150000J0D01*
G01*
%TO.C,R8*%
X2940000Y18580000D02*
X4220000Y18580000D01*
X5180000Y20420000D02*
X6460000Y20420000D01*
X2940000Y20420000D02*
X2940000Y18580000D01*
X4220000Y20420000D02*
X2940000Y20420000D01*
X6460000Y20420000D02*
X6460000Y18580000D01*
X6460000Y18580000D02*
X5180000Y18580000D01*
%TD*%
M02*
