%TF.GenerationSoftware,KiCad,Pcbnew,(6.0.7)*%
%TF.CreationDate,2025-06-09T21:53:25+08:00*%
%TF.ProjectId,ESP32-S3-MINI-1-N8_V6,45535033-322d-4533-932d-4d494e492d31,rev?*%
%TF.SameCoordinates,PX6a24da0PY78114e0*%
%TF.FileFunction,Soldermask,Top*%
%TF.FilePolarity,Negative*%
%FSLAX46Y46*%
G04 Gerber Fmt 4.6, Leading zero omitted, Abs format (unit mm)*
G04 Created by KiCad (PCBNEW (6.0.7)) date 2025-06-09 21:53:25*
%MOMM*%
%LPD*%
G01*
G04 APERTURE LIST*
G04 Aperture macros list*
%AMRoundRect*
0 Rectangle with rounded corners*
0 $1 Rounding radius*
0 $2 $3 $4 $5 $6 $7 $8 $9 X,Y pos of 4 corners*
0 Add a 4 corners polygon primitive as box body*
4,1,4,$2,$3,$4,$5,$6,$7,$8,$9,$2,$3,0*
0 Add four circle primitives for the rounded corners*
1,1,$1+$1,$2,$3*
1,1,$1+$1,$4,$5*
1,1,$1+$1,$6,$7*
1,1,$1+$1,$8,$9*
0 Add four rect primitives between the rounded corners*
20,1,$1+$1,$2,$3,$4,$5,0*
20,1,$1+$1,$4,$5,$6,$7,0*
20,1,$1+$1,$6,$7,$8,$9,0*
20,1,$1+$1,$8,$9,$2,$3,0*%
%AMRotRect*
0 Rectangle, with rotation*
0 The origin of the aperture is its center*
0 $1 length*
0 $2 width*
0 $3 Rotation angle, in degrees counterclockwise*
0 Add horizontal line*
21,1,$1,$2,0,0,$3*%
%AMFreePoly0*
4,1,22,0.500000,-0.750000,0.000000,-0.750000,0.000000,-0.745033,-0.079941,-0.743568,-0.215256,-0.701293,-0.333266,-0.622738,-0.424486,-0.514219,-0.481581,-0.384460,-0.499164,-0.250000,-0.500000,-0.250000,-0.500000,0.250000,-0.499164,0.250000,-0.499963,0.256109,-0.478152,0.396186,-0.417904,0.524511,-0.324060,0.630769,-0.204165,0.706417,-0.067858,0.745374,0.000000,0.744959,0.000000,0.750000,
0.500000,0.750000,0.500000,-0.750000,0.500000,-0.750000,$1*%
%AMFreePoly1*
4,1,20,0.000000,0.744959,0.073905,0.744508,0.209726,0.703889,0.328688,0.626782,0.421226,0.519385,0.479903,0.390333,0.500000,0.250000,0.500000,-0.250000,0.499851,-0.262216,0.476331,-0.402017,0.414519,-0.529596,0.319384,-0.634700,0.198574,-0.708877,0.061801,-0.746166,0.000000,-0.745033,0.000000,-0.750000,-0.500000,-0.750000,-0.500000,0.750000,0.000000,0.750000,0.000000,0.744959,
0.000000,0.744959,$1*%
%AMFreePoly2*
4,1,22,0.550000,-0.750000,0.000000,-0.750000,0.000000,-0.745033,-0.079941,-0.743568,-0.215256,-0.701293,-0.333266,-0.622738,-0.424486,-0.514219,-0.481581,-0.384460,-0.499164,-0.250000,-0.500000,-0.250000,-0.500000,0.250000,-0.499164,0.250000,-0.499963,0.256109,-0.478152,0.396186,-0.417904,0.524511,-0.324060,0.630769,-0.204165,0.706417,-0.067858,0.745374,0.000000,0.744959,0.000000,0.750000,
0.550000,0.750000,0.550000,-0.750000,0.550000,-0.750000,$1*%
%AMFreePoly3*
4,1,20,0.000000,0.744959,0.073905,0.744508,0.209726,0.703889,0.328688,0.626782,0.421226,0.519385,0.479903,0.390333,0.500000,0.250000,0.500000,-0.250000,0.499851,-0.262216,0.476331,-0.402017,0.414519,-0.529596,0.319384,-0.634700,0.198574,-0.708877,0.061801,-0.746166,0.000000,-0.745033,0.000000,-0.750000,-0.550000,-0.750000,-0.550000,0.750000,0.000000,0.750000,0.000000,0.744959,
0.000000,0.744959,$1*%
%AMFreePoly4*
4,1,49,-0.724645,1.475355,-0.710000,1.440000,-0.710000,0.820000,-0.590000,0.820000,-0.590000,1.440000,-0.575355,1.475355,-0.540000,1.490000,-0.110000,1.490000,-0.074645,1.475355,-0.060000,1.440000,-0.060000,0.820000,0.060000,0.820000,0.060000,1.440000,0.074645,1.475355,0.110000,1.490000,0.540000,1.490000,0.575355,1.475355,0.590000,1.440000,0.590000,0.820000,0.710000,0.820000,
0.710000,1.440000,0.724645,1.475355,0.760000,1.490000,1.190000,1.490000,1.207643,1.482692,1.225196,1.475513,1.225243,1.475401,1.225355,1.475355,1.232668,1.457700,1.239999,1.440224,1.249999,-0.789775,1.249953,-0.789887,1.250000,-0.790000,1.242676,-0.807682,1.235513,-0.825196,1.235401,-0.825243,1.235355,-0.825355,1.217700,-0.832668,1.200224,-0.839999,1.200113,-0.839953,
1.200000,-0.840000,-1.190000,-0.840000,-1.225355,-0.825355,-1.240000,-0.790000,-1.240000,1.440000,-1.225355,1.475355,-1.190000,1.490000,-0.760000,1.490000,-0.724645,1.475355,-0.724645,1.475355,$1*%
G04 Aperture macros list end*
%ADD10RoundRect,0.102000X0.270000X0.300000X-0.270000X0.300000X-0.270000X-0.300000X0.270000X-0.300000X0*%
%ADD11R,0.900000X0.800000*%
%ADD12R,0.790000X0.540000*%
%ADD13R,0.570000X0.540000*%
%ADD14RoundRect,0.102000X0.300000X-0.270000X0.300000X0.270000X-0.300000X0.270000X-0.300000X-0.270000X0*%
%ADD15R,0.800000X0.900000*%
%ADD16R,0.600000X0.540000*%
%ADD17RoundRect,0.102000X-0.300000X0.270000X-0.300000X-0.270000X0.300000X-0.270000X0.300000X0.270000X0*%
%ADD18C,5.700000*%
%ADD19R,0.540000X0.570000*%
%ADD20R,1.700000X5.500000*%
%ADD21RoundRect,0.102000X-0.270000X-0.300000X0.270000X-0.300000X0.270000X0.300000X-0.270000X0.300000X0*%
%ADD22R,1.420000X1.080000*%
%ADD23FreePoly0,0.000000*%
%ADD24FreePoly1,0.000000*%
%ADD25R,0.800000X0.400000*%
%ADD26R,0.400000X0.800000*%
%ADD27R,0.800000X0.800000*%
%ADD28R,1.200000X1.200000*%
%ADD29R,2.010000X5.400000*%
%ADD30R,1.210000X1.700000*%
%ADD31R,0.830000X0.630000*%
%ADD32R,1.200000X3.500000*%
%ADD33FreePoly2,0.000000*%
%ADD34R,1.000000X1.500000*%
%ADD35FreePoly3,0.000000*%
%ADD36R,1.230000X1.360000*%
%ADD37FreePoly2,270.000000*%
%ADD38R,1.500000X1.000000*%
%ADD39FreePoly3,270.000000*%
%ADD40R,4.500000X1.300000*%
%ADD41R,4.500000X3.000000*%
%ADD42R,0.850000X0.850000*%
%ADD43R,1.000000X0.600000*%
%ADD44RotRect,0.850000X0.850000X45.000000*%
%ADD45R,0.540000X0.600000*%
%ADD46R,1.000000X0.420000*%
%ADD47FreePoly4,90.000000*%
%ADD48C,0.600000*%
%ADD49R,1.200000X1.700000*%
%ADD50R,1.500000X1.700000*%
%ADD51R,1.140000X0.500000*%
%ADD52R,1.140000X0.300000*%
%ADD53RoundRect,0.102000X0.300000X0.335000X-0.300000X0.335000X-0.300000X-0.335000X0.300000X-0.335000X0*%
%ADD54RoundRect,0.100000X-0.637500X-0.100000X0.637500X-0.100000X0.637500X0.100000X-0.637500X0.100000X0*%
%ADD55R,2.200000X1.200000*%
%ADD56O,0.900000X0.280000*%
%ADD57O,0.280000X0.900000*%
%ADD58R,3.500000X3.500000*%
%ADD59R,5.400000X2.010000*%
%ADD60R,0.530000X1.070000*%
%ADD61RoundRect,0.150000X0.512500X0.150000X-0.512500X0.150000X-0.512500X-0.150000X0.512500X-0.150000X0*%
%ADD62R,1.600000X1.500000*%
%ADD63R,1.090000X0.530000*%
%ADD64R,0.540000X0.790000*%
%ADD65R,1.130000X1.380000*%
G04 APERTURE END LIST*
D10*
%TO.C,C13*%
X15732000Y38200000D03*
X14868000Y38200000D03*
%TD*%
D11*
%TO.C,C3*%
X8300000Y14000000D03*
X8300000Y12600000D03*
%TD*%
D12*
%TO.C,C16*%
X27900000Y17290000D03*
X29000000Y17290000D03*
%TD*%
D13*
%TO.C,R12*%
X26070000Y9600000D03*
X26930000Y9600000D03*
%TD*%
D14*
%TO.C,C5*%
X12100000Y16068000D03*
X12100000Y16932000D03*
%TD*%
D15*
%TO.C,C7*%
X12700000Y37200000D03*
X11300000Y37200000D03*
%TD*%
D16*
%TO.C,R1*%
X1300000Y18532000D03*
X1300000Y17668000D03*
%TD*%
D17*
%TO.C,C14*%
X28800000Y12132000D03*
X28800000Y11268000D03*
%TD*%
D18*
%TO.C,REF\u002A\u002A*%
X36500000Y36500000D03*
%TD*%
D13*
%TO.C,R5*%
X17570000Y24600000D03*
X18430000Y24600000D03*
%TD*%
D11*
%TO.C,C11*%
X20100000Y9407500D03*
X20100000Y8007500D03*
%TD*%
D19*
%TO.C,R10*%
X18400000Y8630000D03*
X18400000Y7770000D03*
%TD*%
D20*
%TO.C,U1*%
X14225000Y3755000D03*
X10725000Y3755000D03*
%TD*%
D21*
%TO.C,C6*%
X25668000Y21100000D03*
X26532000Y21100000D03*
%TD*%
D22*
%TO.C,C12*%
X15500000Y35795000D03*
X15500000Y34005000D03*
%TD*%
D18*
%TO.C,REF\u002A\u002A*%
X36500000Y5500000D03*
%TD*%
D23*
%TO.C,JP1*%
X29550000Y8900000D03*
D24*
X30850000Y8900000D03*
%TD*%
D25*
%TO.C,U10*%
X17690000Y39900000D03*
X17690000Y39050000D03*
X17690000Y38200000D03*
X17690000Y37350000D03*
X17690000Y36500000D03*
X17690000Y35650000D03*
X17690000Y34800000D03*
X17690000Y33950000D03*
X17690000Y33100000D03*
X17690000Y32250000D03*
X17690000Y31400000D03*
X17690000Y30550000D03*
X17690000Y29700000D03*
X17690000Y28850000D03*
X17690000Y28000000D03*
D26*
X18720000Y26920000D03*
X19570000Y26920000D03*
X20420000Y26920000D03*
X21270000Y26920000D03*
X22120000Y26920000D03*
X22970000Y26920000D03*
X23820000Y26920000D03*
X24670000Y26920000D03*
X25520000Y26920000D03*
X26370000Y26920000D03*
X27220000Y26920000D03*
X28070000Y26920000D03*
X28920000Y26920000D03*
X29770000Y26920000D03*
X30620000Y26920000D03*
D25*
X31650000Y28000000D03*
X31650000Y28850000D03*
X31650000Y29700000D03*
X31650000Y30550000D03*
X31650000Y31400000D03*
X31650000Y32250000D03*
X31650000Y33100000D03*
X31650000Y33950000D03*
X31650000Y34800000D03*
X31650000Y35650000D03*
X31650000Y36500000D03*
X31650000Y37350000D03*
X31650000Y38200000D03*
X31650000Y39050000D03*
X31650000Y39900000D03*
D26*
X30620000Y40980000D03*
X29770000Y40980000D03*
X28920000Y40980000D03*
X28070000Y40980000D03*
X27220000Y40980000D03*
X26370000Y40980000D03*
X25520000Y40980000D03*
X24670000Y40980000D03*
X23820000Y40980000D03*
X22970000Y40980000D03*
X22120000Y40980000D03*
X21270000Y40980000D03*
X20420000Y40980000D03*
X19570000Y40980000D03*
X18720000Y40980000D03*
D27*
X17670000Y26950000D03*
X31670000Y26950000D03*
D28*
X24670000Y32300000D03*
X26320000Y33950000D03*
X26320000Y35600000D03*
D27*
X31670000Y40950000D03*
D28*
X23020000Y32300000D03*
D27*
X17670000Y40950000D03*
D28*
X23020000Y35600000D03*
X24670000Y33950000D03*
X23020000Y33950000D03*
X26320000Y32300000D03*
X24670000Y35600000D03*
%TD*%
D29*
%TO.C,C9*%
X13280000Y23100000D03*
X8120000Y23100000D03*
%TD*%
D13*
%TO.C,R22*%
X14470000Y31700000D03*
X15330000Y31700000D03*
%TD*%
%TO.C,R9*%
X7830000Y41000000D03*
X6970000Y41000000D03*
%TD*%
D30*
%TO.C,R2*%
X19480000Y12500000D03*
X16520000Y12500000D03*
%TD*%
D15*
%TO.C,C2*%
X11500000Y28200000D03*
X12900000Y28200000D03*
%TD*%
D19*
%TO.C,R14*%
X41200000Y33900000D03*
X41200000Y34760000D03*
%TD*%
D18*
%TO.C,REF\u002A\u002A*%
X5500000Y5500000D03*
%TD*%
D31*
%TO.C,D2*%
X9500000Y34350000D03*
X9500000Y36650000D03*
%TD*%
D32*
%TO.C,C18*%
X3800000Y10330000D03*
X3800000Y15670000D03*
%TD*%
D19*
%TO.C,R7*%
X11900000Y18470000D03*
X11900000Y19330000D03*
%TD*%
D33*
%TO.C,JP4*%
X37600000Y31557500D03*
D34*
X38900000Y31557500D03*
D35*
X40200000Y31557500D03*
%TD*%
D13*
%TO.C,R19*%
X36230000Y40300000D03*
X35370000Y40300000D03*
%TD*%
D36*
%TO.C,SW2*%
X13780000Y40100000D03*
X9420000Y40100000D03*
%TD*%
D37*
%TO.C,JP2*%
X15142500Y29900000D03*
D38*
X15142500Y28600000D03*
D39*
X15142500Y27300000D03*
%TD*%
D27*
%TO.C,U12*%
X5450000Y40700000D03*
X3750000Y40700000D03*
%TD*%
D40*
%TO.C,U11*%
X32100000Y13750000D03*
X32100000Y16250000D03*
X32100000Y18750000D03*
X32100000Y21250000D03*
D41*
X39100000Y24600000D03*
X39100000Y10400000D03*
%TD*%
D15*
%TO.C,C8*%
X20300000Y1500000D03*
X18900000Y1500000D03*
%TD*%
D42*
%TO.C,J3*%
X40800000Y5300000D03*
%TD*%
D43*
%TO.C,U5*%
X11440000Y35290000D03*
X11440000Y34340000D03*
X11440000Y33390000D03*
X13640000Y33390000D03*
X13640000Y35290000D03*
%TD*%
D44*
%TO.C,J4*%
X39700000Y2400000D03*
%TD*%
D13*
%TO.C,R4*%
X19970000Y24600000D03*
X20830000Y24600000D03*
%TD*%
D45*
%TO.C,R13*%
X1932000Y34400000D03*
X1068000Y34400000D03*
%TD*%
D12*
%TO.C,C17*%
X22350000Y17100000D03*
X21250000Y17100000D03*
%TD*%
D13*
%TO.C,R6*%
X5670000Y17400000D03*
X6530000Y17400000D03*
%TD*%
D14*
%TO.C,C20*%
X15500000Y39468000D03*
X15500000Y40332000D03*
%TD*%
D46*
%TO.C,U7*%
X20330000Y3330000D03*
X20330000Y3980000D03*
X20330000Y4620000D03*
X20330000Y5270000D03*
D47*
X18270000Y4300000D03*
%TD*%
D19*
%TO.C,R24*%
X35700000Y31127500D03*
X35700000Y31987500D03*
%TD*%
D48*
%TO.C,USB1*%
X4767500Y29790000D03*
X4767500Y24010000D03*
D49*
X5437500Y32100000D03*
D50*
X1237500Y32100000D03*
D49*
X5437500Y21700000D03*
D50*
X1237500Y21700000D03*
D51*
X5857500Y30100000D03*
X5857500Y29300000D03*
D52*
X5857500Y28150000D03*
X5857500Y27150000D03*
X5857500Y26650000D03*
X5857500Y25650000D03*
D51*
X5857500Y24500000D03*
X5857500Y23700000D03*
D52*
X5857500Y25150000D03*
X5857500Y26150000D03*
X5857500Y27650000D03*
X5857500Y28650000D03*
%TD*%
D42*
%TO.C,J1*%
X36800000Y1200000D03*
%TD*%
D20*
%TO.C,U2*%
X31150000Y3800000D03*
X27650000Y3800000D03*
%TD*%
D19*
%TO.C,R16*%
X33500000Y31270000D03*
X33500000Y32130000D03*
%TD*%
D31*
%TO.C,D3*%
X9800000Y26650000D03*
X9800000Y28950000D03*
%TD*%
D44*
%TO.C,J2*%
X40370000Y38700000D03*
%TD*%
D53*
%TO.C,C4*%
X26537000Y22500000D03*
X25663000Y22500000D03*
%TD*%
D44*
%TO.C,J5*%
X38780000Y40260000D03*
%TD*%
D54*
%TO.C,U6*%
X18137500Y22950000D03*
X18137500Y22300000D03*
X18137500Y21650000D03*
X18137500Y21000000D03*
X18137500Y20350000D03*
X18137500Y19700000D03*
X18137500Y19050000D03*
X23862500Y19050000D03*
X23862500Y19700000D03*
X23862500Y20350000D03*
X23862500Y21000000D03*
X23862500Y21650000D03*
X23862500Y22300000D03*
X23862500Y22950000D03*
%TD*%
D55*
%TO.C,L1*%
X14100000Y16370000D03*
X14100000Y18430000D03*
%TD*%
D56*
%TO.C,U9*%
X22400000Y15200000D03*
X22400000Y14700000D03*
X22400000Y14200000D03*
X22400000Y13700000D03*
X22400000Y13200000D03*
X22400000Y12700000D03*
X22400000Y12200000D03*
D57*
X23400000Y11200000D03*
X23900000Y11200000D03*
X24400000Y11200000D03*
X24900000Y11200000D03*
X25400000Y11200000D03*
X25900000Y11200000D03*
X26400000Y11200000D03*
D56*
X27400000Y12200000D03*
X27400000Y12700000D03*
X27400000Y13200000D03*
X27400000Y13700000D03*
X27400000Y14200000D03*
X27400000Y14700000D03*
X27400000Y15200000D03*
D57*
X26400000Y16200000D03*
X25900000Y16200000D03*
X25400000Y16200000D03*
X24900000Y16200000D03*
X24400000Y16200000D03*
X23900000Y16200000D03*
X23400000Y16200000D03*
D58*
X24900000Y13700000D03*
%TD*%
D59*
%TO.C,C1*%
X12300000Y8720000D03*
X12300000Y13880000D03*
%TD*%
D19*
%TO.C,R15*%
X40000000Y33900000D03*
X40000000Y34760000D03*
%TD*%
D36*
%TO.C,SW1*%
X27020000Y24200000D03*
X31380000Y24200000D03*
%TD*%
D12*
%TO.C,C15*%
X17150000Y10400000D03*
X18250000Y10400000D03*
%TD*%
D19*
%TO.C,R23*%
X35700000Y28127500D03*
X35700000Y28987500D03*
%TD*%
D14*
%TO.C,C19*%
X33600000Y40100000D03*
X33600000Y40964000D03*
%TD*%
D33*
%TO.C,JP3*%
X37600000Y28500000D03*
D34*
X38900000Y28500000D03*
D35*
X40200000Y28500000D03*
%TD*%
D60*
%TO.C,U4*%
X10150000Y19150000D03*
X9200000Y19150000D03*
X8250000Y19150000D03*
X8250000Y16850000D03*
X9200000Y16850000D03*
X10150000Y16850000D03*
%TD*%
D19*
%TO.C,R17*%
X33400000Y29530000D03*
X33400000Y28670000D03*
%TD*%
D30*
%TO.C,R3*%
X19480000Y14900000D03*
X16520000Y14900000D03*
%TD*%
D61*
%TO.C,U3*%
X10737500Y30250000D03*
X10737500Y31200000D03*
X10737500Y32150000D03*
X8462500Y32150000D03*
X8462500Y31200000D03*
X8462500Y30250000D03*
%TD*%
D19*
%TO.C,R18*%
X33400000Y27130000D03*
X33400000Y26270000D03*
%TD*%
D28*
%TO.C,R11*%
X22200000Y6155335D03*
D62*
X23200000Y9405335D03*
D28*
X24200000Y6155335D03*
%TD*%
D63*
%TO.C,U8*%
X24650000Y2250000D03*
X24650000Y3200000D03*
X24650000Y4150000D03*
X22350000Y4150000D03*
X22350000Y3200000D03*
X22350000Y2250000D03*
%TD*%
D18*
%TO.C,REF\u002A\u002A*%
X5500000Y36500000D03*
%TD*%
D64*
%TO.C,C10*%
X21100000Y13950000D03*
X21100000Y12850000D03*
%TD*%
D65*
%TO.C,R8*%
X5700000Y19500000D03*
X3700000Y19500000D03*
%TD*%
M02*
