M48
; DRILL file {KiCad (6.0.7)} date Mon Jun  9 21:53:29 2025
; FORMAT={-:-/ absolute / metric / decimal}
; #@! TF.CreationDate,2025-06-09T21:53:29+08:00
; #@! TF.GenerationSoftware,Kicad,Pcbnew,(6.0.7)
; #@! TF.FileFunction,MixedPlating,1,4
FMAT,2
METRIC
; #@! TA.AperFunction,Plated,PTH,ViaDrill
T1C0.300
; #@! TA.AperFunction,Plated,PTH,ComponentDrill
T2C0.500
; #@! TA.AperFunction,Plated,PTH,ComponentDrill
T3C0.600
; #@! TA.AperFunction,Plated,PTH,ComponentDrill
T4C3.200
%
G90
G05
T1
X2.8Y34.1
X3.0Y22.9
X3.7Y25.0
X4.5Y29.0
X4.7Y25.2
X6.9Y30.7
X6.9Y28.6
X9.6Y30.2
X9.6Y18.2
X10.5Y34.3
X11.8Y32.1
X12.4Y29.7
X13.6Y30.9
X13.9Y36.0
X13.9Y11.0
X14.4Y11.5
X16.3Y32.5
X16.8Y34.5
X16.8Y24.6
X18.4Y12.6
X18.413Y14.5
X18.6Y32.5
X18.7Y27.7
X18.9Y25.5
X19.6Y32.9
X19.8Y28.7
X19.9Y35.6
X19.9Y22.6
X20.1Y33.4
X20.3Y25.5
X20.6Y28.8
X20.65Y14.96
X20.8Y38.6
X20.8Y31.1
X21.25Y16.25
X21.3Y25.7
X21.302Y22.113
X21.5Y11.6
X21.8Y34.1
X21.9Y31.7
X22.1Y25.7
X22.4Y21.0
X23.0Y25.7
X23.0Y17.1
X23.9Y17.0
X23.9Y10.6
X24.4Y10.1
X24.43Y8.14
X24.6Y29.3
X24.66Y30.83
X24.7Y17.1
X25.44Y8.62
X25.5Y27.9
X26.2Y37.4
X26.28Y17.48
X26.3Y28.1
X26.4Y10.5
X26.84Y28.71
X27.3Y25.8
X27.5Y38.4
X27.55Y18.34
X27.7Y10.8
X28.0Y34.2
X28.0Y32.2
X28.0Y25.8
X28.2Y30.36
X28.2Y14.2
X28.3Y12.8
X28.4Y23.1
X29.1Y24.2
X29.21Y16.19
X30.0Y11.1
X30.4Y34.2
X30.4Y31.9
X30.6Y29.6
X30.8Y39.9
X32.2Y15.0
X32.7Y36.1
X33.1Y37.4
X33.5Y33.1
X34.5Y28.3
X34.502Y26.713
X35.7Y30.1
X35.7Y27.1
X37.0Y40.0
X38.9Y30.4
X38.9Y29.7
T2
X36.8Y1.2
X38.78Y40.26
X39.7Y2.4
X40.37Y38.7
X40.8Y5.3
T3
X4.768Y29.79
X4.768Y24.01
T4
X5.5Y36.5
X5.5Y5.5
X36.5Y36.5
X36.5Y5.5
T0
M30
