%TF.GenerationSoftware,KiCad,Pcbnew,(6.0.7)*%
%TF.CreationDate,2025-06-09T21:53:25+08:00*%
%TF.ProjectId,ESP32-S3-MINI-1-N8_V6,45535033-322d-4533-932d-4d494e492d31,rev?*%
%TF.SameCoordinates,PX6a24da0PY78114e0*%
%TF.FileFunction,Copper,L3,Inr*%
%TF.FilePolarity,Positive*%
%FSLAX46Y46*%
G04 Gerber Fmt 4.6, Leading zero omitted, Abs format (unit mm)*
G04 Created by KiCad (PCBNEW (6.0.7)) date 2025-06-09 21:53:25*
%MOMM*%
%LPD*%
G01*
G04 APERTURE LIST*
G04 Aperture macros list*
%AMRotRect*
0 Rectangle, with rotation*
0 The origin of the aperture is its center*
0 $1 length*
0 $2 width*
0 $3 Rotation angle, in degrees counterclockwise*
0 Add horizontal line*
21,1,$1,$2,0,0,$3*%
G04 Aperture macros list end*
%TA.AperFunction,ComponentPad*%
%ADD10C,5.700000*%
%TD*%
%TA.AperFunction,ComponentPad*%
%ADD11R,0.850000X0.850000*%
%TD*%
%TA.AperFunction,ComponentPad*%
%ADD12RotRect,0.850000X0.850000X45.000000*%
%TD*%
%TA.AperFunction,ComponentPad*%
%ADD13C,0.600000*%
%TD*%
%TA.AperFunction,ViaPad*%
%ADD14C,0.400000*%
%TD*%
%TA.AperFunction,Conductor*%
%ADD15C,0.200000*%
%TD*%
G04 APERTURE END LIST*
D10*
%TO.N,N/C*%
%TO.C,REF\u002A\u002A*%
X36500000Y36500000D03*
%TD*%
%TO.N,N/C*%
%TO.C,REF\u002A\u002A*%
X36500000Y5500000D03*
%TD*%
%TO.N,N/C*%
%TO.C,REF\u002A\u002A*%
X5500000Y5500000D03*
%TD*%
D11*
%TO.N,/INDEX*%
%TO.C,J3*%
X40800000Y5300000D03*
%TD*%
D12*
%TO.N,/DIAG*%
%TO.C,J4*%
X39700000Y2400000D03*
%TD*%
D13*
%TO.N,*%
%TO.C,USB1*%
X4767500Y29790000D03*
X4767500Y24010000D03*
%TD*%
D11*
%TO.N,Net-(J1-Pad1)*%
%TO.C,J1*%
X36800000Y1200000D03*
%TD*%
D12*
%TO.N,/UART0_TX*%
%TO.C,J2*%
X40370000Y38700000D03*
%TD*%
%TO.N,/UART0_RX*%
%TO.C,J5*%
X38780000Y40260000D03*
%TD*%
D10*
%TO.N,N/C*%
%TO.C,REF\u002A\u002A*%
X5500000Y36500000D03*
%TD*%
D14*
%TO.N,GND*%
X24660000Y30830000D03*
X27700000Y10800000D03*
X21250000Y16250000D03*
X10500000Y34300000D03*
X9600000Y18200000D03*
X6900000Y30700000D03*
X29210000Y16190000D03*
%TO.N,/24V*%
X23000000Y17100000D03*
X14400000Y11500000D03*
X27550000Y18340000D03*
X13900000Y11000000D03*
%TO.N,/3V3*%
X35700000Y27100000D03*
X35700000Y30100000D03*
X30000000Y11100000D03*
X13900000Y36000000D03*
X37000000Y40000000D03*
%TO.N,/5V*%
X22400000Y21000000D03*
X12400000Y29700000D03*
X16800000Y24600000D03*
%TO.N,/ESP32_EN*%
X30800000Y39900000D03*
X29100000Y24200000D03*
%TO.N,Net-(J1-Pad1)*%
X28400000Y23100000D03*
%TO.N,/INDEX*%
X25440000Y8620000D03*
%TO.N,/DIAG*%
X24430000Y8140000D03*
%TO.N,/5V_USB*%
X3700000Y25000000D03*
X4500000Y29000000D03*
%TO.N,/GPIO3*%
X16800000Y34500000D03*
X13600000Y30900000D03*
%TO.N,/GPIO45*%
X32700000Y36100000D03*
X38900000Y29700000D03*
%TO.N,/GPIO46*%
X33100000Y37400000D03*
X38900000Y30400000D03*
%TO.N,Net-(R1-Pad1)*%
X3000000Y22900000D03*
X4700000Y25200000D03*
%TO.N,/MISO*%
X20300000Y25500000D03*
X30600000Y29600000D03*
%TO.N,/CS*%
X33500000Y33100000D03*
X18900000Y25500000D03*
%TO.N,/M13*%
X24700000Y17100000D03*
X32200000Y15000000D03*
%TO.N,/BRB*%
X23900000Y17000000D03*
X18400000Y12600000D03*
%TO.N,/BRA*%
X18412604Y14500000D03*
X26280000Y17480000D03*
%TO.N,/SCLK*%
X19900000Y22600000D03*
X34500000Y28300000D03*
%TO.N,/MOSI*%
X21302421Y22112579D03*
X34502421Y26712579D03*
%TO.N,/MCU_USB_D_P*%
X25500000Y27900000D03*
X9600000Y30200000D03*
%TO.N,/MCU_USB_D_N*%
X11800000Y32100000D03*
X24600000Y29300000D03*
%TO.N,/DIR*%
X27300000Y25800000D03*
X28200000Y14200000D03*
%TO.N,/STP*%
X28300000Y12800000D03*
X28000000Y25800000D03*
%TO.N,/GPIO1*%
X20800000Y38600000D03*
%TO.N,/GPIO2*%
X19900000Y35600000D03*
%TO.N,/GPIO4*%
X20100000Y33400000D03*
%TO.N,/GPIO5*%
X19600000Y32900000D03*
%TO.N,/GPIO12*%
X18700000Y27700000D03*
%TO.N,/GPIO13*%
X21800000Y34100000D03*
%TO.N,/GPIO14*%
X21900000Y31700000D03*
%TO.N,/GPIO6*%
X16300000Y32500000D03*
%TO.N,/GPIO7*%
X18600000Y32500000D03*
%TO.N,/GPIO21*%
X26300000Y28100000D03*
%TO.N,/GPIO48*%
X28200000Y30360000D03*
%TO.N,/GPIO8*%
X26200000Y37400000D03*
%TO.N,/GPIO42*%
X30400000Y34200000D03*
%TO.N,/GPIO41*%
X28000000Y34200000D03*
%TO.N,/GPIO40*%
X28000000Y32200000D03*
%TO.N,/GPIO39*%
X30400000Y31900000D03*
%TO.N,/GPIO34*%
X27500000Y38400000D03*
%TO.N,/GPIO33*%
X26840000Y28710000D03*
%TO.N,/GPIO9*%
X20800000Y31100000D03*
%TO.N,/TXD1*%
X26400000Y10500000D03*
X23000000Y25700000D03*
%TO.N,/MS2*%
X24400000Y10100000D03*
X22100000Y25700000D03*
%TO.N,/MS1*%
X21300000Y25700000D03*
X23900000Y10600000D03*
%TO.N,/Spread*%
X21500000Y11600000D03*
X19800000Y28700000D03*
%TO.N,/TMC_EN*%
X20600000Y28800000D03*
X20650000Y14960000D03*
%TO.N,Net-(R13-Pad1)*%
X6900000Y28600000D03*
X2800000Y34100000D03*
%TD*%
D15*
%TO.N,/MISO*%
X20300000Y25800000D02*
X20300000Y25500000D01*
X28165000Y27165000D02*
X24613493Y27165000D01*
X30600000Y29600000D02*
X28165000Y27165000D01*
X23833493Y26385000D02*
X20885000Y26385000D01*
X20885000Y26385000D02*
X20300000Y25800000D01*
X24613493Y27165000D02*
X23833493Y26385000D01*
%TO.N,/CS*%
X23467659Y26700000D02*
X20100000Y26700000D01*
X25937659Y29170000D02*
X23467659Y26700000D01*
X29505319Y29170000D02*
X25937659Y29170000D01*
X30405319Y30070000D02*
X29505319Y29170000D01*
X20100000Y26700000D02*
X18900000Y25500000D01*
X33500000Y33100000D02*
X30470000Y30070000D01*
X30470000Y30070000D02*
X30405319Y30070000D01*
%TO.N,/SCLK*%
X19900000Y22600000D02*
X20700000Y22600000D01*
X20700000Y22600000D02*
X20900000Y22800000D01*
X20900000Y22800000D02*
X20900000Y22810122D01*
X20900000Y22810122D02*
X24914878Y26825000D01*
X28425000Y26825000D02*
X29900000Y28300000D01*
X29900000Y28300000D02*
X34500000Y28300000D01*
X24914878Y26825000D02*
X28425000Y26825000D01*
%TO.N,/MOSI*%
X34502421Y26712579D02*
X34187421Y26397579D01*
X21302421Y22802421D02*
X21302421Y22112579D01*
X34187421Y26397579D02*
X24897579Y26397579D01*
X24897579Y26397579D02*
X21302421Y22802421D01*
%TD*%
%TA.AperFunction,NonConductor*%
G36*
X26402047Y28850593D02*
G01*
X26438011Y28801093D01*
X26441637Y28755014D01*
X26438031Y28732244D01*
X26434508Y28710000D01*
X26435727Y28702303D01*
X26449877Y28612962D01*
X26440306Y28552530D01*
X26397041Y28509265D01*
X26336610Y28499694D01*
X26307698Y28504273D01*
X26307697Y28504273D01*
X26300000Y28505492D01*
X26292303Y28504273D01*
X26182391Y28486865D01*
X26182390Y28486865D01*
X26174696Y28485646D01*
X26167757Y28482110D01*
X26167756Y28482110D01*
X26068597Y28431586D01*
X26068595Y28431585D01*
X26061658Y28428050D01*
X25971950Y28338342D01*
X25968415Y28331405D01*
X25968414Y28331403D01*
X25952788Y28300735D01*
X25930744Y28257470D01*
X25917732Y28231933D01*
X25874467Y28188668D01*
X25814035Y28179097D01*
X25759518Y28206874D01*
X25738342Y28228050D01*
X25731402Y28231586D01*
X25731398Y28231589D01*
X25649315Y28273413D01*
X25606050Y28316677D01*
X25596479Y28377109D01*
X25624256Y28431626D01*
X26033134Y28840504D01*
X26087651Y28868281D01*
X26103138Y28869500D01*
X26343856Y28869500D01*
X26402047Y28850593D01*
G37*
%TD.AperFunction*%
%TA.AperFunction,NonConductor*%
G36*
X25083323Y27793950D02*
G01*
X25126587Y27750685D01*
X25168411Y27668602D01*
X25168414Y27668598D01*
X25171950Y27661658D01*
X25199104Y27634504D01*
X25226881Y27579987D01*
X25217310Y27519555D01*
X25174045Y27476290D01*
X25129100Y27465500D01*
X24897138Y27465500D01*
X24838947Y27484407D01*
X24802983Y27533907D01*
X24802983Y27595093D01*
X24827134Y27634504D01*
X24968374Y27775744D01*
X25022891Y27803521D01*
X25083323Y27793950D01*
G37*
%TD.AperFunction*%
%TA.AperFunction,NonConductor*%
G36*
X29263712Y28850593D02*
G01*
X29299676Y28801093D01*
X29299676Y28739907D01*
X29275525Y28700496D01*
X28069525Y27494496D01*
X28015008Y27466719D01*
X27999521Y27465500D01*
X25870900Y27465500D01*
X25812709Y27484407D01*
X25776745Y27533907D01*
X25776745Y27595093D01*
X25800896Y27634504D01*
X25828050Y27661658D01*
X25831589Y27668602D01*
X25882268Y27768067D01*
X25925533Y27811332D01*
X25985965Y27820903D01*
X26040482Y27793126D01*
X26061658Y27771950D01*
X26068595Y27768415D01*
X26068597Y27768414D01*
X26167756Y27717890D01*
X26174696Y27714354D01*
X26182390Y27713135D01*
X26182391Y27713135D01*
X26292303Y27695727D01*
X26300000Y27694508D01*
X26307697Y27695727D01*
X26417609Y27713135D01*
X26417610Y27713135D01*
X26425304Y27714354D01*
X26432244Y27717890D01*
X26531403Y27768414D01*
X26531405Y27768415D01*
X26538342Y27771950D01*
X26628050Y27861658D01*
X26647587Y27900000D01*
X26682110Y27967756D01*
X26682110Y27967757D01*
X26685646Y27974696D01*
X26689382Y27998281D01*
X26704273Y28092303D01*
X26705492Y28100000D01*
X26694761Y28167756D01*
X26690123Y28197038D01*
X26699694Y28257470D01*
X26742959Y28300735D01*
X26803390Y28310306D01*
X26832302Y28305727D01*
X26832303Y28305727D01*
X26840000Y28304508D01*
X26847697Y28305727D01*
X26957609Y28323135D01*
X26957610Y28323135D01*
X26965304Y28324354D01*
X26972244Y28327890D01*
X27071403Y28378414D01*
X27071405Y28378415D01*
X27078342Y28381950D01*
X27168050Y28471658D01*
X27175178Y28485646D01*
X27222110Y28577756D01*
X27222110Y28577757D01*
X27225646Y28584696D01*
X27230344Y28614354D01*
X27244273Y28702303D01*
X27245492Y28710000D01*
X27241969Y28732244D01*
X27238363Y28755014D01*
X27247935Y28815446D01*
X27291200Y28858710D01*
X27336144Y28869500D01*
X29205521Y28869500D01*
X29263712Y28850593D01*
G37*
%TD.AperFunction*%
%TA.AperFunction,NonConductor*%
G36*
X38934133Y41780593D02*
G01*
X38945946Y41770504D01*
X41770504Y38945946D01*
X41798281Y38891429D01*
X41799500Y38875942D01*
X41799500Y3124058D01*
X41780593Y3065867D01*
X41770504Y3054054D01*
X38945946Y229496D01*
X38891429Y201719D01*
X38875942Y200500D01*
X3124058Y200500D01*
X3065867Y219407D01*
X3054054Y229496D01*
X2528298Y755252D01*
X36174500Y755252D01*
X36186133Y696769D01*
X36230448Y630448D01*
X36296769Y586133D01*
X36306332Y584231D01*
X36306334Y584230D01*
X36329005Y579721D01*
X36355252Y574500D01*
X37244748Y574500D01*
X37270995Y579721D01*
X37293666Y584230D01*
X37293668Y584231D01*
X37303231Y586133D01*
X37369552Y630448D01*
X37413867Y696769D01*
X37425500Y755252D01*
X37425500Y1644748D01*
X37413867Y1703231D01*
X37369552Y1769552D01*
X37303231Y1813867D01*
X37293668Y1815769D01*
X37293666Y1815770D01*
X37270995Y1820279D01*
X37244748Y1825500D01*
X36355252Y1825500D01*
X36329005Y1820279D01*
X36306334Y1815770D01*
X36306332Y1815769D01*
X36296769Y1813867D01*
X36230448Y1769552D01*
X36186133Y1703231D01*
X36174500Y1644748D01*
X36174500Y755252D01*
X2528298Y755252D01*
X883550Y2400000D01*
X38894532Y2400000D01*
X38910092Y2321769D01*
X38943220Y2272189D01*
X39572189Y1643220D01*
X39621769Y1610092D01*
X39631328Y1608191D01*
X39631330Y1608190D01*
X39690437Y1596434D01*
X39700000Y1594532D01*
X39709563Y1596434D01*
X39768670Y1608190D01*
X39768672Y1608191D01*
X39778231Y1610092D01*
X39827811Y1643220D01*
X40456780Y2272189D01*
X40489908Y2321769D01*
X40505468Y2400000D01*
X40503566Y2409563D01*
X40491810Y2468670D01*
X40491809Y2468672D01*
X40489908Y2478231D01*
X40456780Y2527811D01*
X39827811Y3156780D01*
X39778231Y3189908D01*
X39768672Y3191809D01*
X39768670Y3191810D01*
X39709563Y3203566D01*
X39700000Y3205468D01*
X39690437Y3203566D01*
X39631330Y3191810D01*
X39631328Y3191809D01*
X39621769Y3189908D01*
X39572189Y3156780D01*
X38943220Y2527811D01*
X38910092Y2478231D01*
X38908191Y2468672D01*
X38908190Y2468670D01*
X38896434Y2409563D01*
X38894532Y2400000D01*
X883550Y2400000D01*
X229496Y3054054D01*
X201719Y3108571D01*
X200500Y3124058D01*
X200500Y5542659D01*
X2444991Y5542659D01*
X2459275Y5201854D01*
X2511459Y4864766D01*
X2600892Y4535595D01*
X2726461Y4218445D01*
X2727750Y4216020D01*
X2727755Y4216010D01*
X2788885Y4101042D01*
X2886600Y3917268D01*
X2888162Y3914987D01*
X3077751Y3638098D01*
X3077756Y3638092D01*
X3079312Y3635819D01*
X3302196Y3377605D01*
X3552474Y3145845D01*
X3554692Y3144209D01*
X3554699Y3144204D01*
X3662391Y3064807D01*
X3827026Y2943428D01*
X3829421Y2942045D01*
X3829426Y2942042D01*
X4120047Y2774252D01*
X4120053Y2774249D01*
X4122431Y2772876D01*
X4435005Y2636316D01*
X4437639Y2635501D01*
X4437638Y2635501D01*
X4758213Y2536266D01*
X4758222Y2536264D01*
X4760854Y2535449D01*
X5095916Y2471532D01*
X5436014Y2445363D01*
X5438766Y2445459D01*
X5438771Y2445459D01*
X5663906Y2453321D01*
X5776910Y2457267D01*
X6114355Y2507097D01*
X6117024Y2507802D01*
X6117028Y2507803D01*
X6441482Y2593527D01*
X6441485Y2593528D01*
X6444142Y2594230D01*
X6762161Y2717582D01*
X7064448Y2875614D01*
X7347236Y3066357D01*
X7349349Y3068155D01*
X7604895Y3285642D01*
X7604898Y3285645D01*
X7606999Y3287433D01*
X7840501Y3536087D01*
X7913549Y3633732D01*
X8043170Y3806999D01*
X8043176Y3807008D01*
X8044830Y3809219D01*
X8046226Y3811599D01*
X8046231Y3811606D01*
X8216041Y4101042D01*
X8217440Y4103426D01*
X8356179Y4415039D01*
X8395269Y4538266D01*
X8458486Y4737549D01*
X8458487Y4737555D01*
X8459319Y4740176D01*
X8483460Y4862095D01*
X8525037Y5072074D01*
X8525038Y5072081D01*
X8525573Y5074783D01*
X8554116Y5414691D01*
X8555307Y5500000D01*
X8552923Y5542659D01*
X33444991Y5542659D01*
X33459275Y5201854D01*
X33511459Y4864766D01*
X33600892Y4535595D01*
X33726461Y4218445D01*
X33727750Y4216020D01*
X33727755Y4216010D01*
X33788885Y4101042D01*
X33886600Y3917268D01*
X33888162Y3914987D01*
X34077751Y3638098D01*
X34077756Y3638092D01*
X34079312Y3635819D01*
X34302196Y3377605D01*
X34552474Y3145845D01*
X34554692Y3144209D01*
X34554699Y3144204D01*
X34662391Y3064807D01*
X34827026Y2943428D01*
X34829421Y2942045D01*
X34829426Y2942042D01*
X35120047Y2774252D01*
X35120053Y2774249D01*
X35122431Y2772876D01*
X35435005Y2636316D01*
X35437639Y2635501D01*
X35437638Y2635501D01*
X35758213Y2536266D01*
X35758222Y2536264D01*
X35760854Y2535449D01*
X36095916Y2471532D01*
X36436014Y2445363D01*
X36438766Y2445459D01*
X36438771Y2445459D01*
X36663906Y2453321D01*
X36776910Y2457267D01*
X37114355Y2507097D01*
X37117024Y2507802D01*
X37117028Y2507803D01*
X37441482Y2593527D01*
X37441485Y2593528D01*
X37444142Y2594230D01*
X37762161Y2717582D01*
X38064448Y2875614D01*
X38347236Y3066357D01*
X38349349Y3068155D01*
X38604895Y3285642D01*
X38604898Y3285645D01*
X38606999Y3287433D01*
X38840501Y3536087D01*
X38913549Y3633732D01*
X39043170Y3806999D01*
X39043176Y3807008D01*
X39044830Y3809219D01*
X39046226Y3811599D01*
X39046231Y3811606D01*
X39216041Y4101042D01*
X39217440Y4103426D01*
X39356179Y4415039D01*
X39395269Y4538266D01*
X39458486Y4737549D01*
X39458487Y4737555D01*
X39459319Y4740176D01*
X39482105Y4855252D01*
X40174500Y4855252D01*
X40186133Y4796769D01*
X40230448Y4730448D01*
X40296769Y4686133D01*
X40306332Y4684231D01*
X40306334Y4684230D01*
X40329005Y4679721D01*
X40355252Y4674500D01*
X41244748Y4674500D01*
X41270995Y4679721D01*
X41293666Y4684230D01*
X41293668Y4684231D01*
X41303231Y4686133D01*
X41369552Y4730448D01*
X41413867Y4796769D01*
X41425500Y4855252D01*
X41425500Y5744748D01*
X41413867Y5803231D01*
X41369552Y5869552D01*
X41303231Y5913867D01*
X41293668Y5915769D01*
X41293666Y5915770D01*
X41270995Y5920279D01*
X41244748Y5925500D01*
X40355252Y5925500D01*
X40329005Y5920279D01*
X40306334Y5915770D01*
X40306332Y5915769D01*
X40296769Y5913867D01*
X40230448Y5869552D01*
X40186133Y5803231D01*
X40174500Y5744748D01*
X40174500Y4855252D01*
X39482105Y4855252D01*
X39483460Y4862095D01*
X39525037Y5072074D01*
X39525038Y5072081D01*
X39525573Y5074783D01*
X39554116Y5414691D01*
X39555307Y5500000D01*
X39552769Y5545409D01*
X39536420Y5837818D01*
X39536266Y5840572D01*
X39479381Y6176899D01*
X39385360Y6504789D01*
X39255375Y6820155D01*
X39091047Y7119066D01*
X39067337Y7152677D01*
X38896013Y7395545D01*
X38896009Y7395549D01*
X38894424Y7397797D01*
X38667956Y7652874D01*
X38665907Y7654719D01*
X38665903Y7654723D01*
X38416530Y7879260D01*
X38416524Y7879264D01*
X38414467Y7881117D01*
X38237579Y8007756D01*
X38139370Y8078067D01*
X38139365Y8078070D01*
X38137115Y8079681D01*
X38134698Y8081032D01*
X38134693Y8081035D01*
X37841777Y8244740D01*
X37841778Y8244740D01*
X37839358Y8246092D01*
X37836810Y8247163D01*
X37836802Y8247167D01*
X37644460Y8328020D01*
X37524908Y8378275D01*
X37522266Y8379053D01*
X37522262Y8379054D01*
X37392161Y8417344D01*
X37197682Y8474582D01*
X37029721Y8504198D01*
X36864479Y8533335D01*
X36864471Y8533336D01*
X36861760Y8533814D01*
X36521330Y8555233D01*
X36518569Y8555098D01*
X36518565Y8555098D01*
X36228968Y8540934D01*
X36180633Y8538570D01*
X35843918Y8484034D01*
X35515379Y8392304D01*
X35362972Y8330727D01*
X35201675Y8265559D01*
X35201671Y8265557D01*
X35199114Y8264524D01*
X35196690Y8263213D01*
X35196685Y8263211D01*
X34901491Y8103601D01*
X34901482Y8103596D01*
X34899062Y8102287D01*
X34618965Y7907615D01*
X34616881Y7905790D01*
X34616879Y7905789D01*
X34588697Y7881117D01*
X34362314Y7682933D01*
X34360453Y7680895D01*
X34360452Y7680894D01*
X34292385Y7606351D01*
X34132307Y7431044D01*
X33931811Y7155085D01*
X33763326Y6858497D01*
X33762237Y6855955D01*
X33762233Y6855948D01*
X33685039Y6675840D01*
X33628951Y6544977D01*
X33628155Y6542342D01*
X33628154Y6542338D01*
X33616014Y6502129D01*
X33530361Y6218431D01*
X33468785Y5882932D01*
X33468592Y5880174D01*
X33468592Y5880173D01*
X33458783Y5739890D01*
X33444991Y5542659D01*
X8552923Y5542659D01*
X8552769Y5545409D01*
X8536420Y5837818D01*
X8536266Y5840572D01*
X8479381Y6176899D01*
X8385360Y6504789D01*
X8255375Y6820155D01*
X8091047Y7119066D01*
X8067337Y7152677D01*
X7896013Y7395545D01*
X7896009Y7395549D01*
X7894424Y7397797D01*
X7667956Y7652874D01*
X7665907Y7654719D01*
X7665903Y7654723D01*
X7416530Y7879260D01*
X7416524Y7879264D01*
X7414467Y7881117D01*
X7237579Y8007756D01*
X7139370Y8078067D01*
X7139365Y8078070D01*
X7137115Y8079681D01*
X7134698Y8081032D01*
X7134693Y8081035D01*
X7029187Y8140000D01*
X24024508Y8140000D01*
X24044354Y8014696D01*
X24101950Y7901658D01*
X24191658Y7811950D01*
X24198595Y7808415D01*
X24198597Y7808414D01*
X24297756Y7757890D01*
X24304696Y7754354D01*
X24312390Y7753135D01*
X24312391Y7753135D01*
X24422303Y7735727D01*
X24430000Y7734508D01*
X24437697Y7735727D01*
X24547609Y7753135D01*
X24547610Y7753135D01*
X24555304Y7754354D01*
X24562244Y7757890D01*
X24661403Y7808414D01*
X24661405Y7808415D01*
X24668342Y7811950D01*
X24758050Y7901658D01*
X24815646Y8014696D01*
X24835492Y8140000D01*
X24815646Y8265304D01*
X24758050Y8378342D01*
X24668342Y8468050D01*
X24661405Y8471585D01*
X24661403Y8471586D01*
X24562244Y8522110D01*
X24562243Y8522110D01*
X24555304Y8525646D01*
X24547610Y8526865D01*
X24547609Y8526865D01*
X24437697Y8544273D01*
X24430000Y8545492D01*
X24422303Y8544273D01*
X24312391Y8526865D01*
X24312390Y8526865D01*
X24304696Y8525646D01*
X24297757Y8522110D01*
X24297756Y8522110D01*
X24198597Y8471586D01*
X24198595Y8471585D01*
X24191658Y8468050D01*
X24101950Y8378342D01*
X24044354Y8265304D01*
X24024508Y8140000D01*
X7029187Y8140000D01*
X6841777Y8244740D01*
X6841778Y8244740D01*
X6839358Y8246092D01*
X6836810Y8247163D01*
X6836802Y8247167D01*
X6644460Y8328020D01*
X6524908Y8378275D01*
X6522266Y8379053D01*
X6522262Y8379054D01*
X6392161Y8417344D01*
X6197682Y8474582D01*
X6029721Y8504198D01*
X5864479Y8533335D01*
X5864471Y8533336D01*
X5861760Y8533814D01*
X5521330Y8555233D01*
X5518569Y8555098D01*
X5518565Y8555098D01*
X5228968Y8540934D01*
X5180633Y8538570D01*
X4843918Y8484034D01*
X4515379Y8392304D01*
X4362972Y8330727D01*
X4201675Y8265559D01*
X4201671Y8265557D01*
X4199114Y8264524D01*
X4196690Y8263213D01*
X4196685Y8263211D01*
X3901491Y8103601D01*
X3901482Y8103596D01*
X3899062Y8102287D01*
X3618965Y7907615D01*
X3616881Y7905790D01*
X3616879Y7905789D01*
X3588697Y7881117D01*
X3362314Y7682933D01*
X3360453Y7680895D01*
X3360452Y7680894D01*
X3292385Y7606351D01*
X3132307Y7431044D01*
X2931811Y7155085D01*
X2763326Y6858497D01*
X2762237Y6855955D01*
X2762233Y6855948D01*
X2685039Y6675840D01*
X2628951Y6544977D01*
X2628155Y6542342D01*
X2628154Y6542338D01*
X2616014Y6502129D01*
X2530361Y6218431D01*
X2468785Y5882932D01*
X2468592Y5880174D01*
X2468592Y5880173D01*
X2458783Y5739890D01*
X2444991Y5542659D01*
X200500Y5542659D01*
X200500Y8620000D01*
X25034508Y8620000D01*
X25035727Y8612303D01*
X25044794Y8555059D01*
X25054354Y8494696D01*
X25057890Y8487757D01*
X25057890Y8487756D01*
X25106526Y8392304D01*
X25111950Y8381658D01*
X25201658Y8291950D01*
X25208595Y8288415D01*
X25208597Y8288414D01*
X25289549Y8247167D01*
X25314696Y8234354D01*
X25322390Y8233135D01*
X25322391Y8233135D01*
X25432303Y8215727D01*
X25440000Y8214508D01*
X25447697Y8215727D01*
X25557609Y8233135D01*
X25557610Y8233135D01*
X25565304Y8234354D01*
X25590451Y8247167D01*
X25671403Y8288414D01*
X25671405Y8288415D01*
X25678342Y8291950D01*
X25768050Y8381658D01*
X25773475Y8392304D01*
X25822110Y8487756D01*
X25822110Y8487757D01*
X25825646Y8494696D01*
X25835207Y8555059D01*
X25844273Y8612303D01*
X25845492Y8620000D01*
X25825646Y8745304D01*
X25768050Y8858342D01*
X25678342Y8948050D01*
X25671405Y8951585D01*
X25671403Y8951586D01*
X25572244Y9002110D01*
X25572243Y9002110D01*
X25565304Y9005646D01*
X25557610Y9006865D01*
X25557609Y9006865D01*
X25447697Y9024273D01*
X25440000Y9025492D01*
X25432303Y9024273D01*
X25322391Y9006865D01*
X25322390Y9006865D01*
X25314696Y9005646D01*
X25307757Y9002110D01*
X25307756Y9002110D01*
X25208597Y8951586D01*
X25208595Y8951585D01*
X25201658Y8948050D01*
X25111950Y8858342D01*
X25054354Y8745304D01*
X25034508Y8620000D01*
X200500Y8620000D01*
X200500Y11000000D01*
X13494508Y11000000D01*
X13495727Y10992303D01*
X13512620Y10885646D01*
X13514354Y10874696D01*
X13517890Y10867757D01*
X13517890Y10867756D01*
X13556336Y10792303D01*
X13571950Y10761658D01*
X13661658Y10671950D01*
X13668595Y10668415D01*
X13668597Y10668414D01*
X13767756Y10617890D01*
X13774696Y10614354D01*
X13782390Y10613135D01*
X13782391Y10613135D01*
X13892303Y10595727D01*
X13900000Y10594508D01*
X13907697Y10595727D01*
X13934676Y10600000D01*
X23494508Y10600000D01*
X23495727Y10592303D01*
X23512620Y10485646D01*
X23514354Y10474696D01*
X23517890Y10467757D01*
X23517890Y10467756D01*
X23565307Y10374696D01*
X23571950Y10361658D01*
X23661658Y10271950D01*
X23668595Y10268415D01*
X23668597Y10268414D01*
X23767756Y10217890D01*
X23774696Y10214354D01*
X23782390Y10213135D01*
X23782391Y10213135D01*
X23892303Y10195727D01*
X23900000Y10194508D01*
X23900322Y10194559D01*
X23954918Y10176820D01*
X23990882Y10127320D01*
X23994858Y10102212D01*
X23994508Y10100000D01*
X24014354Y9974696D01*
X24071950Y9861658D01*
X24161658Y9771950D01*
X24168595Y9768415D01*
X24168597Y9768414D01*
X24267756Y9717890D01*
X24274696Y9714354D01*
X24282390Y9713135D01*
X24282391Y9713135D01*
X24392303Y9695727D01*
X24400000Y9694508D01*
X24407697Y9695727D01*
X24517609Y9713135D01*
X24517610Y9713135D01*
X24525304Y9714354D01*
X24532244Y9717890D01*
X24631403Y9768414D01*
X24631405Y9768415D01*
X24638342Y9771950D01*
X24728050Y9861658D01*
X24785646Y9974696D01*
X24805492Y10100000D01*
X24801165Y10127320D01*
X24786865Y10217609D01*
X24786865Y10217610D01*
X24785646Y10225304D01*
X24728050Y10338342D01*
X24638342Y10428050D01*
X24631405Y10431585D01*
X24631403Y10431586D01*
X24532244Y10482110D01*
X24532243Y10482110D01*
X24525304Y10485646D01*
X24517610Y10486865D01*
X24517609Y10486865D01*
X24434676Y10500000D01*
X25994508Y10500000D01*
X25995727Y10492303D01*
X26005904Y10428050D01*
X26014354Y10374696D01*
X26071950Y10261658D01*
X26161658Y10171950D01*
X26168595Y10168415D01*
X26168597Y10168414D01*
X26249249Y10127320D01*
X26274696Y10114354D01*
X26282390Y10113135D01*
X26282391Y10113135D01*
X26392303Y10095727D01*
X26400000Y10094508D01*
X26407697Y10095727D01*
X26517609Y10113135D01*
X26517610Y10113135D01*
X26525304Y10114354D01*
X26550751Y10127320D01*
X26631403Y10168414D01*
X26631405Y10168415D01*
X26638342Y10171950D01*
X26728050Y10261658D01*
X26785646Y10374696D01*
X26794097Y10428050D01*
X26804273Y10492303D01*
X26805492Y10500000D01*
X26801821Y10523180D01*
X26786865Y10617609D01*
X26786865Y10617610D01*
X26785646Y10625304D01*
X26761879Y10671950D01*
X26731586Y10731403D01*
X26731585Y10731405D01*
X26728050Y10738342D01*
X26666392Y10800000D01*
X27294508Y10800000D01*
X27295727Y10792303D01*
X27306339Y10725304D01*
X27314354Y10674696D01*
X27317890Y10667757D01*
X27317890Y10667756D01*
X27356336Y10592303D01*
X27371950Y10561658D01*
X27461658Y10471950D01*
X27468595Y10468415D01*
X27468597Y10468414D01*
X27540876Y10431586D01*
X27574696Y10414354D01*
X27582390Y10413135D01*
X27582391Y10413135D01*
X27692303Y10395727D01*
X27700000Y10394508D01*
X27707697Y10395727D01*
X27817609Y10413135D01*
X27817610Y10413135D01*
X27825304Y10414354D01*
X27859124Y10431586D01*
X27931403Y10468414D01*
X27931405Y10468415D01*
X27938342Y10471950D01*
X28028050Y10561658D01*
X28043665Y10592303D01*
X28082110Y10667756D01*
X28082110Y10667757D01*
X28085646Y10674696D01*
X28093662Y10725304D01*
X28104273Y10792303D01*
X28105492Y10800000D01*
X28104273Y10807697D01*
X28086865Y10917609D01*
X28086865Y10917610D01*
X28085646Y10925304D01*
X28064016Y10967756D01*
X28031586Y11031403D01*
X28031585Y11031405D01*
X28028050Y11038342D01*
X27966392Y11100000D01*
X29594508Y11100000D01*
X29595727Y11092303D01*
X29612620Y10985646D01*
X29614354Y10974696D01*
X29617890Y10967757D01*
X29617890Y10967756D01*
X29665307Y10874696D01*
X29671950Y10861658D01*
X29761658Y10771950D01*
X29768595Y10768415D01*
X29768597Y10768414D01*
X29867756Y10717890D01*
X29874696Y10714354D01*
X29882390Y10713135D01*
X29882391Y10713135D01*
X29992303Y10695727D01*
X30000000Y10694508D01*
X30007697Y10695727D01*
X30117609Y10713135D01*
X30117610Y10713135D01*
X30125304Y10714354D01*
X30132244Y10717890D01*
X30231403Y10768414D01*
X30231405Y10768415D01*
X30238342Y10771950D01*
X30328050Y10861658D01*
X30334694Y10874696D01*
X30382110Y10967756D01*
X30382110Y10967757D01*
X30385646Y10974696D01*
X30387381Y10985646D01*
X30404273Y11092303D01*
X30405492Y11100000D01*
X30402659Y11117890D01*
X30386865Y11217609D01*
X30386865Y11217610D01*
X30385646Y11225304D01*
X30328050Y11338342D01*
X30238342Y11428050D01*
X30231405Y11431585D01*
X30231403Y11431586D01*
X30132244Y11482110D01*
X30132243Y11482110D01*
X30125304Y11485646D01*
X30117610Y11486865D01*
X30117609Y11486865D01*
X30007697Y11504273D01*
X30000000Y11505492D01*
X29992303Y11504273D01*
X29882391Y11486865D01*
X29882390Y11486865D01*
X29874696Y11485646D01*
X29867757Y11482110D01*
X29867756Y11482110D01*
X29768597Y11431586D01*
X29768595Y11431585D01*
X29761658Y11428050D01*
X29671950Y11338342D01*
X29614354Y11225304D01*
X29613135Y11217610D01*
X29613135Y11217609D01*
X29597341Y11117890D01*
X29594508Y11100000D01*
X27966392Y11100000D01*
X27938342Y11128050D01*
X27931405Y11131585D01*
X27931403Y11131586D01*
X27832244Y11182110D01*
X27832243Y11182110D01*
X27825304Y11185646D01*
X27817610Y11186865D01*
X27817609Y11186865D01*
X27707697Y11204273D01*
X27700000Y11205492D01*
X27692303Y11204273D01*
X27582391Y11186865D01*
X27582390Y11186865D01*
X27574696Y11185646D01*
X27567757Y11182110D01*
X27567756Y11182110D01*
X27468597Y11131586D01*
X27468595Y11131585D01*
X27461658Y11128050D01*
X27371950Y11038342D01*
X27368415Y11031405D01*
X27368414Y11031403D01*
X27335984Y10967756D01*
X27314354Y10925304D01*
X27313135Y10917610D01*
X27313135Y10917609D01*
X27295727Y10807697D01*
X27294508Y10800000D01*
X26666392Y10800000D01*
X26638342Y10828050D01*
X26631405Y10831585D01*
X26631403Y10831586D01*
X26532244Y10882110D01*
X26532243Y10882110D01*
X26525304Y10885646D01*
X26517610Y10886865D01*
X26517609Y10886865D01*
X26407697Y10904273D01*
X26400000Y10905492D01*
X26392303Y10904273D01*
X26282391Y10886865D01*
X26282390Y10886865D01*
X26274696Y10885646D01*
X26267757Y10882110D01*
X26267756Y10882110D01*
X26168597Y10831586D01*
X26168595Y10831585D01*
X26161658Y10828050D01*
X26071950Y10738342D01*
X26068415Y10731405D01*
X26068414Y10731403D01*
X26038121Y10671950D01*
X26014354Y10625304D01*
X26013135Y10617610D01*
X26013135Y10617609D01*
X25998179Y10523180D01*
X25994508Y10500000D01*
X24434676Y10500000D01*
X24407697Y10504273D01*
X24400000Y10505492D01*
X24399678Y10505441D01*
X24345082Y10523180D01*
X24309118Y10572680D01*
X24305142Y10597788D01*
X24305492Y10600000D01*
X24294761Y10667756D01*
X24286865Y10717609D01*
X24286865Y10717610D01*
X24285646Y10725304D01*
X24251508Y10792303D01*
X24231586Y10831403D01*
X24231585Y10831405D01*
X24228050Y10838342D01*
X24138342Y10928050D01*
X24131405Y10931585D01*
X24131403Y10931586D01*
X24032244Y10982110D01*
X24032243Y10982110D01*
X24025304Y10985646D01*
X24017610Y10986865D01*
X24017609Y10986865D01*
X23907697Y11004273D01*
X23900000Y11005492D01*
X23892303Y11004273D01*
X23782391Y10986865D01*
X23782390Y10986865D01*
X23774696Y10985646D01*
X23767757Y10982110D01*
X23767756Y10982110D01*
X23668597Y10931586D01*
X23668595Y10931585D01*
X23661658Y10928050D01*
X23571950Y10838342D01*
X23568415Y10831405D01*
X23568414Y10831403D01*
X23548492Y10792303D01*
X23514354Y10725304D01*
X23513135Y10717610D01*
X23513135Y10717609D01*
X23505239Y10667756D01*
X23494508Y10600000D01*
X13934676Y10600000D01*
X14017609Y10613135D01*
X14017610Y10613135D01*
X14025304Y10614354D01*
X14032244Y10617890D01*
X14131403Y10668414D01*
X14131405Y10668415D01*
X14138342Y10671950D01*
X14228050Y10761658D01*
X14243665Y10792303D01*
X14282110Y10867756D01*
X14282110Y10867757D01*
X14285646Y10874696D01*
X14287381Y10885646D01*
X14304273Y10992303D01*
X14305492Y11000000D01*
X14305441Y11000322D01*
X14323180Y11054918D01*
X14372680Y11090882D01*
X14397788Y11094858D01*
X14400000Y11094508D01*
X14407697Y11095727D01*
X14517609Y11113135D01*
X14517610Y11113135D01*
X14525304Y11114354D01*
X14541378Y11122544D01*
X14631403Y11168414D01*
X14631405Y11168415D01*
X14638342Y11171950D01*
X14728050Y11261658D01*
X14785646Y11374696D01*
X14787381Y11385646D01*
X14804273Y11492303D01*
X14805492Y11500000D01*
X14789654Y11600000D01*
X21094508Y11600000D01*
X21095727Y11592303D01*
X21112620Y11485646D01*
X21114354Y11474696D01*
X21117890Y11467757D01*
X21117890Y11467756D01*
X21165307Y11374696D01*
X21171950Y11361658D01*
X21261658Y11271950D01*
X21268595Y11268415D01*
X21268597Y11268414D01*
X21367756Y11217890D01*
X21374696Y11214354D01*
X21382390Y11213135D01*
X21382391Y11213135D01*
X21492303Y11195727D01*
X21500000Y11194508D01*
X21507697Y11195727D01*
X21617609Y11213135D01*
X21617610Y11213135D01*
X21625304Y11214354D01*
X21632244Y11217890D01*
X21731403Y11268414D01*
X21731405Y11268415D01*
X21738342Y11271950D01*
X21828050Y11361658D01*
X21834694Y11374696D01*
X21882110Y11467756D01*
X21882110Y11467757D01*
X21885646Y11474696D01*
X21887381Y11485646D01*
X21904273Y11592303D01*
X21905492Y11600000D01*
X21885646Y11725304D01*
X21828050Y11838342D01*
X21738342Y11928050D01*
X21731405Y11931585D01*
X21731403Y11931586D01*
X21632244Y11982110D01*
X21632243Y11982110D01*
X21625304Y11985646D01*
X21617610Y11986865D01*
X21617609Y11986865D01*
X21507697Y12004273D01*
X21500000Y12005492D01*
X21492303Y12004273D01*
X21382391Y11986865D01*
X21382390Y11986865D01*
X21374696Y11985646D01*
X21367757Y11982110D01*
X21367756Y11982110D01*
X21268597Y11931586D01*
X21268595Y11931585D01*
X21261658Y11928050D01*
X21171950Y11838342D01*
X21114354Y11725304D01*
X21094508Y11600000D01*
X14789654Y11600000D01*
X14785646Y11625304D01*
X14738614Y11717609D01*
X14731586Y11731403D01*
X14731585Y11731405D01*
X14728050Y11738342D01*
X14638342Y11828050D01*
X14631405Y11831585D01*
X14631403Y11831586D01*
X14532244Y11882110D01*
X14532243Y11882110D01*
X14525304Y11885646D01*
X14517610Y11886865D01*
X14517609Y11886865D01*
X14407697Y11904273D01*
X14400000Y11905492D01*
X14392303Y11904273D01*
X14282391Y11886865D01*
X14282390Y11886865D01*
X14274696Y11885646D01*
X14267757Y11882110D01*
X14267756Y11882110D01*
X14168597Y11831586D01*
X14168595Y11831585D01*
X14161658Y11828050D01*
X14071950Y11738342D01*
X14068415Y11731405D01*
X14068414Y11731403D01*
X14061386Y11717609D01*
X14014354Y11625304D01*
X13994508Y11500000D01*
X13994559Y11499678D01*
X13976820Y11445082D01*
X13927320Y11409118D01*
X13902212Y11405142D01*
X13900000Y11405492D01*
X13892303Y11404273D01*
X13782391Y11386865D01*
X13782390Y11386865D01*
X13774696Y11385646D01*
X13767757Y11382110D01*
X13767756Y11382110D01*
X13668597Y11331586D01*
X13668595Y11331585D01*
X13661658Y11328050D01*
X13571950Y11238342D01*
X13568415Y11231405D01*
X13568414Y11231403D01*
X13561529Y11217890D01*
X13514354Y11125304D01*
X13513135Y11117610D01*
X13513135Y11117609D01*
X13509476Y11094508D01*
X13494508Y11000000D01*
X200500Y11000000D01*
X200500Y12600000D01*
X17994508Y12600000D01*
X18014354Y12474696D01*
X18071950Y12361658D01*
X18161658Y12271950D01*
X18168595Y12268415D01*
X18168597Y12268414D01*
X18267756Y12217890D01*
X18274696Y12214354D01*
X18282390Y12213135D01*
X18282391Y12213135D01*
X18392303Y12195727D01*
X18400000Y12194508D01*
X18407697Y12195727D01*
X18517609Y12213135D01*
X18517610Y12213135D01*
X18525304Y12214354D01*
X18532244Y12217890D01*
X18631403Y12268414D01*
X18631405Y12268415D01*
X18638342Y12271950D01*
X18728050Y12361658D01*
X18785646Y12474696D01*
X18805492Y12600000D01*
X18794761Y12667756D01*
X18786865Y12717609D01*
X18786865Y12717610D01*
X18785646Y12725304D01*
X18751508Y12792303D01*
X18747586Y12800000D01*
X27894508Y12800000D01*
X27895727Y12792303D01*
X27906339Y12725304D01*
X27914354Y12674696D01*
X27917890Y12667757D01*
X27917890Y12667756D01*
X27956336Y12592303D01*
X27971950Y12561658D01*
X28061658Y12471950D01*
X28068595Y12468415D01*
X28068597Y12468414D01*
X28167756Y12417890D01*
X28174696Y12414354D01*
X28182390Y12413135D01*
X28182391Y12413135D01*
X28292303Y12395727D01*
X28300000Y12394508D01*
X28307697Y12395727D01*
X28417609Y12413135D01*
X28417610Y12413135D01*
X28425304Y12414354D01*
X28432244Y12417890D01*
X28531403Y12468414D01*
X28531405Y12468415D01*
X28538342Y12471950D01*
X28628050Y12561658D01*
X28643665Y12592303D01*
X28682110Y12667756D01*
X28682110Y12667757D01*
X28685646Y12674696D01*
X28693662Y12725304D01*
X28704273Y12792303D01*
X28705492Y12800000D01*
X28685646Y12925304D01*
X28628050Y13038342D01*
X28538342Y13128050D01*
X28531405Y13131585D01*
X28531403Y13131586D01*
X28432244Y13182110D01*
X28432243Y13182110D01*
X28425304Y13185646D01*
X28417610Y13186865D01*
X28417609Y13186865D01*
X28307697Y13204273D01*
X28300000Y13205492D01*
X28292303Y13204273D01*
X28182391Y13186865D01*
X28182390Y13186865D01*
X28174696Y13185646D01*
X28167757Y13182110D01*
X28167756Y13182110D01*
X28068597Y13131586D01*
X28068595Y13131585D01*
X28061658Y13128050D01*
X27971950Y13038342D01*
X27914354Y12925304D01*
X27894508Y12800000D01*
X18747586Y12800000D01*
X18731586Y12831403D01*
X18731585Y12831405D01*
X18728050Y12838342D01*
X18638342Y12928050D01*
X18631405Y12931585D01*
X18631403Y12931586D01*
X18532244Y12982110D01*
X18532243Y12982110D01*
X18525304Y12985646D01*
X18517610Y12986865D01*
X18517609Y12986865D01*
X18407697Y13004273D01*
X18400000Y13005492D01*
X18392303Y13004273D01*
X18282391Y12986865D01*
X18282390Y12986865D01*
X18274696Y12985646D01*
X18267757Y12982110D01*
X18267756Y12982110D01*
X18168597Y12931586D01*
X18168595Y12931585D01*
X18161658Y12928050D01*
X18071950Y12838342D01*
X18068415Y12831405D01*
X18068414Y12831403D01*
X18048492Y12792303D01*
X18014354Y12725304D01*
X18013135Y12717610D01*
X18013135Y12717609D01*
X18005239Y12667756D01*
X17994508Y12600000D01*
X200500Y12600000D01*
X200500Y14500000D01*
X18007112Y14500000D01*
X18008331Y14492303D01*
X18017977Y14431403D01*
X18026958Y14374696D01*
X18030494Y14367757D01*
X18030494Y14367756D01*
X18052125Y14325304D01*
X18084554Y14261658D01*
X18174262Y14171950D01*
X18181199Y14168415D01*
X18181201Y14168414D01*
X18280360Y14117890D01*
X18287300Y14114354D01*
X18294994Y14113135D01*
X18294995Y14113135D01*
X18404907Y14095727D01*
X18412604Y14094508D01*
X18420301Y14095727D01*
X18530213Y14113135D01*
X18530214Y14113135D01*
X18537908Y14114354D01*
X18544848Y14117890D01*
X18644007Y14168414D01*
X18644009Y14168415D01*
X18650946Y14171950D01*
X18678996Y14200000D01*
X27794508Y14200000D01*
X27795727Y14192303D01*
X27798079Y14177456D01*
X27814354Y14074696D01*
X27871950Y13961658D01*
X27961658Y13871950D01*
X27968595Y13868415D01*
X27968597Y13868414D01*
X28067756Y13817890D01*
X28074696Y13814354D01*
X28082390Y13813135D01*
X28082391Y13813135D01*
X28192303Y13795727D01*
X28200000Y13794508D01*
X28207697Y13795727D01*
X28317609Y13813135D01*
X28317610Y13813135D01*
X28325304Y13814354D01*
X28332244Y13817890D01*
X28431403Y13868414D01*
X28431405Y13868415D01*
X28438342Y13871950D01*
X28528050Y13961658D01*
X28585646Y14074696D01*
X28601922Y14177456D01*
X28604273Y14192303D01*
X28605492Y14200000D01*
X28604273Y14207697D01*
X28586865Y14317609D01*
X28586865Y14317610D01*
X28585646Y14325304D01*
X28564016Y14367756D01*
X28531586Y14431403D01*
X28531585Y14431405D01*
X28528050Y14438342D01*
X28438342Y14528050D01*
X28431405Y14531585D01*
X28431403Y14531586D01*
X28332244Y14582110D01*
X28332243Y14582110D01*
X28325304Y14585646D01*
X28317610Y14586865D01*
X28317609Y14586865D01*
X28207697Y14604273D01*
X28200000Y14605492D01*
X28192303Y14604273D01*
X28082391Y14586865D01*
X28082390Y14586865D01*
X28074696Y14585646D01*
X28067757Y14582110D01*
X28067756Y14582110D01*
X27968597Y14531586D01*
X27968595Y14531585D01*
X27961658Y14528050D01*
X27871950Y14438342D01*
X27868415Y14431405D01*
X27868414Y14431403D01*
X27835984Y14367756D01*
X27814354Y14325304D01*
X27813135Y14317610D01*
X27813135Y14317609D01*
X27795727Y14207697D01*
X27794508Y14200000D01*
X18678996Y14200000D01*
X18740654Y14261658D01*
X18773084Y14325304D01*
X18794714Y14367756D01*
X18794714Y14367757D01*
X18798250Y14374696D01*
X18807232Y14431403D01*
X18816877Y14492303D01*
X18818096Y14500000D01*
X18816877Y14507697D01*
X18799469Y14617609D01*
X18799469Y14617610D01*
X18798250Y14625304D01*
X18771677Y14677456D01*
X18744190Y14731403D01*
X18744189Y14731405D01*
X18740654Y14738342D01*
X18650946Y14828050D01*
X18644009Y14831585D01*
X18644007Y14831586D01*
X18544848Y14882110D01*
X18544847Y14882110D01*
X18537908Y14885646D01*
X18530214Y14886865D01*
X18530213Y14886865D01*
X18420301Y14904273D01*
X18412604Y14905492D01*
X18404907Y14904273D01*
X18294995Y14886865D01*
X18294994Y14886865D01*
X18287300Y14885646D01*
X18280361Y14882110D01*
X18280360Y14882110D01*
X18181201Y14831586D01*
X18181199Y14831585D01*
X18174262Y14828050D01*
X18084554Y14738342D01*
X18081019Y14731405D01*
X18081018Y14731403D01*
X18053531Y14677456D01*
X18026958Y14625304D01*
X18025739Y14617610D01*
X18025739Y14617609D01*
X18008331Y14507697D01*
X18007112Y14500000D01*
X200500Y14500000D01*
X200500Y14960000D01*
X20244508Y14960000D01*
X20245727Y14952303D01*
X20258019Y14874696D01*
X20264354Y14834696D01*
X20267890Y14827757D01*
X20267890Y14827756D01*
X20316985Y14731403D01*
X20321950Y14721658D01*
X20411658Y14631950D01*
X20418595Y14628415D01*
X20418597Y14628414D01*
X20500142Y14586865D01*
X20524696Y14574354D01*
X20532390Y14573135D01*
X20532391Y14573135D01*
X20642303Y14555727D01*
X20650000Y14554508D01*
X20657697Y14555727D01*
X20767609Y14573135D01*
X20767610Y14573135D01*
X20775304Y14574354D01*
X20799858Y14586865D01*
X20881403Y14628414D01*
X20881405Y14628415D01*
X20888342Y14631950D01*
X20978050Y14721658D01*
X20983016Y14731403D01*
X21032110Y14827756D01*
X21032110Y14827757D01*
X21035646Y14834696D01*
X21041982Y14874696D01*
X21054273Y14952303D01*
X21055492Y14960000D01*
X21049157Y15000000D01*
X31794508Y15000000D01*
X31795727Y14992303D01*
X31812620Y14885646D01*
X31814354Y14874696D01*
X31871950Y14761658D01*
X31961658Y14671950D01*
X31968595Y14668415D01*
X31968597Y14668414D01*
X32067756Y14617890D01*
X32074696Y14614354D01*
X32082390Y14613135D01*
X32082391Y14613135D01*
X32192303Y14595727D01*
X32200000Y14594508D01*
X32207697Y14595727D01*
X32317609Y14613135D01*
X32317610Y14613135D01*
X32325304Y14614354D01*
X32332244Y14617890D01*
X32431403Y14668414D01*
X32431405Y14668415D01*
X32438342Y14671950D01*
X32528050Y14761658D01*
X32585646Y14874696D01*
X32587381Y14885646D01*
X32604273Y14992303D01*
X32605492Y15000000D01*
X32593200Y15077609D01*
X32586865Y15117609D01*
X32586865Y15117610D01*
X32585646Y15125304D01*
X32528050Y15238342D01*
X32438342Y15328050D01*
X32431405Y15331585D01*
X32431403Y15331586D01*
X32332244Y15382110D01*
X32332243Y15382110D01*
X32325304Y15385646D01*
X32317610Y15386865D01*
X32317609Y15386865D01*
X32207697Y15404273D01*
X32200000Y15405492D01*
X32192303Y15404273D01*
X32082391Y15386865D01*
X32082390Y15386865D01*
X32074696Y15385646D01*
X32067757Y15382110D01*
X32067756Y15382110D01*
X31968597Y15331586D01*
X31968595Y15331585D01*
X31961658Y15328050D01*
X31871950Y15238342D01*
X31814354Y15125304D01*
X31813135Y15117610D01*
X31813135Y15117609D01*
X31806800Y15077609D01*
X31794508Y15000000D01*
X21049157Y15000000D01*
X21035646Y15085304D01*
X20978050Y15198342D01*
X20888342Y15288050D01*
X20881405Y15291585D01*
X20881403Y15291586D01*
X20782244Y15342110D01*
X20782243Y15342110D01*
X20775304Y15345646D01*
X20767610Y15346865D01*
X20767609Y15346865D01*
X20657697Y15364273D01*
X20650000Y15365492D01*
X20642303Y15364273D01*
X20532391Y15346865D01*
X20532390Y15346865D01*
X20524696Y15345646D01*
X20517757Y15342110D01*
X20517756Y15342110D01*
X20418597Y15291586D01*
X20418595Y15291585D01*
X20411658Y15288050D01*
X20321950Y15198342D01*
X20264354Y15085304D01*
X20244508Y14960000D01*
X200500Y14960000D01*
X200500Y16250000D01*
X20844508Y16250000D01*
X20864354Y16124696D01*
X20867890Y16117757D01*
X20867890Y16117756D01*
X20894926Y16064696D01*
X20921950Y16011658D01*
X21011658Y15921950D01*
X21018595Y15918415D01*
X21018597Y15918414D01*
X21117756Y15867890D01*
X21124696Y15864354D01*
X21132390Y15863135D01*
X21132391Y15863135D01*
X21242303Y15845727D01*
X21250000Y15844508D01*
X21257697Y15845727D01*
X21367609Y15863135D01*
X21367610Y15863135D01*
X21375304Y15864354D01*
X21382244Y15867890D01*
X21481403Y15918414D01*
X21481405Y15918415D01*
X21488342Y15921950D01*
X21578050Y16011658D01*
X21605075Y16064696D01*
X21632110Y16117756D01*
X21632110Y16117757D01*
X21635646Y16124696D01*
X21645989Y16190000D01*
X28804508Y16190000D01*
X28824354Y16064696D01*
X28827890Y16057757D01*
X28827890Y16057756D01*
X28847843Y16018597D01*
X28881950Y15951658D01*
X28971658Y15861950D01*
X28978595Y15858415D01*
X28978597Y15858414D01*
X29077756Y15807890D01*
X29084696Y15804354D01*
X29092390Y15803135D01*
X29092391Y15803135D01*
X29202303Y15785727D01*
X29210000Y15784508D01*
X29217697Y15785727D01*
X29327609Y15803135D01*
X29327610Y15803135D01*
X29335304Y15804354D01*
X29342244Y15807890D01*
X29441403Y15858414D01*
X29441405Y15858415D01*
X29448342Y15861950D01*
X29538050Y15951658D01*
X29572158Y16018597D01*
X29592110Y16057756D01*
X29592110Y16057757D01*
X29595646Y16064696D01*
X29615492Y16190000D01*
X29595646Y16315304D01*
X29568995Y16367609D01*
X29541586Y16421403D01*
X29541585Y16421405D01*
X29538050Y16428342D01*
X29448342Y16518050D01*
X29441405Y16521585D01*
X29441403Y16521586D01*
X29342244Y16572110D01*
X29342243Y16572110D01*
X29335304Y16575646D01*
X29327610Y16576865D01*
X29327609Y16576865D01*
X29217697Y16594273D01*
X29210000Y16595492D01*
X29202303Y16594273D01*
X29092391Y16576865D01*
X29092390Y16576865D01*
X29084696Y16575646D01*
X29077757Y16572110D01*
X29077756Y16572110D01*
X28978597Y16521586D01*
X28978595Y16521585D01*
X28971658Y16518050D01*
X28881950Y16428342D01*
X28878415Y16421405D01*
X28878414Y16421403D01*
X28851005Y16367609D01*
X28824354Y16315304D01*
X28804508Y16190000D01*
X21645989Y16190000D01*
X21655492Y16250000D01*
X21635646Y16375304D01*
X21632110Y16382244D01*
X21581586Y16481403D01*
X21581585Y16481405D01*
X21578050Y16488342D01*
X21488342Y16578050D01*
X21481405Y16581585D01*
X21481403Y16581586D01*
X21382244Y16632110D01*
X21382243Y16632110D01*
X21375304Y16635646D01*
X21367610Y16636865D01*
X21367609Y16636865D01*
X21257697Y16654273D01*
X21250000Y16655492D01*
X21242303Y16654273D01*
X21132391Y16636865D01*
X21132390Y16636865D01*
X21124696Y16635646D01*
X21117757Y16632110D01*
X21117756Y16632110D01*
X21018597Y16581586D01*
X21018595Y16581585D01*
X21011658Y16578050D01*
X20921950Y16488342D01*
X20918415Y16481405D01*
X20918414Y16481403D01*
X20867890Y16382244D01*
X20864354Y16375304D01*
X20844508Y16250000D01*
X200500Y16250000D01*
X200500Y17100000D01*
X22594508Y17100000D01*
X22614354Y16974696D01*
X22617890Y16967757D01*
X22617890Y16967756D01*
X22665650Y16874023D01*
X22671950Y16861658D01*
X22761658Y16771950D01*
X22768595Y16768415D01*
X22768597Y16768414D01*
X22792663Y16756152D01*
X22874696Y16714354D01*
X22882390Y16713135D01*
X22882391Y16713135D01*
X22992303Y16695727D01*
X23000000Y16694508D01*
X23007697Y16695727D01*
X23117609Y16713135D01*
X23117610Y16713135D01*
X23125304Y16714354D01*
X23207337Y16756152D01*
X23231403Y16768414D01*
X23231405Y16768415D01*
X23238342Y16771950D01*
X23328050Y16861658D01*
X23334351Y16874023D01*
X23336672Y16878579D01*
X23379936Y16921844D01*
X23440368Y16931416D01*
X23494885Y16903639D01*
X23513034Y16874023D01*
X23514354Y16874696D01*
X23538718Y16826880D01*
X23571950Y16761658D01*
X23661658Y16671950D01*
X23668595Y16668415D01*
X23668597Y16668414D01*
X23732908Y16635646D01*
X23774696Y16614354D01*
X23782390Y16613135D01*
X23782391Y16613135D01*
X23892303Y16595727D01*
X23900000Y16594508D01*
X23907697Y16595727D01*
X24017609Y16613135D01*
X24017610Y16613135D01*
X24025304Y16614354D01*
X24067092Y16635646D01*
X24131403Y16668414D01*
X24131405Y16668415D01*
X24138342Y16671950D01*
X24228050Y16761658D01*
X24248514Y16801821D01*
X24291779Y16845086D01*
X24352211Y16854657D01*
X24406728Y16826880D01*
X24461658Y16771950D01*
X24468595Y16768415D01*
X24468597Y16768414D01*
X24492663Y16756152D01*
X24574696Y16714354D01*
X24582390Y16713135D01*
X24582391Y16713135D01*
X24692303Y16695727D01*
X24700000Y16694508D01*
X24707697Y16695727D01*
X24817609Y16713135D01*
X24817610Y16713135D01*
X24825304Y16714354D01*
X24907337Y16756152D01*
X24931403Y16768414D01*
X24931405Y16768415D01*
X24938342Y16771950D01*
X25028050Y16861658D01*
X25034351Y16874023D01*
X25082110Y16967756D01*
X25082110Y16967757D01*
X25085646Y16974696D01*
X25105492Y17100000D01*
X25096392Y17157456D01*
X25086865Y17217609D01*
X25086865Y17217610D01*
X25085646Y17225304D01*
X25070559Y17254914D01*
X25031586Y17331403D01*
X25031585Y17331405D01*
X25028050Y17338342D01*
X24938342Y17428050D01*
X24931405Y17431585D01*
X24931403Y17431586D01*
X24836385Y17480000D01*
X25874508Y17480000D01*
X25894354Y17354696D01*
X25897890Y17347757D01*
X25897890Y17347756D01*
X25945196Y17254914D01*
X25951950Y17241658D01*
X26041658Y17151950D01*
X26048595Y17148415D01*
X26048597Y17148414D01*
X26093953Y17125304D01*
X26154696Y17094354D01*
X26162390Y17093135D01*
X26162391Y17093135D01*
X26272303Y17075727D01*
X26280000Y17074508D01*
X26287697Y17075727D01*
X26397609Y17093135D01*
X26397610Y17093135D01*
X26405304Y17094354D01*
X26466047Y17125304D01*
X26511403Y17148414D01*
X26511405Y17148415D01*
X26518342Y17151950D01*
X26608050Y17241658D01*
X26614805Y17254914D01*
X26662110Y17347756D01*
X26662110Y17347757D01*
X26665646Y17354696D01*
X26685492Y17480000D01*
X26665646Y17605304D01*
X26608050Y17718342D01*
X26518342Y17808050D01*
X26511405Y17811585D01*
X26511403Y17811586D01*
X26412244Y17862110D01*
X26412243Y17862110D01*
X26405304Y17865646D01*
X26397610Y17866865D01*
X26397609Y17866865D01*
X26287697Y17884273D01*
X26280000Y17885492D01*
X26272303Y17884273D01*
X26162391Y17866865D01*
X26162390Y17866865D01*
X26154696Y17865646D01*
X26147757Y17862110D01*
X26147756Y17862110D01*
X26048597Y17811586D01*
X26048595Y17811585D01*
X26041658Y17808050D01*
X25951950Y17718342D01*
X25894354Y17605304D01*
X25874508Y17480000D01*
X24836385Y17480000D01*
X24832244Y17482110D01*
X24832243Y17482110D01*
X24825304Y17485646D01*
X24817610Y17486865D01*
X24817609Y17486865D01*
X24707697Y17504273D01*
X24700000Y17505492D01*
X24692303Y17504273D01*
X24582391Y17486865D01*
X24582390Y17486865D01*
X24574696Y17485646D01*
X24567757Y17482110D01*
X24567756Y17482110D01*
X24468597Y17431586D01*
X24468595Y17431585D01*
X24461658Y17428050D01*
X24371950Y17338342D01*
X24368415Y17331405D01*
X24368414Y17331403D01*
X24351486Y17298179D01*
X24308221Y17254914D01*
X24247789Y17245343D01*
X24193272Y17273120D01*
X24138342Y17328050D01*
X24131405Y17331585D01*
X24131403Y17331586D01*
X24032244Y17382110D01*
X24032243Y17382110D01*
X24025304Y17385646D01*
X24017610Y17386865D01*
X24017609Y17386865D01*
X23907697Y17404273D01*
X23900000Y17405492D01*
X23892303Y17404273D01*
X23782391Y17386865D01*
X23782390Y17386865D01*
X23774696Y17385646D01*
X23767757Y17382110D01*
X23767756Y17382110D01*
X23668597Y17331586D01*
X23668595Y17331585D01*
X23661658Y17328050D01*
X23571950Y17238342D01*
X23568414Y17231403D01*
X23568413Y17231401D01*
X23563328Y17221421D01*
X23520064Y17178156D01*
X23459632Y17168584D01*
X23405115Y17196361D01*
X23386966Y17225977D01*
X23385646Y17225304D01*
X23331586Y17331403D01*
X23331585Y17331405D01*
X23328050Y17338342D01*
X23238342Y17428050D01*
X23231405Y17431585D01*
X23231403Y17431586D01*
X23132244Y17482110D01*
X23132243Y17482110D01*
X23125304Y17485646D01*
X23117610Y17486865D01*
X23117609Y17486865D01*
X23007697Y17504273D01*
X23000000Y17505492D01*
X22992303Y17504273D01*
X22882391Y17486865D01*
X22882390Y17486865D01*
X22874696Y17485646D01*
X22867757Y17482110D01*
X22867756Y17482110D01*
X22768597Y17431586D01*
X22768595Y17431585D01*
X22761658Y17428050D01*
X22671950Y17338342D01*
X22668415Y17331405D01*
X22668414Y17331403D01*
X22629441Y17254914D01*
X22614354Y17225304D01*
X22613135Y17217610D01*
X22613135Y17217609D01*
X22603608Y17157456D01*
X22594508Y17100000D01*
X200500Y17100000D01*
X200500Y18200000D01*
X9194508Y18200000D01*
X9195727Y18192303D01*
X9210084Y18101658D01*
X9214354Y18074696D01*
X9217890Y18067757D01*
X9217890Y18067756D01*
X9248127Y18008414D01*
X9271950Y17961658D01*
X9361658Y17871950D01*
X9368595Y17868415D01*
X9368597Y17868414D01*
X9467756Y17817890D01*
X9474696Y17814354D01*
X9482390Y17813135D01*
X9482391Y17813135D01*
X9592303Y17795727D01*
X9600000Y17794508D01*
X9607697Y17795727D01*
X9717609Y17813135D01*
X9717610Y17813135D01*
X9725304Y17814354D01*
X9732244Y17817890D01*
X9831403Y17868414D01*
X9831405Y17868415D01*
X9838342Y17871950D01*
X9928050Y17961658D01*
X9951874Y18008414D01*
X9982110Y18067756D01*
X9982110Y18067757D01*
X9985646Y18074696D01*
X9989917Y18101658D01*
X10004273Y18192303D01*
X10005492Y18200000D01*
X9985646Y18325304D01*
X9978158Y18340000D01*
X27144508Y18340000D01*
X27164354Y18214696D01*
X27221950Y18101658D01*
X27311658Y18011950D01*
X27318595Y18008415D01*
X27318597Y18008414D01*
X27410361Y17961658D01*
X27424696Y17954354D01*
X27432390Y17953135D01*
X27432391Y17953135D01*
X27542303Y17935727D01*
X27550000Y17934508D01*
X27557697Y17935727D01*
X27667609Y17953135D01*
X27667610Y17953135D01*
X27675304Y17954354D01*
X27689639Y17961658D01*
X27781403Y18008414D01*
X27781405Y18008415D01*
X27788342Y18011950D01*
X27878050Y18101658D01*
X27935646Y18214696D01*
X27955492Y18340000D01*
X27954273Y18347697D01*
X27936865Y18457609D01*
X27936865Y18457610D01*
X27935646Y18465304D01*
X27903675Y18528050D01*
X27881586Y18571403D01*
X27881585Y18571405D01*
X27878050Y18578342D01*
X27788342Y18668050D01*
X27781405Y18671585D01*
X27781403Y18671586D01*
X27682244Y18722110D01*
X27682243Y18722110D01*
X27675304Y18725646D01*
X27667610Y18726865D01*
X27667609Y18726865D01*
X27557697Y18744273D01*
X27550000Y18745492D01*
X27542303Y18744273D01*
X27432391Y18726865D01*
X27432390Y18726865D01*
X27424696Y18725646D01*
X27417757Y18722110D01*
X27417756Y18722110D01*
X27318597Y18671586D01*
X27318595Y18671585D01*
X27311658Y18668050D01*
X27221950Y18578342D01*
X27218415Y18571405D01*
X27218414Y18571403D01*
X27196325Y18528050D01*
X27164354Y18465304D01*
X27163135Y18457610D01*
X27163135Y18457609D01*
X27145727Y18347697D01*
X27144508Y18340000D01*
X9978158Y18340000D01*
X9928050Y18438342D01*
X9838342Y18528050D01*
X9831405Y18531585D01*
X9831403Y18531586D01*
X9732244Y18582110D01*
X9732243Y18582110D01*
X9725304Y18585646D01*
X9717610Y18586865D01*
X9717609Y18586865D01*
X9607697Y18604273D01*
X9600000Y18605492D01*
X9592303Y18604273D01*
X9482391Y18586865D01*
X9482390Y18586865D01*
X9474696Y18585646D01*
X9467757Y18582110D01*
X9467756Y18582110D01*
X9368597Y18531586D01*
X9368595Y18531585D01*
X9361658Y18528050D01*
X9271950Y18438342D01*
X9214354Y18325304D01*
X9194508Y18200000D01*
X200500Y18200000D01*
X200500Y21000000D01*
X21994508Y21000000D01*
X22014354Y20874696D01*
X22071950Y20761658D01*
X22161658Y20671950D01*
X22168595Y20668415D01*
X22168597Y20668414D01*
X22267756Y20617890D01*
X22274696Y20614354D01*
X22282390Y20613135D01*
X22282391Y20613135D01*
X22392303Y20595727D01*
X22400000Y20594508D01*
X22407697Y20595727D01*
X22517609Y20613135D01*
X22517610Y20613135D01*
X22525304Y20614354D01*
X22532244Y20617890D01*
X22631403Y20668414D01*
X22631405Y20668415D01*
X22638342Y20671950D01*
X22728050Y20761658D01*
X22785646Y20874696D01*
X22805492Y21000000D01*
X22785646Y21125304D01*
X22728050Y21238342D01*
X22638342Y21328050D01*
X22631405Y21331585D01*
X22631403Y21331586D01*
X22532244Y21382110D01*
X22532243Y21382110D01*
X22525304Y21385646D01*
X22517610Y21386865D01*
X22517609Y21386865D01*
X22407697Y21404273D01*
X22400000Y21405492D01*
X22392303Y21404273D01*
X22282391Y21386865D01*
X22282390Y21386865D01*
X22274696Y21385646D01*
X22267757Y21382110D01*
X22267756Y21382110D01*
X22168597Y21331586D01*
X22168595Y21331585D01*
X22161658Y21328050D01*
X22071950Y21238342D01*
X22014354Y21125304D01*
X21994508Y21000000D01*
X200500Y21000000D01*
X200500Y22900000D01*
X2594508Y22900000D01*
X2595727Y22892303D01*
X2605373Y22831403D01*
X2614354Y22774696D01*
X2617890Y22767757D01*
X2617890Y22767756D01*
X2663649Y22677950D01*
X2671950Y22661658D01*
X2761658Y22571950D01*
X2768595Y22568415D01*
X2768597Y22568414D01*
X2867756Y22517890D01*
X2874696Y22514354D01*
X2882390Y22513135D01*
X2882391Y22513135D01*
X2992303Y22495727D01*
X3000000Y22494508D01*
X3007697Y22495727D01*
X3117609Y22513135D01*
X3117610Y22513135D01*
X3125304Y22514354D01*
X3132244Y22517890D01*
X3231403Y22568414D01*
X3231405Y22568415D01*
X3238342Y22571950D01*
X3328050Y22661658D01*
X3336352Y22677950D01*
X3382110Y22767756D01*
X3382110Y22767757D01*
X3385646Y22774696D01*
X3394628Y22831403D01*
X3404273Y22892303D01*
X3405492Y22900000D01*
X3404273Y22907697D01*
X3386865Y23017609D01*
X3386865Y23017610D01*
X3385646Y23025304D01*
X3373652Y23048844D01*
X3331586Y23131403D01*
X3331585Y23131405D01*
X3328050Y23138342D01*
X3238342Y23228050D01*
X3231405Y23231585D01*
X3231403Y23231586D01*
X3132244Y23282110D01*
X3132243Y23282110D01*
X3125304Y23285646D01*
X3117610Y23286865D01*
X3117609Y23286865D01*
X3007697Y23304273D01*
X3000000Y23305492D01*
X2992303Y23304273D01*
X2882391Y23286865D01*
X2882390Y23286865D01*
X2874696Y23285646D01*
X2867757Y23282110D01*
X2867756Y23282110D01*
X2768597Y23231586D01*
X2768595Y23231585D01*
X2761658Y23228050D01*
X2671950Y23138342D01*
X2668415Y23131405D01*
X2668414Y23131403D01*
X2626348Y23048844D01*
X2614354Y23025304D01*
X2613135Y23017610D01*
X2613135Y23017609D01*
X2595727Y22907697D01*
X2594508Y22900000D01*
X200500Y22900000D01*
X200500Y23977010D01*
X4243143Y23977010D01*
X4244477Y23970395D01*
X4244477Y23970392D01*
X4257159Y23907499D01*
X4271330Y23837215D01*
X4336073Y23710151D01*
X4432601Y23605177D01*
X4438338Y23601620D01*
X4548067Y23533585D01*
X4548070Y23533584D01*
X4553803Y23530029D01*
X4690749Y23490242D01*
X4695919Y23489862D01*
X4695921Y23489862D01*
X4699053Y23489632D01*
X4699060Y23489632D01*
X4700854Y23489500D01*
X4803227Y23489500D01*
X4908789Y23503960D01*
X4914976Y23506638D01*
X4914978Y23506638D01*
X5033478Y23557918D01*
X5033480Y23557919D01*
X5039668Y23560597D01*
X5150496Y23650343D01*
X5233106Y23766587D01*
X5235390Y23772932D01*
X5235392Y23772935D01*
X5271039Y23871950D01*
X5281413Y23900764D01*
X5285481Y23956152D01*
X5291363Y24036257D01*
X5291363Y24036260D01*
X5291857Y24042990D01*
X5286864Y24067756D01*
X5265003Y24176172D01*
X5263670Y24182785D01*
X5198927Y24309849D01*
X5191792Y24317609D01*
X5106967Y24409855D01*
X5102399Y24414823D01*
X5037347Y24455157D01*
X4986933Y24486415D01*
X4986930Y24486416D01*
X4981197Y24489971D01*
X4844251Y24529758D01*
X4839081Y24530138D01*
X4839079Y24530138D01*
X4835947Y24530368D01*
X4835940Y24530368D01*
X4834146Y24530500D01*
X4731773Y24530500D01*
X4626211Y24516040D01*
X4620024Y24513362D01*
X4620022Y24513362D01*
X4501522Y24462082D01*
X4501520Y24462081D01*
X4495332Y24459403D01*
X4384504Y24369657D01*
X4374907Y24356152D01*
X4312555Y24268414D01*
X4301894Y24253413D01*
X4299610Y24247068D01*
X4299608Y24247065D01*
X4280687Y24194508D01*
X4253587Y24119236D01*
X4253093Y24112504D01*
X4253092Y24112501D01*
X4243637Y23983743D01*
X4243143Y23977010D01*
X200500Y23977010D01*
X200500Y25000000D01*
X3294508Y25000000D01*
X3295727Y24992303D01*
X3305904Y24928050D01*
X3314354Y24874696D01*
X3371950Y24761658D01*
X3461658Y24671950D01*
X3468595Y24668415D01*
X3468597Y24668414D01*
X3567756Y24617890D01*
X3574696Y24614354D01*
X3582390Y24613135D01*
X3582391Y24613135D01*
X3692303Y24595727D01*
X3700000Y24594508D01*
X3707697Y24595727D01*
X3734676Y24600000D01*
X16394508Y24600000D01*
X16395727Y24592303D01*
X16411935Y24489971D01*
X16414354Y24474696D01*
X16417890Y24467757D01*
X16417890Y24467756D01*
X16465709Y24373907D01*
X16471950Y24361658D01*
X16561658Y24271950D01*
X16568595Y24268415D01*
X16568597Y24268414D01*
X16610497Y24247065D01*
X16674696Y24214354D01*
X16682390Y24213135D01*
X16682391Y24213135D01*
X16792303Y24195727D01*
X16800000Y24194508D01*
X16807697Y24195727D01*
X16917609Y24213135D01*
X16917610Y24213135D01*
X16925304Y24214354D01*
X16989503Y24247065D01*
X17031403Y24268414D01*
X17031405Y24268415D01*
X17038342Y24271950D01*
X17128050Y24361658D01*
X17134292Y24373907D01*
X17182110Y24467756D01*
X17182110Y24467757D01*
X17185646Y24474696D01*
X17188066Y24489971D01*
X17204273Y24592303D01*
X17205492Y24600000D01*
X17202659Y24617890D01*
X17186865Y24717609D01*
X17186865Y24717610D01*
X17185646Y24725304D01*
X17128050Y24838342D01*
X17038342Y24928050D01*
X17031405Y24931585D01*
X17031403Y24931586D01*
X16932244Y24982110D01*
X16932243Y24982110D01*
X16925304Y24985646D01*
X16917610Y24986865D01*
X16917609Y24986865D01*
X16807697Y25004273D01*
X16800000Y25005492D01*
X16792303Y25004273D01*
X16682391Y24986865D01*
X16682390Y24986865D01*
X16674696Y24985646D01*
X16667757Y24982110D01*
X16667756Y24982110D01*
X16568597Y24931586D01*
X16568595Y24931585D01*
X16561658Y24928050D01*
X16471950Y24838342D01*
X16414354Y24725304D01*
X16413135Y24717610D01*
X16413135Y24717609D01*
X16397341Y24617890D01*
X16394508Y24600000D01*
X3734676Y24600000D01*
X3817609Y24613135D01*
X3817610Y24613135D01*
X3825304Y24614354D01*
X3832244Y24617890D01*
X3931403Y24668414D01*
X3931405Y24668415D01*
X3938342Y24671950D01*
X4028050Y24761658D01*
X4085646Y24874696D01*
X4094097Y24928050D01*
X4104273Y24992303D01*
X4105492Y25000000D01*
X4094761Y25067756D01*
X4086865Y25117609D01*
X4086865Y25117610D01*
X4085646Y25125304D01*
X4051508Y25192303D01*
X4047586Y25200000D01*
X4294508Y25200000D01*
X4295727Y25192303D01*
X4306339Y25125304D01*
X4314354Y25074696D01*
X4317890Y25067757D01*
X4317890Y25067756D01*
X4356336Y24992303D01*
X4371950Y24961658D01*
X4461658Y24871950D01*
X4468595Y24868415D01*
X4468597Y24868414D01*
X4567756Y24817890D01*
X4574696Y24814354D01*
X4582390Y24813135D01*
X4582391Y24813135D01*
X4692303Y24795727D01*
X4700000Y24794508D01*
X4707697Y24795727D01*
X4817609Y24813135D01*
X4817610Y24813135D01*
X4825304Y24814354D01*
X4832244Y24817890D01*
X4931403Y24868414D01*
X4931405Y24868415D01*
X4938342Y24871950D01*
X5028050Y24961658D01*
X5043665Y24992303D01*
X5082110Y25067756D01*
X5082110Y25067757D01*
X5085646Y25074696D01*
X5093662Y25125304D01*
X5104273Y25192303D01*
X5105492Y25200000D01*
X5098547Y25243848D01*
X5086865Y25317609D01*
X5086865Y25317610D01*
X5085646Y25325304D01*
X5061879Y25371950D01*
X5031586Y25431403D01*
X5031585Y25431405D01*
X5028050Y25438342D01*
X4966392Y25500000D01*
X18494508Y25500000D01*
X18495727Y25492303D01*
X18512620Y25385646D01*
X18514354Y25374696D01*
X18517890Y25367757D01*
X18517890Y25367756D01*
X18552385Y25300057D01*
X18571950Y25261658D01*
X18661658Y25171950D01*
X18668595Y25168415D01*
X18668597Y25168414D01*
X18767756Y25117890D01*
X18774696Y25114354D01*
X18782390Y25113135D01*
X18782391Y25113135D01*
X18892303Y25095727D01*
X18900000Y25094508D01*
X18907697Y25095727D01*
X19017609Y25113135D01*
X19017610Y25113135D01*
X19025304Y25114354D01*
X19032244Y25117890D01*
X19131403Y25168414D01*
X19131405Y25168415D01*
X19138342Y25171950D01*
X19228050Y25261658D01*
X19247616Y25300057D01*
X19282110Y25367756D01*
X19282110Y25367757D01*
X19285646Y25374696D01*
X19287381Y25385646D01*
X19296794Y25445083D01*
X19324571Y25499600D01*
X19864119Y26039148D01*
X19918635Y26066924D01*
X19979067Y26057353D01*
X20022332Y26014088D01*
X20031903Y25953656D01*
X20025066Y25930499D01*
X20020508Y25923854D01*
X20018398Y25914962D01*
X20014359Y25897942D01*
X20009986Y25884116D01*
X20009186Y25882110D01*
X20000117Y25859378D01*
X19999500Y25853085D01*
X19999500Y25846916D01*
X19996825Y25824057D01*
X19994660Y25814934D01*
X19995892Y25805878D01*
X19995446Y25796748D01*
X19991579Y25796937D01*
X19983843Y25754176D01*
X19977192Y25743584D01*
X19971950Y25738342D01*
X19968415Y25731405D01*
X19968414Y25731403D01*
X19935984Y25667756D01*
X19914354Y25625304D01*
X19913135Y25617610D01*
X19913135Y25617609D01*
X19896663Y25513604D01*
X19894508Y25500000D01*
X19895727Y25492303D01*
X19912620Y25385646D01*
X19914354Y25374696D01*
X19917890Y25367757D01*
X19917890Y25367756D01*
X19952385Y25300057D01*
X19971950Y25261658D01*
X20061658Y25171950D01*
X20068595Y25168415D01*
X20068597Y25168414D01*
X20167756Y25117890D01*
X20174696Y25114354D01*
X20182390Y25113135D01*
X20182391Y25113135D01*
X20292303Y25095727D01*
X20300000Y25094508D01*
X20307697Y25095727D01*
X20417609Y25113135D01*
X20417610Y25113135D01*
X20425304Y25114354D01*
X20432244Y25117890D01*
X20531403Y25168414D01*
X20531405Y25168415D01*
X20538342Y25171950D01*
X20628050Y25261658D01*
X20647616Y25300057D01*
X20682110Y25367756D01*
X20682110Y25367757D01*
X20685646Y25374696D01*
X20687381Y25385646D01*
X20704273Y25492303D01*
X20705492Y25500000D01*
X20703337Y25513604D01*
X20686865Y25617609D01*
X20686865Y25617610D01*
X20685646Y25625304D01*
X20682109Y25632246D01*
X20672607Y25650896D01*
X20663037Y25711328D01*
X20690814Y25765843D01*
X20729783Y25804812D01*
X20784300Y25832589D01*
X20844732Y25823018D01*
X20887997Y25779753D01*
X20897568Y25719322D01*
X20894508Y25700000D01*
X20895727Y25692303D01*
X20912620Y25585646D01*
X20914354Y25574696D01*
X20917890Y25567757D01*
X20917890Y25567756D01*
X20964207Y25476855D01*
X20971950Y25461658D01*
X21061658Y25371950D01*
X21068595Y25368415D01*
X21068597Y25368414D01*
X21158622Y25322544D01*
X21174696Y25314354D01*
X21182390Y25313135D01*
X21182391Y25313135D01*
X21292303Y25295727D01*
X21300000Y25294508D01*
X21307697Y25295727D01*
X21417609Y25313135D01*
X21417610Y25313135D01*
X21425304Y25314354D01*
X21441378Y25322544D01*
X21531403Y25368414D01*
X21531405Y25368415D01*
X21538342Y25371950D01*
X21628050Y25461658D01*
X21629915Y25459793D01*
X21669398Y25488485D01*
X21730583Y25488491D01*
X21770084Y25459792D01*
X21771950Y25461658D01*
X21861658Y25371950D01*
X21868595Y25368415D01*
X21868597Y25368414D01*
X21958622Y25322544D01*
X21974696Y25314354D01*
X21982390Y25313135D01*
X21982391Y25313135D01*
X22092303Y25295727D01*
X22100000Y25294508D01*
X22107697Y25295727D01*
X22217609Y25313135D01*
X22217610Y25313135D01*
X22225304Y25314354D01*
X22241378Y25322544D01*
X22331403Y25368414D01*
X22331405Y25368415D01*
X22338342Y25371950D01*
X22428050Y25461658D01*
X22435794Y25476855D01*
X22461790Y25527876D01*
X22505055Y25571141D01*
X22565487Y25580712D01*
X22620004Y25552934D01*
X22638210Y25527876D01*
X22664207Y25476855D01*
X22671950Y25461658D01*
X22761658Y25371950D01*
X22768596Y25368415D01*
X22768600Y25368412D01*
X22822556Y25340920D01*
X22865820Y25297656D01*
X22875391Y25237223D01*
X22847614Y25182707D01*
X20725349Y23060442D01*
X20722220Y23057742D01*
X20717731Y23055547D01*
X20711513Y23048844D01*
X20684107Y23019300D01*
X20681531Y23016624D01*
X20667752Y23002845D01*
X20665207Y22999135D01*
X20661771Y22995222D01*
X20641599Y22973476D01*
X20638948Y22966831D01*
X20627323Y22952295D01*
X20606615Y22931586D01*
X20604527Y22929498D01*
X20550011Y22901719D01*
X20534522Y22900500D01*
X20206356Y22900500D01*
X20148167Y22919406D01*
X20143848Y22922544D01*
X20138342Y22928050D01*
X20049189Y22973476D01*
X20032244Y22982110D01*
X20032243Y22982110D01*
X20025304Y22985646D01*
X20017610Y22986865D01*
X20017609Y22986865D01*
X19907697Y23004273D01*
X19900000Y23005492D01*
X19892303Y23004273D01*
X19782391Y22986865D01*
X19782390Y22986865D01*
X19774696Y22985646D01*
X19767757Y22982110D01*
X19767756Y22982110D01*
X19668597Y22931586D01*
X19668595Y22931585D01*
X19661658Y22928050D01*
X19571950Y22838342D01*
X19568415Y22831405D01*
X19568414Y22831403D01*
X19538121Y22771950D01*
X19514354Y22725304D01*
X19513135Y22717610D01*
X19513135Y22717609D01*
X19500359Y22636942D01*
X19494508Y22600000D01*
X19495727Y22592303D01*
X19498079Y22577456D01*
X19514354Y22474696D01*
X19517890Y22467757D01*
X19517890Y22467756D01*
X19565900Y22373532D01*
X19571950Y22361658D01*
X19661658Y22271950D01*
X19668595Y22268415D01*
X19668597Y22268414D01*
X19714897Y22244823D01*
X19774696Y22214354D01*
X19782390Y22213135D01*
X19782391Y22213135D01*
X19892303Y22195727D01*
X19900000Y22194508D01*
X19907697Y22195727D01*
X20017609Y22213135D01*
X20017610Y22213135D01*
X20025304Y22214354D01*
X20138342Y22271950D01*
X20143849Y22277457D01*
X20148167Y22280594D01*
X20206356Y22299500D01*
X20646492Y22299500D01*
X20650617Y22299197D01*
X20655342Y22297575D01*
X20704761Y22299430D01*
X20708474Y22299500D01*
X20727948Y22299500D01*
X20732378Y22300325D01*
X20737571Y22300661D01*
X20753602Y22301263D01*
X20758075Y22301431D01*
X20767208Y22301774D01*
X20775603Y22305381D01*
X20784524Y22307391D01*
X20784936Y22305564D01*
X20834532Y22310124D01*
X20887117Y22278844D01*
X20911273Y22222629D01*
X20910470Y22198078D01*
X20910098Y22195727D01*
X20896929Y22112579D01*
X20916775Y21987275D01*
X20974371Y21874237D01*
X21064079Y21784529D01*
X21071016Y21780994D01*
X21071018Y21780993D01*
X21170177Y21730469D01*
X21177117Y21726933D01*
X21184811Y21725714D01*
X21184812Y21725714D01*
X21294724Y21708306D01*
X21302421Y21707087D01*
X21310118Y21708306D01*
X21420030Y21725714D01*
X21420031Y21725714D01*
X21427725Y21726933D01*
X21434665Y21730469D01*
X21533824Y21780993D01*
X21533826Y21780994D01*
X21540763Y21784529D01*
X21630471Y21874237D01*
X21688067Y21987275D01*
X21707913Y22112579D01*
X21694744Y22195727D01*
X21689286Y22230188D01*
X21689286Y22230189D01*
X21688067Y22237883D01*
X21630471Y22350921D01*
X21624964Y22356428D01*
X21621827Y22360746D01*
X21602921Y22418935D01*
X21602921Y22636942D01*
X21621828Y22695133D01*
X21631917Y22706946D01*
X22024971Y23100000D01*
X27994508Y23100000D01*
X27995727Y23092303D01*
X28012620Y22985646D01*
X28014354Y22974696D01*
X28017890Y22967757D01*
X28017890Y22967756D01*
X28056336Y22892303D01*
X28071950Y22861658D01*
X28161658Y22771950D01*
X28168595Y22768415D01*
X28168597Y22768414D01*
X28267756Y22717890D01*
X28274696Y22714354D01*
X28282390Y22713135D01*
X28282391Y22713135D01*
X28392303Y22695727D01*
X28400000Y22694508D01*
X28407697Y22695727D01*
X28517609Y22713135D01*
X28517610Y22713135D01*
X28525304Y22714354D01*
X28532244Y22717890D01*
X28631403Y22768414D01*
X28631405Y22768415D01*
X28638342Y22771950D01*
X28728050Y22861658D01*
X28743665Y22892303D01*
X28782110Y22967756D01*
X28782110Y22967757D01*
X28785646Y22974696D01*
X28787381Y22985646D01*
X28804273Y23092303D01*
X28805492Y23100000D01*
X28785646Y23225304D01*
X28728050Y23338342D01*
X28638342Y23428050D01*
X28631405Y23431585D01*
X28631403Y23431586D01*
X28532244Y23482110D01*
X28532243Y23482110D01*
X28525304Y23485646D01*
X28517610Y23486865D01*
X28517609Y23486865D01*
X28407697Y23504273D01*
X28400000Y23505492D01*
X28392303Y23504273D01*
X28282391Y23486865D01*
X28282390Y23486865D01*
X28274696Y23485646D01*
X28267757Y23482110D01*
X28267756Y23482110D01*
X28168597Y23431586D01*
X28168595Y23431585D01*
X28161658Y23428050D01*
X28071950Y23338342D01*
X28014354Y23225304D01*
X27994508Y23100000D01*
X22024971Y23100000D01*
X23124971Y24200000D01*
X28694508Y24200000D01*
X28695727Y24192303D01*
X28707300Y24119236D01*
X28714354Y24074696D01*
X28717890Y24067757D01*
X28717890Y24067756D01*
X28767500Y23970392D01*
X28771950Y23961658D01*
X28861658Y23871950D01*
X28868595Y23868415D01*
X28868597Y23868414D01*
X28916850Y23843828D01*
X28974696Y23814354D01*
X28982390Y23813135D01*
X28982391Y23813135D01*
X29092303Y23795727D01*
X29100000Y23794508D01*
X29107697Y23795727D01*
X29217609Y23813135D01*
X29217610Y23813135D01*
X29225304Y23814354D01*
X29283150Y23843828D01*
X29331403Y23868414D01*
X29331405Y23868415D01*
X29338342Y23871950D01*
X29428050Y23961658D01*
X29432501Y23970392D01*
X29482110Y24067756D01*
X29482110Y24067757D01*
X29485646Y24074696D01*
X29492701Y24119236D01*
X29504273Y24192303D01*
X29505492Y24200000D01*
X29496162Y24258911D01*
X29486865Y24317609D01*
X29486865Y24317610D01*
X29485646Y24325304D01*
X29467123Y24361658D01*
X29431586Y24431403D01*
X29431585Y24431405D01*
X29428050Y24438342D01*
X29338342Y24528050D01*
X29331405Y24531585D01*
X29331403Y24531586D01*
X29232244Y24582110D01*
X29232243Y24582110D01*
X29225304Y24585646D01*
X29217610Y24586865D01*
X29217609Y24586865D01*
X29107697Y24604273D01*
X29100000Y24605492D01*
X29092303Y24604273D01*
X28982391Y24586865D01*
X28982390Y24586865D01*
X28974696Y24585646D01*
X28967757Y24582110D01*
X28967756Y24582110D01*
X28868597Y24531586D01*
X28868595Y24531585D01*
X28861658Y24528050D01*
X28771950Y24438342D01*
X28768415Y24431405D01*
X28768414Y24431403D01*
X28732877Y24361658D01*
X28714354Y24325304D01*
X28713135Y24317610D01*
X28713135Y24317609D01*
X28703838Y24258911D01*
X28694508Y24200000D01*
X23124971Y24200000D01*
X24993055Y26068083D01*
X25047572Y26095860D01*
X25063059Y26097079D01*
X26840324Y26097079D01*
X26898515Y26078172D01*
X26934479Y26028672D01*
X26934479Y25967486D01*
X26928534Y25953134D01*
X26914354Y25925304D01*
X26913135Y25917610D01*
X26913135Y25917609D01*
X26896873Y25814934D01*
X26894508Y25800000D01*
X26895727Y25792303D01*
X26905373Y25731403D01*
X26914354Y25674696D01*
X26917890Y25667757D01*
X26917890Y25667756D01*
X26965307Y25574696D01*
X26971950Y25561658D01*
X27061658Y25471950D01*
X27068595Y25468415D01*
X27068597Y25468414D01*
X27167756Y25417890D01*
X27174696Y25414354D01*
X27182390Y25413135D01*
X27182391Y25413135D01*
X27292303Y25395727D01*
X27300000Y25394508D01*
X27307697Y25395727D01*
X27417609Y25413135D01*
X27417610Y25413135D01*
X27425304Y25414354D01*
X27432244Y25417890D01*
X27531403Y25468414D01*
X27531405Y25468415D01*
X27538342Y25471950D01*
X27579996Y25513604D01*
X27634513Y25541381D01*
X27694945Y25531810D01*
X27720004Y25513604D01*
X27761658Y25471950D01*
X27768595Y25468415D01*
X27768597Y25468414D01*
X27867756Y25417890D01*
X27874696Y25414354D01*
X27882390Y25413135D01*
X27882391Y25413135D01*
X27992303Y25395727D01*
X28000000Y25394508D01*
X28007697Y25395727D01*
X28117609Y25413135D01*
X28117610Y25413135D01*
X28125304Y25414354D01*
X28132244Y25417890D01*
X28231403Y25468414D01*
X28231405Y25468415D01*
X28238342Y25471950D01*
X28328050Y25561658D01*
X28334694Y25574696D01*
X28382110Y25667756D01*
X28382110Y25667757D01*
X28385646Y25674696D01*
X28394628Y25731403D01*
X28404273Y25792303D01*
X28405492Y25800000D01*
X28403127Y25814934D01*
X28386865Y25917609D01*
X28386865Y25917610D01*
X28385646Y25925304D01*
X28371466Y25953134D01*
X28361895Y26013566D01*
X28389673Y26068083D01*
X28444189Y26095860D01*
X28459676Y26097079D01*
X34133913Y26097079D01*
X34138038Y26096776D01*
X34142763Y26095154D01*
X34192182Y26097009D01*
X34195895Y26097079D01*
X34215369Y26097079D01*
X34219799Y26097904D01*
X34224992Y26098240D01*
X34241023Y26098842D01*
X34245496Y26099010D01*
X34254629Y26099353D01*
X34263023Y26102959D01*
X34263026Y26102960D01*
X34265204Y26103896D01*
X34286155Y26110262D01*
X34297474Y26112370D01*
X34320150Y26126347D01*
X34333017Y26133031D01*
X34351063Y26140784D01*
X34351064Y26140785D01*
X34357484Y26143543D01*
X34362370Y26147557D01*
X34366734Y26151921D01*
X34384789Y26166192D01*
X34392769Y26171111D01*
X34410439Y26194348D01*
X34419231Y26204418D01*
X34502821Y26288008D01*
X34557338Y26315785D01*
X34620030Y26325714D01*
X34620032Y26325715D01*
X34627725Y26326933D01*
X34634665Y26330469D01*
X34733824Y26380993D01*
X34733826Y26380994D01*
X34740763Y26384529D01*
X34830471Y26474237D01*
X34888067Y26587275D01*
X34905617Y26698079D01*
X34906694Y26704882D01*
X34907913Y26712579D01*
X34897638Y26777456D01*
X34889286Y26830188D01*
X34889286Y26830189D01*
X34888067Y26837883D01*
X34884531Y26844823D01*
X34834007Y26943982D01*
X34834006Y26943984D01*
X34830471Y26950921D01*
X34740763Y27040629D01*
X34733826Y27044164D01*
X34733824Y27044165D01*
X34634665Y27094689D01*
X34634664Y27094689D01*
X34627725Y27098225D01*
X34620031Y27099444D01*
X34620030Y27099444D01*
X34616519Y27100000D01*
X35294508Y27100000D01*
X35295727Y27092303D01*
X35312424Y26986884D01*
X35314354Y26974696D01*
X35317890Y26967757D01*
X35317890Y26967756D01*
X35353485Y26897898D01*
X35371950Y26861658D01*
X35461658Y26771950D01*
X35468595Y26768415D01*
X35468597Y26768414D01*
X35563073Y26720276D01*
X35574696Y26714354D01*
X35582390Y26713135D01*
X35582391Y26713135D01*
X35692303Y26695727D01*
X35700000Y26694508D01*
X35707697Y26695727D01*
X35817609Y26713135D01*
X35817610Y26713135D01*
X35825304Y26714354D01*
X35836927Y26720276D01*
X35931403Y26768414D01*
X35931405Y26768415D01*
X35938342Y26771950D01*
X36028050Y26861658D01*
X36046516Y26897898D01*
X36082110Y26967756D01*
X36082110Y26967757D01*
X36085646Y26974696D01*
X36087577Y26986884D01*
X36104273Y27092303D01*
X36105492Y27100000D01*
X36085646Y27225304D01*
X36028050Y27338342D01*
X35938342Y27428050D01*
X35931405Y27431585D01*
X35931403Y27431586D01*
X35832244Y27482110D01*
X35832243Y27482110D01*
X35825304Y27485646D01*
X35817610Y27486865D01*
X35817609Y27486865D01*
X35707697Y27504273D01*
X35700000Y27505492D01*
X35692303Y27504273D01*
X35582391Y27486865D01*
X35582390Y27486865D01*
X35574696Y27485646D01*
X35567757Y27482110D01*
X35567756Y27482110D01*
X35468597Y27431586D01*
X35468595Y27431585D01*
X35461658Y27428050D01*
X35371950Y27338342D01*
X35314354Y27225304D01*
X35294508Y27100000D01*
X34616519Y27100000D01*
X34510118Y27116852D01*
X34502421Y27118071D01*
X34494724Y27116852D01*
X34384812Y27099444D01*
X34384811Y27099444D01*
X34377117Y27098225D01*
X34370178Y27094689D01*
X34370177Y27094689D01*
X34271018Y27044165D01*
X34271016Y27044164D01*
X34264079Y27040629D01*
X34174371Y26950921D01*
X34170836Y26943984D01*
X34170835Y26943982D01*
X34120311Y26844823D01*
X34116775Y26837883D01*
X34115557Y26830190D01*
X34115556Y26830188D01*
X34107860Y26781593D01*
X34080083Y26727076D01*
X34025567Y26699298D01*
X34010079Y26698079D01*
X28962058Y26698079D01*
X28903867Y26716986D01*
X28867903Y26766486D01*
X28867903Y26827672D01*
X28892054Y26867083D01*
X29995475Y27970504D01*
X30049992Y27998281D01*
X30065479Y27999500D01*
X34193644Y27999500D01*
X34251833Y27980594D01*
X34256151Y27977457D01*
X34261658Y27971950D01*
X34268599Y27968414D01*
X34268598Y27968414D01*
X34341236Y27931403D01*
X34374696Y27914354D01*
X34382390Y27913135D01*
X34382391Y27913135D01*
X34492303Y27895727D01*
X34500000Y27894508D01*
X34507697Y27895727D01*
X34617609Y27913135D01*
X34617610Y27913135D01*
X34625304Y27914354D01*
X34632244Y27917890D01*
X34731403Y27968414D01*
X34731405Y27968415D01*
X34738342Y27971950D01*
X34828050Y28061658D01*
X34843665Y28092303D01*
X34882110Y28167756D01*
X34882110Y28167757D01*
X34885646Y28174696D01*
X34890743Y28206874D01*
X34904273Y28292303D01*
X34905492Y28300000D01*
X34898547Y28343848D01*
X34886865Y28417609D01*
X34886865Y28417610D01*
X34885646Y28425304D01*
X34863587Y28468597D01*
X34831586Y28531403D01*
X34831585Y28531405D01*
X34828050Y28538342D01*
X34738342Y28628050D01*
X34731405Y28631585D01*
X34731403Y28631586D01*
X34632244Y28682110D01*
X34632243Y28682110D01*
X34625304Y28685646D01*
X34617610Y28686865D01*
X34617609Y28686865D01*
X34507697Y28704273D01*
X34500000Y28705492D01*
X34492303Y28704273D01*
X34382391Y28686865D01*
X34382390Y28686865D01*
X34374696Y28685646D01*
X34367757Y28682110D01*
X34367756Y28682110D01*
X34347816Y28671950D01*
X34261658Y28628050D01*
X34256152Y28622544D01*
X34251833Y28619406D01*
X34193644Y28600500D01*
X30264479Y28600500D01*
X30206288Y28619407D01*
X30170324Y28668907D01*
X30170324Y28730093D01*
X30194475Y28769504D01*
X30600400Y29175429D01*
X30654917Y29203206D01*
X30717609Y29213135D01*
X30717611Y29213136D01*
X30725304Y29214354D01*
X30732244Y29217890D01*
X30831403Y29268414D01*
X30831405Y29268415D01*
X30838342Y29271950D01*
X30928050Y29361658D01*
X30935202Y29375693D01*
X30982110Y29467756D01*
X30982110Y29467757D01*
X30985646Y29474696D01*
X30988395Y29492049D01*
X31004273Y29592303D01*
X31005492Y29600000D01*
X31003718Y29611202D01*
X30986865Y29717609D01*
X30986865Y29717610D01*
X30985646Y29725304D01*
X30938471Y29817890D01*
X30931586Y29831403D01*
X30931585Y29831405D01*
X30928050Y29838342D01*
X30865686Y29900706D01*
X30837909Y29955223D01*
X30847480Y30015655D01*
X30865686Y30040714D01*
X30924972Y30100000D01*
X35294508Y30100000D01*
X35295727Y30092303D01*
X35309546Y30005055D01*
X35314354Y29974696D01*
X35317890Y29967757D01*
X35317890Y29967756D01*
X35356235Y29892501D01*
X35371950Y29861658D01*
X35461658Y29771950D01*
X35468595Y29768415D01*
X35468597Y29768414D01*
X35567756Y29717890D01*
X35574696Y29714354D01*
X35582390Y29713135D01*
X35582391Y29713135D01*
X35692303Y29695727D01*
X35700000Y29694508D01*
X35707697Y29695727D01*
X35734676Y29700000D01*
X38494508Y29700000D01*
X38495727Y29692303D01*
X38505904Y29628050D01*
X38514354Y29574696D01*
X38517890Y29567757D01*
X38517890Y29567756D01*
X38567956Y29469497D01*
X38571950Y29461658D01*
X38661658Y29371950D01*
X38668595Y29368415D01*
X38668597Y29368414D01*
X38714858Y29344843D01*
X38774696Y29314354D01*
X38782390Y29313135D01*
X38782391Y29313135D01*
X38892303Y29295727D01*
X38900000Y29294508D01*
X38907697Y29295727D01*
X39017609Y29313135D01*
X39017610Y29313135D01*
X39025304Y29314354D01*
X39085142Y29344843D01*
X39131403Y29368414D01*
X39131405Y29368415D01*
X39138342Y29371950D01*
X39228050Y29461658D01*
X39232045Y29469497D01*
X39282110Y29567756D01*
X39282110Y29567757D01*
X39285646Y29574696D01*
X39294097Y29628050D01*
X39304273Y29692303D01*
X39305492Y29700000D01*
X39295396Y29763743D01*
X39286865Y29817609D01*
X39286865Y29817610D01*
X39285646Y29825304D01*
X39259073Y29877456D01*
X39231586Y29931403D01*
X39231585Y29931405D01*
X39228050Y29938342D01*
X39186396Y29979996D01*
X39158619Y30034513D01*
X39168190Y30094945D01*
X39186396Y30120004D01*
X39228050Y30161658D01*
X39243665Y30192303D01*
X39282110Y30267756D01*
X39282110Y30267757D01*
X39285646Y30274696D01*
X39287943Y30289195D01*
X39304273Y30392303D01*
X39305492Y30400000D01*
X39304273Y30407697D01*
X39286865Y30517609D01*
X39286865Y30517610D01*
X39285646Y30525304D01*
X39261879Y30571950D01*
X39231586Y30631403D01*
X39231585Y30631405D01*
X39228050Y30638342D01*
X39138342Y30728050D01*
X39131405Y30731585D01*
X39131403Y30731586D01*
X39032244Y30782110D01*
X39032243Y30782110D01*
X39025304Y30785646D01*
X39017610Y30786865D01*
X39017609Y30786865D01*
X38907697Y30804273D01*
X38900000Y30805492D01*
X38892303Y30804273D01*
X38782391Y30786865D01*
X38782390Y30786865D01*
X38774696Y30785646D01*
X38767757Y30782110D01*
X38767756Y30782110D01*
X38668597Y30731586D01*
X38668595Y30731585D01*
X38661658Y30728050D01*
X38571950Y30638342D01*
X38568415Y30631405D01*
X38568414Y30631403D01*
X38538121Y30571950D01*
X38514354Y30525304D01*
X38513135Y30517610D01*
X38513135Y30517609D01*
X38495727Y30407697D01*
X38494508Y30400000D01*
X38495727Y30392303D01*
X38512058Y30289195D01*
X38514354Y30274696D01*
X38517890Y30267757D01*
X38517890Y30267756D01*
X38556336Y30192303D01*
X38571950Y30161658D01*
X38613604Y30120004D01*
X38641381Y30065487D01*
X38631810Y30005055D01*
X38613604Y29979996D01*
X38571950Y29938342D01*
X38568415Y29931405D01*
X38568414Y29931403D01*
X38540927Y29877456D01*
X38514354Y29825304D01*
X38513135Y29817610D01*
X38513135Y29817609D01*
X38504604Y29763743D01*
X38494508Y29700000D01*
X35734676Y29700000D01*
X35817609Y29713135D01*
X35817610Y29713135D01*
X35825304Y29714354D01*
X35832244Y29717890D01*
X35931403Y29768414D01*
X35931405Y29768415D01*
X35938342Y29771950D01*
X36028050Y29861658D01*
X36043766Y29892501D01*
X36082110Y29967756D01*
X36082110Y29967757D01*
X36085646Y29974696D01*
X36090455Y30005055D01*
X36104273Y30092303D01*
X36105492Y30100000D01*
X36096954Y30153907D01*
X36086865Y30217609D01*
X36086865Y30217610D01*
X36085646Y30225304D01*
X36062887Y30269971D01*
X36031586Y30331403D01*
X36031585Y30331405D01*
X36028050Y30338342D01*
X35938342Y30428050D01*
X35931405Y30431585D01*
X35931403Y30431586D01*
X35832244Y30482110D01*
X35832243Y30482110D01*
X35825304Y30485646D01*
X35817610Y30486865D01*
X35817609Y30486865D01*
X35707697Y30504273D01*
X35700000Y30505492D01*
X35692303Y30504273D01*
X35582391Y30486865D01*
X35582390Y30486865D01*
X35574696Y30485646D01*
X35567757Y30482110D01*
X35567756Y30482110D01*
X35468597Y30431586D01*
X35468595Y30431585D01*
X35461658Y30428050D01*
X35371950Y30338342D01*
X35368415Y30331405D01*
X35368414Y30331403D01*
X35337113Y30269971D01*
X35314354Y30225304D01*
X35313135Y30217610D01*
X35313135Y30217609D01*
X35303046Y30153907D01*
X35294508Y30100000D01*
X30924972Y30100000D01*
X33500400Y32675429D01*
X33554917Y32703206D01*
X33617609Y32713135D01*
X33617611Y32713136D01*
X33625304Y32714354D01*
X33632244Y32717890D01*
X33731403Y32768414D01*
X33731405Y32768415D01*
X33738342Y32771950D01*
X33828050Y32861658D01*
X33843665Y32892303D01*
X33882110Y32967756D01*
X33882110Y32967757D01*
X33885646Y32974696D01*
X33893662Y33025304D01*
X33904273Y33092303D01*
X33905492Y33100000D01*
X33896794Y33154917D01*
X33886865Y33217609D01*
X33886865Y33217610D01*
X33885646Y33225304D01*
X33864016Y33267756D01*
X33831586Y33331403D01*
X33831585Y33331405D01*
X33828050Y33338342D01*
X33738342Y33428050D01*
X33731405Y33431585D01*
X33731403Y33431586D01*
X33632244Y33482110D01*
X33632243Y33482110D01*
X33625304Y33485646D01*
X33617610Y33486865D01*
X33617609Y33486865D01*
X33507697Y33504273D01*
X33500000Y33505492D01*
X33492303Y33504273D01*
X33382391Y33486865D01*
X33382390Y33486865D01*
X33374696Y33485646D01*
X33367757Y33482110D01*
X33367756Y33482110D01*
X33268597Y33431586D01*
X33268595Y33431585D01*
X33261658Y33428050D01*
X33171950Y33338342D01*
X33168415Y33331405D01*
X33168414Y33331403D01*
X33135984Y33267756D01*
X33114354Y33225304D01*
X33113136Y33217611D01*
X33113135Y33217609D01*
X33103206Y33154917D01*
X33075429Y33100400D01*
X30360578Y30385549D01*
X30329624Y30364580D01*
X30327504Y30363670D01*
X30306582Y30357317D01*
X30304255Y30356884D01*
X30304250Y30356882D01*
X30295266Y30355209D01*
X30276835Y30343848D01*
X30272591Y30341232D01*
X30259723Y30334548D01*
X30241677Y30326795D01*
X30241676Y30326794D01*
X30235256Y30324036D01*
X30230370Y30320022D01*
X30226006Y30315658D01*
X30207951Y30301387D01*
X30199971Y30296468D01*
X30182301Y30273231D01*
X30173509Y30263161D01*
X29409844Y29499496D01*
X29355327Y29471719D01*
X29339840Y29470500D01*
X25991166Y29470500D01*
X25987042Y29470803D01*
X25982317Y29472425D01*
X25940991Y29470873D01*
X25932909Y29470570D01*
X25929195Y29470500D01*
X25909711Y29470500D01*
X25905279Y29469675D01*
X25900089Y29469338D01*
X25870450Y29468225D01*
X25859878Y29463683D01*
X25838925Y29457317D01*
X25836593Y29456883D01*
X25836591Y29456882D01*
X25827606Y29455209D01*
X25804927Y29441229D01*
X25792066Y29434549D01*
X25767596Y29424036D01*
X25762710Y29420022D01*
X25758346Y29415658D01*
X25740291Y29401387D01*
X25732311Y29396468D01*
X25714641Y29373231D01*
X25705849Y29363161D01*
X23372184Y27029496D01*
X23317667Y27001719D01*
X23302180Y27000500D01*
X20153508Y27000500D01*
X20149383Y27000803D01*
X20144658Y27002425D01*
X20095238Y27000570D01*
X20091525Y27000500D01*
X20072052Y27000500D01*
X20067622Y26999675D01*
X20062429Y26999339D01*
X20043298Y26998621D01*
X20041926Y26998569D01*
X20032791Y26998226D01*
X20024394Y26994618D01*
X20024393Y26994618D01*
X20022212Y26993681D01*
X20001263Y26987317D01*
X19998936Y26986884D01*
X19998931Y26986882D01*
X19989947Y26985209D01*
X19972892Y26974696D01*
X19967272Y26971232D01*
X19954404Y26964548D01*
X19936358Y26956795D01*
X19936357Y26956794D01*
X19929937Y26954036D01*
X19925051Y26950022D01*
X19920687Y26945658D01*
X19902632Y26931387D01*
X19894652Y26926468D01*
X19876982Y26903231D01*
X19868190Y26893161D01*
X18899600Y25924571D01*
X18845083Y25896794D01*
X18782391Y25886865D01*
X18782389Y25886864D01*
X18774696Y25885646D01*
X18767757Y25882110D01*
X18767756Y25882110D01*
X18668597Y25831586D01*
X18668595Y25831585D01*
X18661658Y25828050D01*
X18571950Y25738342D01*
X18568415Y25731405D01*
X18568414Y25731403D01*
X18535984Y25667756D01*
X18514354Y25625304D01*
X18513135Y25617610D01*
X18513135Y25617609D01*
X18496663Y25513604D01*
X18494508Y25500000D01*
X4966392Y25500000D01*
X4938342Y25528050D01*
X4931405Y25531585D01*
X4931403Y25531586D01*
X4832244Y25582110D01*
X4832243Y25582110D01*
X4825304Y25585646D01*
X4817610Y25586865D01*
X4817609Y25586865D01*
X4707697Y25604273D01*
X4700000Y25605492D01*
X4692303Y25604273D01*
X4582391Y25586865D01*
X4582390Y25586865D01*
X4574696Y25585646D01*
X4567757Y25582110D01*
X4567756Y25582110D01*
X4468597Y25531586D01*
X4468595Y25531585D01*
X4461658Y25528050D01*
X4371950Y25438342D01*
X4368415Y25431405D01*
X4368414Y25431403D01*
X4338121Y25371950D01*
X4314354Y25325304D01*
X4313135Y25317610D01*
X4313135Y25317609D01*
X4301453Y25243848D01*
X4294508Y25200000D01*
X4047586Y25200000D01*
X4031586Y25231403D01*
X4031585Y25231405D01*
X4028050Y25238342D01*
X3938342Y25328050D01*
X3931405Y25331585D01*
X3931403Y25331586D01*
X3832244Y25382110D01*
X3832243Y25382110D01*
X3825304Y25385646D01*
X3817610Y25386865D01*
X3817609Y25386865D01*
X3707697Y25404273D01*
X3700000Y25405492D01*
X3692303Y25404273D01*
X3582391Y25386865D01*
X3582390Y25386865D01*
X3574696Y25385646D01*
X3567757Y25382110D01*
X3567756Y25382110D01*
X3468597Y25331586D01*
X3468595Y25331585D01*
X3461658Y25328050D01*
X3371950Y25238342D01*
X3368415Y25231405D01*
X3368414Y25231403D01*
X3348492Y25192303D01*
X3314354Y25125304D01*
X3313135Y25117610D01*
X3313135Y25117609D01*
X3305239Y25067756D01*
X3294508Y25000000D01*
X200500Y25000000D01*
X200500Y27700000D01*
X18294508Y27700000D01*
X18314354Y27574696D01*
X18317890Y27567757D01*
X18317890Y27567756D01*
X18364495Y27476290D01*
X18371950Y27461658D01*
X18461658Y27371950D01*
X18468595Y27368415D01*
X18468597Y27368414D01*
X18567756Y27317890D01*
X18574696Y27314354D01*
X18582390Y27313135D01*
X18582391Y27313135D01*
X18692303Y27295727D01*
X18700000Y27294508D01*
X18707697Y27295727D01*
X18817609Y27313135D01*
X18817610Y27313135D01*
X18825304Y27314354D01*
X18832244Y27317890D01*
X18931403Y27368414D01*
X18931405Y27368415D01*
X18938342Y27371950D01*
X19028050Y27461658D01*
X19035506Y27476290D01*
X19082110Y27567756D01*
X19082110Y27567757D01*
X19085646Y27574696D01*
X19105492Y27700000D01*
X19102659Y27717890D01*
X19086865Y27817609D01*
X19086865Y27817610D01*
X19085646Y27825304D01*
X19049764Y27895727D01*
X19031586Y27931403D01*
X19031585Y27931405D01*
X19028050Y27938342D01*
X18938342Y28028050D01*
X18931405Y28031585D01*
X18931403Y28031586D01*
X18832244Y28082110D01*
X18832243Y28082110D01*
X18825304Y28085646D01*
X18817610Y28086865D01*
X18817609Y28086865D01*
X18707697Y28104273D01*
X18700000Y28105492D01*
X18692303Y28104273D01*
X18582391Y28086865D01*
X18582390Y28086865D01*
X18574696Y28085646D01*
X18567757Y28082110D01*
X18567756Y28082110D01*
X18468597Y28031586D01*
X18468595Y28031585D01*
X18461658Y28028050D01*
X18371950Y27938342D01*
X18368415Y27931405D01*
X18368414Y27931403D01*
X18350236Y27895727D01*
X18314354Y27825304D01*
X18313135Y27817610D01*
X18313135Y27817609D01*
X18297341Y27717890D01*
X18294508Y27700000D01*
X200500Y27700000D01*
X200500Y29000000D01*
X4094508Y29000000D01*
X4095727Y28992303D01*
X4106339Y28925304D01*
X4114354Y28874696D01*
X4117890Y28867757D01*
X4117890Y28867756D01*
X4156336Y28792303D01*
X4171950Y28761658D01*
X4261658Y28671950D01*
X4268595Y28668415D01*
X4268597Y28668414D01*
X4340876Y28631586D01*
X4374696Y28614354D01*
X4382390Y28613135D01*
X4382391Y28613135D01*
X4492303Y28595727D01*
X4500000Y28594508D01*
X4507697Y28595727D01*
X4534676Y28600000D01*
X6494508Y28600000D01*
X6495727Y28592303D01*
X6512620Y28485646D01*
X6514354Y28474696D01*
X6517890Y28467757D01*
X6517890Y28467756D01*
X6561611Y28381950D01*
X6571950Y28361658D01*
X6661658Y28271950D01*
X6668595Y28268415D01*
X6668597Y28268414D01*
X6758622Y28222544D01*
X6774696Y28214354D01*
X6782390Y28213135D01*
X6782391Y28213135D01*
X6892303Y28195727D01*
X6900000Y28194508D01*
X6907697Y28195727D01*
X7017609Y28213135D01*
X7017610Y28213135D01*
X7025304Y28214354D01*
X7041378Y28222544D01*
X7131403Y28268414D01*
X7131405Y28268415D01*
X7138342Y28271950D01*
X7228050Y28361658D01*
X7238390Y28381950D01*
X7282110Y28467756D01*
X7282110Y28467757D01*
X7285646Y28474696D01*
X7287381Y28485646D01*
X7304273Y28592303D01*
X7305492Y28600000D01*
X7302659Y28617890D01*
X7289654Y28700000D01*
X19394508Y28700000D01*
X19395727Y28692303D01*
X19407273Y28619407D01*
X19414354Y28574696D01*
X19417890Y28567757D01*
X19417890Y28567756D01*
X19466855Y28471658D01*
X19471950Y28461658D01*
X19561658Y28371950D01*
X19568595Y28368415D01*
X19568597Y28368414D01*
X19648130Y28327890D01*
X19674696Y28314354D01*
X19682390Y28313135D01*
X19682391Y28313135D01*
X19792303Y28295727D01*
X19800000Y28294508D01*
X19807697Y28295727D01*
X19917609Y28313135D01*
X19917610Y28313135D01*
X19925304Y28314354D01*
X19951870Y28327890D01*
X20031403Y28368414D01*
X20031405Y28368415D01*
X20038342Y28371950D01*
X20128050Y28461658D01*
X20133146Y28471658D01*
X20148514Y28501821D01*
X20191779Y28545086D01*
X20252211Y28554657D01*
X20306728Y28526880D01*
X20361658Y28471950D01*
X20368595Y28468415D01*
X20368597Y28468414D01*
X20458622Y28422544D01*
X20474696Y28414354D01*
X20482390Y28413135D01*
X20482391Y28413135D01*
X20592303Y28395727D01*
X20600000Y28394508D01*
X20607697Y28395727D01*
X20717609Y28413135D01*
X20717610Y28413135D01*
X20725304Y28414354D01*
X20741378Y28422544D01*
X20831403Y28468414D01*
X20831405Y28468415D01*
X20838342Y28471950D01*
X20928050Y28561658D01*
X20934694Y28574696D01*
X20982110Y28667756D01*
X20982110Y28667757D01*
X20985646Y28674696D01*
X20987381Y28685646D01*
X21004273Y28792303D01*
X21005492Y28800000D01*
X21000385Y28832244D01*
X20986865Y28917609D01*
X20986865Y28917610D01*
X20985646Y28925304D01*
X20961879Y28971950D01*
X20931586Y29031403D01*
X20931585Y29031405D01*
X20928050Y29038342D01*
X20838342Y29128050D01*
X20831405Y29131585D01*
X20831403Y29131586D01*
X20732244Y29182110D01*
X20732243Y29182110D01*
X20725304Y29185646D01*
X20717610Y29186865D01*
X20717609Y29186865D01*
X20607697Y29204273D01*
X20600000Y29205492D01*
X20592303Y29204273D01*
X20482391Y29186865D01*
X20482390Y29186865D01*
X20474696Y29185646D01*
X20467757Y29182110D01*
X20467756Y29182110D01*
X20368597Y29131586D01*
X20368595Y29131585D01*
X20361658Y29128050D01*
X20271950Y29038342D01*
X20268415Y29031405D01*
X20268414Y29031403D01*
X20251486Y28998179D01*
X20208221Y28954914D01*
X20147789Y28945343D01*
X20093272Y28973120D01*
X20038342Y29028050D01*
X20031405Y29031585D01*
X20031403Y29031586D01*
X19932244Y29082110D01*
X19932243Y29082110D01*
X19925304Y29085646D01*
X19917610Y29086865D01*
X19917609Y29086865D01*
X19807697Y29104273D01*
X19800000Y29105492D01*
X19792303Y29104273D01*
X19682391Y29086865D01*
X19682390Y29086865D01*
X19674696Y29085646D01*
X19667757Y29082110D01*
X19667756Y29082110D01*
X19568597Y29031586D01*
X19568595Y29031585D01*
X19561658Y29028050D01*
X19471950Y28938342D01*
X19468415Y28931405D01*
X19468414Y28931403D01*
X19436873Y28869500D01*
X19414354Y28825304D01*
X19413135Y28817610D01*
X19413135Y28817609D01*
X19399615Y28732244D01*
X19394508Y28700000D01*
X7289654Y28700000D01*
X7286865Y28717609D01*
X7286865Y28717610D01*
X7285646Y28725304D01*
X7282110Y28732244D01*
X7231586Y28831403D01*
X7231585Y28831405D01*
X7228050Y28838342D01*
X7138342Y28928050D01*
X7131405Y28931585D01*
X7131403Y28931586D01*
X7032244Y28982110D01*
X7032243Y28982110D01*
X7025304Y28985646D01*
X7017610Y28986865D01*
X7017609Y28986865D01*
X6907697Y29004273D01*
X6900000Y29005492D01*
X6892303Y29004273D01*
X6782391Y28986865D01*
X6782390Y28986865D01*
X6774696Y28985646D01*
X6767757Y28982110D01*
X6767756Y28982110D01*
X6668597Y28931586D01*
X6668595Y28931585D01*
X6661658Y28928050D01*
X6571950Y28838342D01*
X6568415Y28831405D01*
X6568414Y28831403D01*
X6517890Y28732244D01*
X6514354Y28725304D01*
X6513135Y28717610D01*
X6513135Y28717609D01*
X6497341Y28617890D01*
X6494508Y28600000D01*
X4534676Y28600000D01*
X4617609Y28613135D01*
X4617610Y28613135D01*
X4625304Y28614354D01*
X4659124Y28631586D01*
X4731403Y28668414D01*
X4731405Y28668415D01*
X4738342Y28671950D01*
X4828050Y28761658D01*
X4843665Y28792303D01*
X4882110Y28867756D01*
X4882110Y28867757D01*
X4885646Y28874696D01*
X4893662Y28925304D01*
X4904273Y28992303D01*
X4905492Y29000000D01*
X4904273Y29007697D01*
X4886865Y29117609D01*
X4886865Y29117610D01*
X4885646Y29125304D01*
X4882110Y29132244D01*
X4882109Y29132248D01*
X4871454Y29153159D01*
X4861883Y29213591D01*
X4889661Y29268107D01*
X4920346Y29288960D01*
X5033472Y29337915D01*
X5033476Y29337918D01*
X5039668Y29340597D01*
X5150496Y29430343D01*
X5233106Y29546587D01*
X5235390Y29552932D01*
X5235392Y29552935D01*
X5279125Y29674410D01*
X5281413Y29680764D01*
X5282261Y29692303D01*
X5282826Y29700000D01*
X11994508Y29700000D01*
X11995727Y29692303D01*
X12005904Y29628050D01*
X12014354Y29574696D01*
X12017890Y29567757D01*
X12017890Y29567756D01*
X12067956Y29469497D01*
X12071950Y29461658D01*
X12161658Y29371950D01*
X12168595Y29368415D01*
X12168597Y29368414D01*
X12214858Y29344843D01*
X12274696Y29314354D01*
X12282390Y29313135D01*
X12282391Y29313135D01*
X12392303Y29295727D01*
X12400000Y29294508D01*
X12407697Y29295727D01*
X12434676Y29300000D01*
X24194508Y29300000D01*
X24195727Y29292303D01*
X24212620Y29185646D01*
X24214354Y29174696D01*
X24217890Y29167757D01*
X24217890Y29167756D01*
X24239521Y29125304D01*
X24271950Y29061658D01*
X24361658Y28971950D01*
X24368595Y28968415D01*
X24368597Y28968414D01*
X24458622Y28922544D01*
X24474696Y28914354D01*
X24482390Y28913135D01*
X24482391Y28913135D01*
X24592303Y28895727D01*
X24600000Y28894508D01*
X24607697Y28895727D01*
X24717609Y28913135D01*
X24717610Y28913135D01*
X24725304Y28914354D01*
X24741378Y28922544D01*
X24831403Y28968414D01*
X24831405Y28968415D01*
X24838342Y28971950D01*
X24928050Y29061658D01*
X24960480Y29125304D01*
X24982110Y29167756D01*
X24982110Y29167757D01*
X24985646Y29174696D01*
X24987381Y29185646D01*
X25004273Y29292303D01*
X25005492Y29300000D01*
X25002659Y29317890D01*
X24986865Y29417609D01*
X24986865Y29417610D01*
X24985646Y29425304D01*
X24981483Y29433475D01*
X24931586Y29531403D01*
X24931585Y29531405D01*
X24928050Y29538342D01*
X24838342Y29628050D01*
X24831405Y29631585D01*
X24831403Y29631586D01*
X24732244Y29682110D01*
X24732243Y29682110D01*
X24725304Y29685646D01*
X24717610Y29686865D01*
X24717609Y29686865D01*
X24607697Y29704273D01*
X24600000Y29705492D01*
X24592303Y29704273D01*
X24482391Y29686865D01*
X24482390Y29686865D01*
X24474696Y29685646D01*
X24467757Y29682110D01*
X24467756Y29682110D01*
X24368597Y29631586D01*
X24368595Y29631585D01*
X24361658Y29628050D01*
X24271950Y29538342D01*
X24268415Y29531405D01*
X24268414Y29531403D01*
X24218517Y29433475D01*
X24214354Y29425304D01*
X24213135Y29417610D01*
X24213135Y29417609D01*
X24197341Y29317890D01*
X24194508Y29300000D01*
X12434676Y29300000D01*
X12517609Y29313135D01*
X12517610Y29313135D01*
X12525304Y29314354D01*
X12585142Y29344843D01*
X12631403Y29368414D01*
X12631405Y29368415D01*
X12638342Y29371950D01*
X12728050Y29461658D01*
X12732045Y29469497D01*
X12782110Y29567756D01*
X12782110Y29567757D01*
X12785646Y29574696D01*
X12794097Y29628050D01*
X12804273Y29692303D01*
X12805492Y29700000D01*
X12795396Y29763743D01*
X12786865Y29817609D01*
X12786865Y29817610D01*
X12785646Y29825304D01*
X12759073Y29877456D01*
X12731586Y29931403D01*
X12731585Y29931405D01*
X12728050Y29938342D01*
X12638342Y30028050D01*
X12631405Y30031585D01*
X12631403Y30031586D01*
X12532244Y30082110D01*
X12532243Y30082110D01*
X12525304Y30085646D01*
X12517610Y30086865D01*
X12517609Y30086865D01*
X12407697Y30104273D01*
X12400000Y30105492D01*
X12392303Y30104273D01*
X12282391Y30086865D01*
X12282390Y30086865D01*
X12274696Y30085646D01*
X12267757Y30082110D01*
X12267756Y30082110D01*
X12168597Y30031586D01*
X12168595Y30031585D01*
X12161658Y30028050D01*
X12071950Y29938342D01*
X12068415Y29931405D01*
X12068414Y29931403D01*
X12040927Y29877456D01*
X12014354Y29825304D01*
X12013135Y29817610D01*
X12013135Y29817609D01*
X12004604Y29763743D01*
X11994508Y29700000D01*
X5282826Y29700000D01*
X5291363Y29816257D01*
X5291363Y29816260D01*
X5291857Y29822990D01*
X5287652Y29843848D01*
X5275202Y29905590D01*
X5263670Y29962785D01*
X5198927Y30089849D01*
X5174741Y30116152D01*
X5106967Y30189855D01*
X5102399Y30194823D01*
X5094049Y30200000D01*
X9194508Y30200000D01*
X9195727Y30192303D01*
X9212907Y30083835D01*
X9214354Y30074696D01*
X9217890Y30067757D01*
X9217890Y30067756D01*
X9265307Y29974696D01*
X9271950Y29961658D01*
X9361658Y29871950D01*
X9368595Y29868415D01*
X9368597Y29868414D01*
X9457747Y29822990D01*
X9474696Y29814354D01*
X9482390Y29813135D01*
X9482391Y29813135D01*
X9592303Y29795727D01*
X9600000Y29794508D01*
X9607697Y29795727D01*
X9717609Y29813135D01*
X9717610Y29813135D01*
X9725304Y29814354D01*
X9742253Y29822990D01*
X9831403Y29868414D01*
X9831405Y29868415D01*
X9838342Y29871950D01*
X9928050Y29961658D01*
X9934694Y29974696D01*
X9982110Y30067756D01*
X9982110Y30067757D01*
X9985646Y30074696D01*
X9987094Y30083835D01*
X10004273Y30192303D01*
X10005492Y30200000D01*
X9998778Y30242391D01*
X9986865Y30317609D01*
X9986865Y30317610D01*
X9985646Y30325304D01*
X9969555Y30356884D01*
X9967967Y30360000D01*
X27794508Y30360000D01*
X27795727Y30352303D01*
X27809846Y30263161D01*
X27814354Y30234696D01*
X27817890Y30227757D01*
X27817890Y30227756D01*
X27857684Y30149657D01*
X27871950Y30121658D01*
X27961658Y30031950D01*
X27968595Y30028415D01*
X27968597Y30028414D01*
X28063623Y29979996D01*
X28074696Y29974354D01*
X28082390Y29973135D01*
X28082391Y29973135D01*
X28192303Y29955727D01*
X28200000Y29954508D01*
X28207697Y29955727D01*
X28317609Y29973135D01*
X28317610Y29973135D01*
X28325304Y29974354D01*
X28336377Y29979996D01*
X28431403Y30028414D01*
X28431405Y30028415D01*
X28438342Y30031950D01*
X28528050Y30121658D01*
X28542317Y30149657D01*
X28582110Y30227756D01*
X28582110Y30227757D01*
X28585646Y30234696D01*
X28590155Y30263161D01*
X28604273Y30352303D01*
X28605492Y30360000D01*
X28602727Y30377456D01*
X28586865Y30477609D01*
X28586865Y30477610D01*
X28585646Y30485304D01*
X28578966Y30498414D01*
X28531586Y30591403D01*
X28531585Y30591405D01*
X28528050Y30598342D01*
X28438342Y30688050D01*
X28431405Y30691585D01*
X28431403Y30691586D01*
X28332244Y30742110D01*
X28332243Y30742110D01*
X28325304Y30745646D01*
X28317610Y30746865D01*
X28317609Y30746865D01*
X28207697Y30764273D01*
X28200000Y30765492D01*
X28192303Y30764273D01*
X28082391Y30746865D01*
X28082390Y30746865D01*
X28074696Y30745646D01*
X28067757Y30742110D01*
X28067756Y30742110D01*
X27968597Y30691586D01*
X27968595Y30691585D01*
X27961658Y30688050D01*
X27871950Y30598342D01*
X27868415Y30591405D01*
X27868414Y30591403D01*
X27821034Y30498414D01*
X27814354Y30485304D01*
X27813135Y30477610D01*
X27813135Y30477609D01*
X27797273Y30377456D01*
X27794508Y30360000D01*
X9967967Y30360000D01*
X9931586Y30431403D01*
X9931585Y30431405D01*
X9928050Y30438342D01*
X9838342Y30528050D01*
X9831405Y30531585D01*
X9831403Y30531586D01*
X9732244Y30582110D01*
X9732243Y30582110D01*
X9725304Y30585646D01*
X9717610Y30586865D01*
X9717609Y30586865D01*
X9607697Y30604273D01*
X9600000Y30605492D01*
X9592303Y30604273D01*
X9482391Y30586865D01*
X9482390Y30586865D01*
X9474696Y30585646D01*
X9467757Y30582110D01*
X9467756Y30582110D01*
X9368597Y30531586D01*
X9368595Y30531585D01*
X9361658Y30528050D01*
X9271950Y30438342D01*
X9268415Y30431405D01*
X9268414Y30431403D01*
X9230445Y30356884D01*
X9214354Y30325304D01*
X9213135Y30317610D01*
X9213135Y30317609D01*
X9201222Y30242391D01*
X9194508Y30200000D01*
X5094049Y30200000D01*
X5037347Y30235157D01*
X4986933Y30266415D01*
X4986930Y30266416D01*
X4981197Y30269971D01*
X4844251Y30309758D01*
X4839081Y30310138D01*
X4839079Y30310138D01*
X4835947Y30310368D01*
X4835940Y30310368D01*
X4834146Y30310500D01*
X4731773Y30310500D01*
X4626211Y30296040D01*
X4620024Y30293362D01*
X4620022Y30293362D01*
X4501522Y30242082D01*
X4501520Y30242081D01*
X4495332Y30239403D01*
X4384504Y30149657D01*
X4345530Y30094815D01*
X4307083Y30040714D01*
X4301894Y30033413D01*
X4299610Y30027068D01*
X4299608Y30027065D01*
X4281904Y29977890D01*
X4253587Y29899236D01*
X4253093Y29892504D01*
X4253092Y29892501D01*
X4244644Y29777456D01*
X4243143Y29757010D01*
X4244477Y29750395D01*
X4244477Y29750392D01*
X4255745Y29694508D01*
X4271330Y29617215D01*
X4289074Y29582391D01*
X4310119Y29541089D01*
X4336073Y29490151D01*
X4336622Y29489554D01*
X4353552Y29433475D01*
X4333429Y29375693D01*
X4299519Y29347341D01*
X4268597Y29331586D01*
X4268595Y29331585D01*
X4261658Y29328050D01*
X4171950Y29238342D01*
X4168415Y29231405D01*
X4168414Y29231403D01*
X4135984Y29167756D01*
X4114354Y29125304D01*
X4113135Y29117610D01*
X4113135Y29117609D01*
X4095727Y29007697D01*
X4094508Y29000000D01*
X200500Y29000000D01*
X200500Y30700000D01*
X6494508Y30700000D01*
X6495727Y30692303D01*
X6512620Y30585646D01*
X6514354Y30574696D01*
X6517890Y30567757D01*
X6517890Y30567756D01*
X6563823Y30477609D01*
X6571950Y30461658D01*
X6661658Y30371950D01*
X6668595Y30368415D01*
X6668597Y30368414D01*
X6766916Y30318318D01*
X6774696Y30314354D01*
X6782390Y30313135D01*
X6782391Y30313135D01*
X6892303Y30295727D01*
X6900000Y30294508D01*
X6907697Y30295727D01*
X7017609Y30313135D01*
X7017610Y30313135D01*
X7025304Y30314354D01*
X7033084Y30318318D01*
X7131403Y30368414D01*
X7131405Y30368415D01*
X7138342Y30371950D01*
X7228050Y30461658D01*
X7236178Y30477609D01*
X7282110Y30567756D01*
X7282110Y30567757D01*
X7285646Y30574696D01*
X7287381Y30585646D01*
X7304273Y30692303D01*
X7305492Y30700000D01*
X7304273Y30707697D01*
X7286865Y30817609D01*
X7286865Y30817610D01*
X7285646Y30825304D01*
X7282110Y30832244D01*
X7247587Y30900000D01*
X13194508Y30900000D01*
X13195727Y30892303D01*
X13212620Y30785646D01*
X13214354Y30774696D01*
X13217890Y30767757D01*
X13217890Y30767756D01*
X13258503Y30688050D01*
X13271950Y30661658D01*
X13361658Y30571950D01*
X13368595Y30568415D01*
X13368597Y30568414D01*
X13458622Y30522544D01*
X13474696Y30514354D01*
X13482390Y30513135D01*
X13482391Y30513135D01*
X13592303Y30495727D01*
X13600000Y30494508D01*
X13607697Y30495727D01*
X13717609Y30513135D01*
X13717610Y30513135D01*
X13725304Y30514354D01*
X13741378Y30522544D01*
X13831403Y30568414D01*
X13831405Y30568415D01*
X13838342Y30571950D01*
X13928050Y30661658D01*
X13941498Y30688050D01*
X13982110Y30767756D01*
X13982110Y30767757D01*
X13985646Y30774696D01*
X13987381Y30785646D01*
X14004273Y30892303D01*
X14005492Y30900000D01*
X13994761Y30967756D01*
X13986865Y31017609D01*
X13986865Y31017610D01*
X13985646Y31025304D01*
X13963717Y31068342D01*
X13947587Y31100000D01*
X20394508Y31100000D01*
X20395727Y31092303D01*
X20406339Y31025304D01*
X20414354Y30974696D01*
X20417890Y30967757D01*
X20417890Y30967756D01*
X20456336Y30892303D01*
X20471950Y30861658D01*
X20561658Y30771950D01*
X20568595Y30768415D01*
X20568597Y30768414D01*
X20613282Y30745646D01*
X20674696Y30714354D01*
X20682390Y30713135D01*
X20682391Y30713135D01*
X20792303Y30695727D01*
X20800000Y30694508D01*
X20807697Y30695727D01*
X20917609Y30713135D01*
X20917610Y30713135D01*
X20925304Y30714354D01*
X20986718Y30745646D01*
X21031403Y30768414D01*
X21031405Y30768415D01*
X21038342Y30771950D01*
X21096392Y30830000D01*
X24254508Y30830000D01*
X24255727Y30822303D01*
X24256471Y30817609D01*
X24274354Y30704696D01*
X24277890Y30697757D01*
X24277890Y30697756D01*
X24325739Y30603848D01*
X24331950Y30591658D01*
X24421658Y30501950D01*
X24428595Y30498415D01*
X24428597Y30498414D01*
X24500735Y30461658D01*
X24534696Y30444354D01*
X24542390Y30443135D01*
X24542391Y30443135D01*
X24652303Y30425727D01*
X24660000Y30424508D01*
X24667697Y30425727D01*
X24777609Y30443135D01*
X24777610Y30443135D01*
X24785304Y30444354D01*
X24819265Y30461658D01*
X24891403Y30498414D01*
X24891405Y30498415D01*
X24898342Y30501950D01*
X24988050Y30591658D01*
X24994262Y30603848D01*
X25042110Y30697756D01*
X25042110Y30697757D01*
X25045646Y30704696D01*
X25063530Y30817609D01*
X25064273Y30822303D01*
X25065492Y30830000D01*
X25049432Y30931403D01*
X25046865Y30947609D01*
X25046865Y30947610D01*
X25045646Y30955304D01*
X25035765Y30974696D01*
X24991586Y31061403D01*
X24991585Y31061405D01*
X24988050Y31068342D01*
X24898342Y31158050D01*
X24891405Y31161585D01*
X24891403Y31161586D01*
X24792244Y31212110D01*
X24792243Y31212110D01*
X24785304Y31215646D01*
X24777610Y31216865D01*
X24777609Y31216865D01*
X24667697Y31234273D01*
X24660000Y31235492D01*
X24652303Y31234273D01*
X24542391Y31216865D01*
X24542390Y31216865D01*
X24534696Y31215646D01*
X24527757Y31212110D01*
X24527756Y31212110D01*
X24428597Y31161586D01*
X24428595Y31161585D01*
X24421658Y31158050D01*
X24331950Y31068342D01*
X24328415Y31061405D01*
X24328414Y31061403D01*
X24284235Y30974696D01*
X24274354Y30955304D01*
X24273135Y30947610D01*
X24273135Y30947609D01*
X24270568Y30931403D01*
X24254508Y30830000D01*
X21096392Y30830000D01*
X21128050Y30861658D01*
X21143665Y30892303D01*
X21182110Y30967756D01*
X21182110Y30967757D01*
X21185646Y30974696D01*
X21193662Y31025304D01*
X21204273Y31092303D01*
X21205492Y31100000D01*
X21185646Y31225304D01*
X21128050Y31338342D01*
X21038342Y31428050D01*
X21031405Y31431585D01*
X21031403Y31431586D01*
X20932244Y31482110D01*
X20932243Y31482110D01*
X20925304Y31485646D01*
X20917610Y31486865D01*
X20917609Y31486865D01*
X20807697Y31504273D01*
X20800000Y31505492D01*
X20792303Y31504273D01*
X20682391Y31486865D01*
X20682390Y31486865D01*
X20674696Y31485646D01*
X20667757Y31482110D01*
X20667756Y31482110D01*
X20568597Y31431586D01*
X20568595Y31431585D01*
X20561658Y31428050D01*
X20471950Y31338342D01*
X20414354Y31225304D01*
X20394508Y31100000D01*
X13947587Y31100000D01*
X13931586Y31131403D01*
X13931585Y31131405D01*
X13928050Y31138342D01*
X13838342Y31228050D01*
X13831405Y31231585D01*
X13831403Y31231586D01*
X13732244Y31282110D01*
X13732243Y31282110D01*
X13725304Y31285646D01*
X13717610Y31286865D01*
X13717609Y31286865D01*
X13607697Y31304273D01*
X13600000Y31305492D01*
X13592303Y31304273D01*
X13482391Y31286865D01*
X13482390Y31286865D01*
X13474696Y31285646D01*
X13467757Y31282110D01*
X13467756Y31282110D01*
X13368597Y31231586D01*
X13368595Y31231585D01*
X13361658Y31228050D01*
X13271950Y31138342D01*
X13268415Y31131405D01*
X13268414Y31131403D01*
X13236283Y31068342D01*
X13214354Y31025304D01*
X13213135Y31017610D01*
X13213135Y31017609D01*
X13205239Y30967756D01*
X13194508Y30900000D01*
X7247587Y30900000D01*
X7231586Y30931403D01*
X7231585Y30931405D01*
X7228050Y30938342D01*
X7138342Y31028050D01*
X7131405Y31031585D01*
X7131403Y31031586D01*
X7032244Y31082110D01*
X7032243Y31082110D01*
X7025304Y31085646D01*
X7017610Y31086865D01*
X7017609Y31086865D01*
X6907697Y31104273D01*
X6900000Y31105492D01*
X6892303Y31104273D01*
X6782391Y31086865D01*
X6782390Y31086865D01*
X6774696Y31085646D01*
X6767757Y31082110D01*
X6767756Y31082110D01*
X6668597Y31031586D01*
X6668595Y31031585D01*
X6661658Y31028050D01*
X6571950Y30938342D01*
X6568415Y30931405D01*
X6568414Y30931403D01*
X6517890Y30832244D01*
X6514354Y30825304D01*
X6513135Y30817610D01*
X6513135Y30817609D01*
X6495727Y30707697D01*
X6494508Y30700000D01*
X200500Y30700000D01*
X200500Y32100000D01*
X11394508Y32100000D01*
X11395727Y32092303D01*
X11406339Y32025304D01*
X11414354Y31974696D01*
X11417890Y31967757D01*
X11417890Y31967756D01*
X11456336Y31892303D01*
X11471950Y31861658D01*
X11561658Y31771950D01*
X11568595Y31768415D01*
X11568597Y31768414D01*
X11667756Y31717890D01*
X11674696Y31714354D01*
X11682390Y31713135D01*
X11682391Y31713135D01*
X11792303Y31695727D01*
X11800000Y31694508D01*
X11807697Y31695727D01*
X11834676Y31700000D01*
X21494508Y31700000D01*
X21514354Y31574696D01*
X21571950Y31461658D01*
X21661658Y31371950D01*
X21668595Y31368415D01*
X21668597Y31368414D01*
X21767756Y31317890D01*
X21774696Y31314354D01*
X21782390Y31313135D01*
X21782391Y31313135D01*
X21892303Y31295727D01*
X21900000Y31294508D01*
X21907697Y31295727D01*
X22017609Y31313135D01*
X22017610Y31313135D01*
X22025304Y31314354D01*
X22032244Y31317890D01*
X22131403Y31368414D01*
X22131405Y31368415D01*
X22138342Y31371950D01*
X22228050Y31461658D01*
X22285646Y31574696D01*
X22305492Y31700000D01*
X22294761Y31767756D01*
X22286865Y31817609D01*
X22286865Y31817610D01*
X22285646Y31825304D01*
X22251508Y31892303D01*
X22231586Y31931403D01*
X22231585Y31931405D01*
X22228050Y31938342D01*
X22138342Y32028050D01*
X22131405Y32031585D01*
X22131403Y32031586D01*
X22032244Y32082110D01*
X22032243Y32082110D01*
X22025304Y32085646D01*
X22017610Y32086865D01*
X22017609Y32086865D01*
X21907697Y32104273D01*
X21900000Y32105492D01*
X21892303Y32104273D01*
X21782391Y32086865D01*
X21782390Y32086865D01*
X21774696Y32085646D01*
X21767757Y32082110D01*
X21767756Y32082110D01*
X21668597Y32031586D01*
X21668595Y32031585D01*
X21661658Y32028050D01*
X21571950Y31938342D01*
X21568415Y31931405D01*
X21568414Y31931403D01*
X21548492Y31892303D01*
X21514354Y31825304D01*
X21513135Y31817610D01*
X21513135Y31817609D01*
X21505239Y31767756D01*
X21494508Y31700000D01*
X11834676Y31700000D01*
X11917609Y31713135D01*
X11917610Y31713135D01*
X11925304Y31714354D01*
X11932244Y31717890D01*
X12031403Y31768414D01*
X12031405Y31768415D01*
X12038342Y31771950D01*
X12128050Y31861658D01*
X12143665Y31892303D01*
X12182110Y31967756D01*
X12182110Y31967757D01*
X12185646Y31974696D01*
X12193662Y32025304D01*
X12204273Y32092303D01*
X12205492Y32100000D01*
X12198547Y32143848D01*
X12186865Y32217609D01*
X12186865Y32217610D01*
X12185646Y32225304D01*
X12138614Y32317609D01*
X12131586Y32331403D01*
X12131585Y32331405D01*
X12128050Y32338342D01*
X12038342Y32428050D01*
X12031405Y32431585D01*
X12031403Y32431586D01*
X11932244Y32482110D01*
X11932243Y32482110D01*
X11925304Y32485646D01*
X11917610Y32486865D01*
X11917609Y32486865D01*
X11834676Y32500000D01*
X15894508Y32500000D01*
X15895727Y32492303D01*
X15905904Y32428050D01*
X15914354Y32374696D01*
X15917890Y32367757D01*
X15917890Y32367756D01*
X15939521Y32325304D01*
X15971950Y32261658D01*
X16061658Y32171950D01*
X16068595Y32168415D01*
X16068597Y32168414D01*
X16167756Y32117890D01*
X16174696Y32114354D01*
X16182390Y32113135D01*
X16182391Y32113135D01*
X16292303Y32095727D01*
X16300000Y32094508D01*
X16307697Y32095727D01*
X16417609Y32113135D01*
X16417610Y32113135D01*
X16425304Y32114354D01*
X16432244Y32117890D01*
X16531403Y32168414D01*
X16531405Y32168415D01*
X16538342Y32171950D01*
X16628050Y32261658D01*
X16660480Y32325304D01*
X16682110Y32367756D01*
X16682110Y32367757D01*
X16685646Y32374696D01*
X16694097Y32428050D01*
X16704273Y32492303D01*
X16705492Y32500000D01*
X18194508Y32500000D01*
X18195727Y32492303D01*
X18205904Y32428050D01*
X18214354Y32374696D01*
X18217890Y32367757D01*
X18217890Y32367756D01*
X18239521Y32325304D01*
X18271950Y32261658D01*
X18361658Y32171950D01*
X18368595Y32168415D01*
X18368597Y32168414D01*
X18467756Y32117890D01*
X18474696Y32114354D01*
X18482390Y32113135D01*
X18482391Y32113135D01*
X18592303Y32095727D01*
X18600000Y32094508D01*
X18607697Y32095727D01*
X18717609Y32113135D01*
X18717610Y32113135D01*
X18725304Y32114354D01*
X18732244Y32117890D01*
X18831403Y32168414D01*
X18831405Y32168415D01*
X18838342Y32171950D01*
X18866392Y32200000D01*
X27594508Y32200000D01*
X27595727Y32192303D01*
X27612620Y32085646D01*
X27614354Y32074696D01*
X27617890Y32067757D01*
X27617890Y32067756D01*
X27665307Y31974696D01*
X27671950Y31961658D01*
X27761658Y31871950D01*
X27768595Y31868415D01*
X27768597Y31868414D01*
X27867756Y31817890D01*
X27874696Y31814354D01*
X27882390Y31813135D01*
X27882391Y31813135D01*
X27992303Y31795727D01*
X28000000Y31794508D01*
X28007697Y31795727D01*
X28117609Y31813135D01*
X28117610Y31813135D01*
X28125304Y31814354D01*
X28132244Y31817890D01*
X28231403Y31868414D01*
X28231405Y31868415D01*
X28238342Y31871950D01*
X28266392Y31900000D01*
X29994508Y31900000D01*
X29995727Y31892303D01*
X30006339Y31825304D01*
X30014354Y31774696D01*
X30017890Y31767757D01*
X30017890Y31767756D01*
X30056336Y31692303D01*
X30071950Y31661658D01*
X30161658Y31571950D01*
X30168595Y31568415D01*
X30168597Y31568414D01*
X30267756Y31517890D01*
X30274696Y31514354D01*
X30282390Y31513135D01*
X30282391Y31513135D01*
X30392303Y31495727D01*
X30400000Y31494508D01*
X30407697Y31495727D01*
X30517609Y31513135D01*
X30517610Y31513135D01*
X30525304Y31514354D01*
X30532244Y31517890D01*
X30631403Y31568414D01*
X30631405Y31568415D01*
X30638342Y31571950D01*
X30728050Y31661658D01*
X30743665Y31692303D01*
X30782110Y31767756D01*
X30782110Y31767757D01*
X30785646Y31774696D01*
X30793662Y31825304D01*
X30804273Y31892303D01*
X30805492Y31900000D01*
X30798547Y31943848D01*
X30786865Y32017609D01*
X30786865Y32017610D01*
X30785646Y32025304D01*
X30764016Y32067756D01*
X30731586Y32131403D01*
X30731585Y32131405D01*
X30728050Y32138342D01*
X30638342Y32228050D01*
X30631405Y32231585D01*
X30631403Y32231586D01*
X30532244Y32282110D01*
X30532243Y32282110D01*
X30525304Y32285646D01*
X30517610Y32286865D01*
X30517609Y32286865D01*
X30407697Y32304273D01*
X30400000Y32305492D01*
X30392303Y32304273D01*
X30282391Y32286865D01*
X30282390Y32286865D01*
X30274696Y32285646D01*
X30267757Y32282110D01*
X30267756Y32282110D01*
X30168597Y32231586D01*
X30168595Y32231585D01*
X30161658Y32228050D01*
X30071950Y32138342D01*
X30068415Y32131405D01*
X30068414Y32131403D01*
X30035984Y32067756D01*
X30014354Y32025304D01*
X30013135Y32017610D01*
X30013135Y32017609D01*
X30001453Y31943848D01*
X29994508Y31900000D01*
X28266392Y31900000D01*
X28328050Y31961658D01*
X28334694Y31974696D01*
X28382110Y32067756D01*
X28382110Y32067757D01*
X28385646Y32074696D01*
X28387381Y32085646D01*
X28404273Y32192303D01*
X28405492Y32200000D01*
X28402703Y32217609D01*
X28386865Y32317609D01*
X28386865Y32317610D01*
X28385646Y32325304D01*
X28364016Y32367756D01*
X28331586Y32431403D01*
X28331585Y32431405D01*
X28328050Y32438342D01*
X28238342Y32528050D01*
X28231405Y32531585D01*
X28231403Y32531586D01*
X28132244Y32582110D01*
X28132243Y32582110D01*
X28125304Y32585646D01*
X28117610Y32586865D01*
X28117609Y32586865D01*
X28007697Y32604273D01*
X28000000Y32605492D01*
X27992303Y32604273D01*
X27882391Y32586865D01*
X27882390Y32586865D01*
X27874696Y32585646D01*
X27867757Y32582110D01*
X27867756Y32582110D01*
X27768597Y32531586D01*
X27768595Y32531585D01*
X27761658Y32528050D01*
X27671950Y32438342D01*
X27668415Y32431405D01*
X27668414Y32431403D01*
X27635984Y32367756D01*
X27614354Y32325304D01*
X27613135Y32317610D01*
X27613135Y32317609D01*
X27597297Y32217609D01*
X27594508Y32200000D01*
X18866392Y32200000D01*
X18928050Y32261658D01*
X18960480Y32325304D01*
X18982110Y32367756D01*
X18982110Y32367757D01*
X18985646Y32374696D01*
X18994097Y32428050D01*
X19004273Y32492303D01*
X19005492Y32500000D01*
X19002659Y32517890D01*
X18986865Y32617609D01*
X18986865Y32617610D01*
X18985646Y32625304D01*
X18928050Y32738342D01*
X18838342Y32828050D01*
X18831405Y32831585D01*
X18831403Y32831586D01*
X18732244Y32882110D01*
X18732243Y32882110D01*
X18725304Y32885646D01*
X18717610Y32886865D01*
X18717609Y32886865D01*
X18634676Y32900000D01*
X19194508Y32900000D01*
X19195727Y32892303D01*
X19205904Y32828050D01*
X19214354Y32774696D01*
X19271950Y32661658D01*
X19361658Y32571950D01*
X19368595Y32568415D01*
X19368597Y32568414D01*
X19440876Y32531586D01*
X19474696Y32514354D01*
X19482390Y32513135D01*
X19482391Y32513135D01*
X19592303Y32495727D01*
X19600000Y32494508D01*
X19607697Y32495727D01*
X19717609Y32513135D01*
X19717610Y32513135D01*
X19725304Y32514354D01*
X19759124Y32531586D01*
X19831403Y32568414D01*
X19831405Y32568415D01*
X19838342Y32571950D01*
X19928050Y32661658D01*
X19985646Y32774696D01*
X19994097Y32828050D01*
X20004273Y32892303D01*
X20005492Y32900000D01*
X20005441Y32900322D01*
X20023180Y32954918D01*
X20072680Y32990882D01*
X20097788Y32994858D01*
X20100000Y32994508D01*
X20107697Y32995727D01*
X20217609Y33013135D01*
X20217610Y33013135D01*
X20225304Y33014354D01*
X20232244Y33017890D01*
X20331403Y33068414D01*
X20331405Y33068415D01*
X20338342Y33071950D01*
X20428050Y33161658D01*
X20460480Y33225304D01*
X20482110Y33267756D01*
X20482110Y33267757D01*
X20485646Y33274696D01*
X20487381Y33285646D01*
X20504273Y33392303D01*
X20505492Y33400000D01*
X20504273Y33407697D01*
X20486865Y33517609D01*
X20486865Y33517610D01*
X20485646Y33525304D01*
X20480061Y33536266D01*
X20431586Y33631403D01*
X20431585Y33631405D01*
X20428050Y33638342D01*
X20338342Y33728050D01*
X20331405Y33731585D01*
X20331403Y33731586D01*
X20232244Y33782110D01*
X20232243Y33782110D01*
X20225304Y33785646D01*
X20217610Y33786865D01*
X20217609Y33786865D01*
X20107697Y33804273D01*
X20100000Y33805492D01*
X20092303Y33804273D01*
X19982391Y33786865D01*
X19982390Y33786865D01*
X19974696Y33785646D01*
X19967757Y33782110D01*
X19967756Y33782110D01*
X19868597Y33731586D01*
X19868595Y33731585D01*
X19861658Y33728050D01*
X19771950Y33638342D01*
X19768415Y33631405D01*
X19768414Y33631403D01*
X19719939Y33536266D01*
X19714354Y33525304D01*
X19713135Y33517610D01*
X19713135Y33517609D01*
X19695727Y33407697D01*
X19694508Y33400000D01*
X19694559Y33399678D01*
X19676820Y33345082D01*
X19627320Y33309118D01*
X19602212Y33305142D01*
X19600000Y33305492D01*
X19592303Y33304273D01*
X19482391Y33286865D01*
X19482390Y33286865D01*
X19474696Y33285646D01*
X19467757Y33282110D01*
X19467756Y33282110D01*
X19368597Y33231586D01*
X19368595Y33231585D01*
X19361658Y33228050D01*
X19271950Y33138342D01*
X19268415Y33131405D01*
X19268414Y33131403D01*
X19248492Y33092303D01*
X19214354Y33025304D01*
X19213135Y33017610D01*
X19213135Y33017609D01*
X19205239Y32967756D01*
X19194508Y32900000D01*
X18634676Y32900000D01*
X18607697Y32904273D01*
X18600000Y32905492D01*
X18592303Y32904273D01*
X18482391Y32886865D01*
X18482390Y32886865D01*
X18474696Y32885646D01*
X18467757Y32882110D01*
X18467756Y32882110D01*
X18368597Y32831586D01*
X18368595Y32831585D01*
X18361658Y32828050D01*
X18271950Y32738342D01*
X18214354Y32625304D01*
X18213135Y32617610D01*
X18213135Y32617609D01*
X18197341Y32517890D01*
X18194508Y32500000D01*
X16705492Y32500000D01*
X16702659Y32517890D01*
X16686865Y32617609D01*
X16686865Y32617610D01*
X16685646Y32625304D01*
X16628050Y32738342D01*
X16538342Y32828050D01*
X16531405Y32831585D01*
X16531403Y32831586D01*
X16432244Y32882110D01*
X16432243Y32882110D01*
X16425304Y32885646D01*
X16417610Y32886865D01*
X16417609Y32886865D01*
X16307697Y32904273D01*
X16300000Y32905492D01*
X16292303Y32904273D01*
X16182391Y32886865D01*
X16182390Y32886865D01*
X16174696Y32885646D01*
X16167757Y32882110D01*
X16167756Y32882110D01*
X16068597Y32831586D01*
X16068595Y32831585D01*
X16061658Y32828050D01*
X15971950Y32738342D01*
X15914354Y32625304D01*
X15913135Y32617610D01*
X15913135Y32617609D01*
X15897341Y32517890D01*
X15894508Y32500000D01*
X11834676Y32500000D01*
X11807697Y32504273D01*
X11800000Y32505492D01*
X11792303Y32504273D01*
X11682391Y32486865D01*
X11682390Y32486865D01*
X11674696Y32485646D01*
X11667757Y32482110D01*
X11667756Y32482110D01*
X11568597Y32431586D01*
X11568595Y32431585D01*
X11561658Y32428050D01*
X11471950Y32338342D01*
X11468415Y32331405D01*
X11468414Y32331403D01*
X11461386Y32317609D01*
X11414354Y32225304D01*
X11413135Y32217610D01*
X11413135Y32217609D01*
X11401453Y32143848D01*
X11394508Y32100000D01*
X200500Y32100000D01*
X200500Y34100000D01*
X2394508Y34100000D01*
X2414354Y33974696D01*
X2417890Y33967757D01*
X2417890Y33967756D01*
X2465493Y33874331D01*
X2471950Y33861658D01*
X2561658Y33771950D01*
X2568595Y33768415D01*
X2568597Y33768414D01*
X2640876Y33731586D01*
X2674696Y33714354D01*
X2682390Y33713135D01*
X2682391Y33713135D01*
X2792303Y33695727D01*
X2800000Y33694508D01*
X2807697Y33695727D01*
X2917609Y33713135D01*
X2917610Y33713135D01*
X2925304Y33714354D01*
X2959124Y33731586D01*
X3031403Y33768414D01*
X3031405Y33768415D01*
X3038342Y33771950D01*
X3128050Y33861658D01*
X3134508Y33874331D01*
X3182110Y33967756D01*
X3182110Y33967757D01*
X3185646Y33974696D01*
X3205492Y34100000D01*
X3194761Y34167756D01*
X3186865Y34217609D01*
X3186865Y34217610D01*
X3185646Y34225304D01*
X3182110Y34232244D01*
X3180318Y34237759D01*
X3180319Y34298944D01*
X3216283Y34348444D01*
X3274475Y34367350D01*
X3332665Y34348442D01*
X3341735Y34340991D01*
X3552474Y34145845D01*
X3554692Y34144209D01*
X3554699Y34144204D01*
X3674131Y34056152D01*
X3827026Y33943428D01*
X3829421Y33942045D01*
X3829426Y33942042D01*
X4120047Y33774252D01*
X4120053Y33774249D01*
X4122431Y33772876D01*
X4435005Y33636316D01*
X4437639Y33635501D01*
X4437638Y33635501D01*
X4758213Y33536266D01*
X4758222Y33536264D01*
X4760854Y33535449D01*
X5095916Y33471532D01*
X5436014Y33445363D01*
X5438766Y33445459D01*
X5438771Y33445459D01*
X5663906Y33453321D01*
X5776910Y33457267D01*
X6114355Y33507097D01*
X6117024Y33507802D01*
X6117028Y33507803D01*
X6441482Y33593527D01*
X6441485Y33593528D01*
X6444142Y33594230D01*
X6762161Y33717582D01*
X7051026Y33868597D01*
X7061994Y33874331D01*
X7061995Y33874332D01*
X7064448Y33875614D01*
X7347236Y34066357D01*
X7349868Y34068597D01*
X7604895Y34285642D01*
X7604898Y34285645D01*
X7606999Y34287433D01*
X7618800Y34300000D01*
X10094508Y34300000D01*
X10095727Y34292303D01*
X10106339Y34225304D01*
X10114354Y34174696D01*
X10117890Y34167757D01*
X10117890Y34167756D01*
X10165307Y34074696D01*
X10171950Y34061658D01*
X10261658Y33971950D01*
X10268595Y33968415D01*
X10268597Y33968414D01*
X10317635Y33943428D01*
X10374696Y33914354D01*
X10382390Y33913135D01*
X10382391Y33913135D01*
X10492303Y33895727D01*
X10500000Y33894508D01*
X10507697Y33895727D01*
X10617609Y33913135D01*
X10617610Y33913135D01*
X10625304Y33914354D01*
X10682365Y33943428D01*
X10731403Y33968414D01*
X10731405Y33968415D01*
X10738342Y33971950D01*
X10828050Y34061658D01*
X10834694Y34074696D01*
X10882110Y34167756D01*
X10882110Y34167757D01*
X10885646Y34174696D01*
X10893662Y34225304D01*
X10904273Y34292303D01*
X10905492Y34300000D01*
X10894761Y34367756D01*
X10886865Y34417609D01*
X10886865Y34417610D01*
X10885646Y34425304D01*
X10873788Y34448577D01*
X10847587Y34500000D01*
X16394508Y34500000D01*
X16395727Y34492303D01*
X16406339Y34425304D01*
X16414354Y34374696D01*
X16417890Y34367757D01*
X16417890Y34367756D01*
X16457791Y34289447D01*
X16471950Y34261658D01*
X16561658Y34171950D01*
X16568595Y34168415D01*
X16568597Y34168414D01*
X16616112Y34144204D01*
X16674696Y34114354D01*
X16682390Y34113135D01*
X16682391Y34113135D01*
X16792303Y34095727D01*
X16800000Y34094508D01*
X16807697Y34095727D01*
X16834676Y34100000D01*
X21394508Y34100000D01*
X21414354Y33974696D01*
X21417890Y33967757D01*
X21417890Y33967756D01*
X21465493Y33874331D01*
X21471950Y33861658D01*
X21561658Y33771950D01*
X21568595Y33768415D01*
X21568597Y33768414D01*
X21640876Y33731586D01*
X21674696Y33714354D01*
X21682390Y33713135D01*
X21682391Y33713135D01*
X21792303Y33695727D01*
X21800000Y33694508D01*
X21807697Y33695727D01*
X21917609Y33713135D01*
X21917610Y33713135D01*
X21925304Y33714354D01*
X21959124Y33731586D01*
X22031403Y33768414D01*
X22031405Y33768415D01*
X22038342Y33771950D01*
X22128050Y33861658D01*
X22134508Y33874331D01*
X22182110Y33967756D01*
X22182110Y33967757D01*
X22185646Y33974696D01*
X22205492Y34100000D01*
X22194761Y34167756D01*
X22189654Y34200000D01*
X27594508Y34200000D01*
X27595727Y34192303D01*
X27602788Y34147724D01*
X27614354Y34074696D01*
X27617890Y34067757D01*
X27617890Y34067756D01*
X27665307Y33974696D01*
X27671950Y33961658D01*
X27761658Y33871950D01*
X27768595Y33868415D01*
X27768597Y33868414D01*
X27792663Y33856152D01*
X27874696Y33814354D01*
X27882390Y33813135D01*
X27882391Y33813135D01*
X27992303Y33795727D01*
X28000000Y33794508D01*
X28007697Y33795727D01*
X28117609Y33813135D01*
X28117610Y33813135D01*
X28125304Y33814354D01*
X28207337Y33856152D01*
X28231403Y33868414D01*
X28231405Y33868415D01*
X28238342Y33871950D01*
X28328050Y33961658D01*
X28334694Y33974696D01*
X28382110Y34067756D01*
X28382110Y34067757D01*
X28385646Y34074696D01*
X28397213Y34147724D01*
X28404273Y34192303D01*
X28405492Y34200000D01*
X29994508Y34200000D01*
X29995727Y34192303D01*
X30002788Y34147724D01*
X30014354Y34074696D01*
X30017890Y34067757D01*
X30017890Y34067756D01*
X30065307Y33974696D01*
X30071950Y33961658D01*
X30161658Y33871950D01*
X30168595Y33868415D01*
X30168597Y33868414D01*
X30192663Y33856152D01*
X30274696Y33814354D01*
X30282390Y33813135D01*
X30282391Y33813135D01*
X30392303Y33795727D01*
X30400000Y33794508D01*
X30407697Y33795727D01*
X30517609Y33813135D01*
X30517610Y33813135D01*
X30525304Y33814354D01*
X30607337Y33856152D01*
X30631403Y33868414D01*
X30631405Y33868415D01*
X30638342Y33871950D01*
X30728050Y33961658D01*
X30734694Y33974696D01*
X30782110Y34067756D01*
X30782110Y34067757D01*
X30785646Y34074696D01*
X30797213Y34147724D01*
X30804273Y34192303D01*
X30805492Y34200000D01*
X30799512Y34237759D01*
X30786865Y34317609D01*
X30786865Y34317610D01*
X30785646Y34325304D01*
X30773856Y34348444D01*
X30731586Y34431403D01*
X30731585Y34431405D01*
X30728050Y34438342D01*
X30638342Y34528050D01*
X30631405Y34531585D01*
X30631403Y34531586D01*
X30532244Y34582110D01*
X30532243Y34582110D01*
X30525304Y34585646D01*
X30517610Y34586865D01*
X30517609Y34586865D01*
X30407697Y34604273D01*
X30400000Y34605492D01*
X30392303Y34604273D01*
X30282391Y34586865D01*
X30282390Y34586865D01*
X30274696Y34585646D01*
X30267757Y34582110D01*
X30267756Y34582110D01*
X30168597Y34531586D01*
X30168595Y34531585D01*
X30161658Y34528050D01*
X30071950Y34438342D01*
X30068415Y34431405D01*
X30068414Y34431403D01*
X30026144Y34348444D01*
X30014354Y34325304D01*
X30013135Y34317610D01*
X30013135Y34317609D01*
X30000488Y34237759D01*
X29994508Y34200000D01*
X28405492Y34200000D01*
X28399512Y34237759D01*
X28386865Y34317609D01*
X28386865Y34317610D01*
X28385646Y34325304D01*
X28373856Y34348444D01*
X28331586Y34431403D01*
X28331585Y34431405D01*
X28328050Y34438342D01*
X28238342Y34528050D01*
X28231405Y34531585D01*
X28231403Y34531586D01*
X28132244Y34582110D01*
X28132243Y34582110D01*
X28125304Y34585646D01*
X28117610Y34586865D01*
X28117609Y34586865D01*
X28007697Y34604273D01*
X28000000Y34605492D01*
X27992303Y34604273D01*
X27882391Y34586865D01*
X27882390Y34586865D01*
X27874696Y34585646D01*
X27867757Y34582110D01*
X27867756Y34582110D01*
X27768597Y34531586D01*
X27768595Y34531585D01*
X27761658Y34528050D01*
X27671950Y34438342D01*
X27668415Y34431405D01*
X27668414Y34431403D01*
X27626144Y34348444D01*
X27614354Y34325304D01*
X27613135Y34317610D01*
X27613135Y34317609D01*
X27600488Y34237759D01*
X27594508Y34200000D01*
X22189654Y34200000D01*
X22186865Y34217609D01*
X22186865Y34217610D01*
X22185646Y34225304D01*
X22153990Y34287433D01*
X22131586Y34331403D01*
X22131585Y34331405D01*
X22128050Y34338342D01*
X22038342Y34428050D01*
X22031405Y34431585D01*
X22031403Y34431586D01*
X21932244Y34482110D01*
X21932243Y34482110D01*
X21925304Y34485646D01*
X21917610Y34486865D01*
X21917609Y34486865D01*
X21807697Y34504273D01*
X21800000Y34505492D01*
X21792303Y34504273D01*
X21682391Y34486865D01*
X21682390Y34486865D01*
X21674696Y34485646D01*
X21667757Y34482110D01*
X21667756Y34482110D01*
X21568597Y34431586D01*
X21568595Y34431585D01*
X21561658Y34428050D01*
X21471950Y34338342D01*
X21468415Y34331405D01*
X21468414Y34331403D01*
X21446010Y34287433D01*
X21414354Y34225304D01*
X21413135Y34217610D01*
X21413135Y34217609D01*
X21405239Y34167756D01*
X21394508Y34100000D01*
X16834676Y34100000D01*
X16917609Y34113135D01*
X16917610Y34113135D01*
X16925304Y34114354D01*
X16983888Y34144204D01*
X17031403Y34168414D01*
X17031405Y34168415D01*
X17038342Y34171950D01*
X17128050Y34261658D01*
X17142210Y34289447D01*
X17182110Y34367756D01*
X17182110Y34367757D01*
X17185646Y34374696D01*
X17193662Y34425304D01*
X17204273Y34492303D01*
X17205492Y34500000D01*
X17204273Y34507697D01*
X17186865Y34617609D01*
X17186865Y34617610D01*
X17185646Y34625304D01*
X17128050Y34738342D01*
X17038342Y34828050D01*
X17031405Y34831585D01*
X17031403Y34831586D01*
X16932244Y34882110D01*
X16932243Y34882110D01*
X16925304Y34885646D01*
X16917610Y34886865D01*
X16917609Y34886865D01*
X16807697Y34904273D01*
X16800000Y34905492D01*
X16792303Y34904273D01*
X16682391Y34886865D01*
X16682390Y34886865D01*
X16674696Y34885646D01*
X16667757Y34882110D01*
X16667756Y34882110D01*
X16568597Y34831586D01*
X16568595Y34831585D01*
X16561658Y34828050D01*
X16471950Y34738342D01*
X16414354Y34625304D01*
X16413135Y34617610D01*
X16413135Y34617609D01*
X16395727Y34507697D01*
X16394508Y34500000D01*
X10847587Y34500000D01*
X10831586Y34531403D01*
X10831585Y34531405D01*
X10828050Y34538342D01*
X10738342Y34628050D01*
X10731405Y34631585D01*
X10731403Y34631586D01*
X10632244Y34682110D01*
X10632243Y34682110D01*
X10625304Y34685646D01*
X10617610Y34686865D01*
X10617609Y34686865D01*
X10507697Y34704273D01*
X10500000Y34705492D01*
X10492303Y34704273D01*
X10382391Y34686865D01*
X10382390Y34686865D01*
X10374696Y34685646D01*
X10367757Y34682110D01*
X10367756Y34682110D01*
X10268597Y34631586D01*
X10268595Y34631585D01*
X10261658Y34628050D01*
X10171950Y34538342D01*
X10168415Y34531405D01*
X10168414Y34531403D01*
X10126212Y34448577D01*
X10114354Y34425304D01*
X10113135Y34417610D01*
X10113135Y34417609D01*
X10105239Y34367756D01*
X10094508Y34300000D01*
X7618800Y34300000D01*
X7840501Y34536087D01*
X7846307Y34543848D01*
X8043170Y34806999D01*
X8043176Y34807008D01*
X8044830Y34809219D01*
X8046226Y34811599D01*
X8046231Y34811606D01*
X8216041Y35101042D01*
X8217440Y35103426D01*
X8356179Y35415039D01*
X8375103Y35474696D01*
X8458486Y35737549D01*
X8458487Y35737555D01*
X8459319Y35740176D01*
X8466701Y35777456D01*
X8510766Y36000000D01*
X13494508Y36000000D01*
X13495727Y35992303D01*
X13505904Y35928050D01*
X13514354Y35874696D01*
X13517890Y35867757D01*
X13517890Y35867756D01*
X13520775Y35862095D01*
X13571950Y35761658D01*
X13661658Y35671950D01*
X13668595Y35668415D01*
X13668597Y35668414D01*
X13767756Y35617890D01*
X13774696Y35614354D01*
X13782390Y35613135D01*
X13782391Y35613135D01*
X13892303Y35595727D01*
X13900000Y35594508D01*
X13907697Y35595727D01*
X13934676Y35600000D01*
X19494508Y35600000D01*
X19495727Y35592303D01*
X19504709Y35535595D01*
X19514354Y35474696D01*
X19571950Y35361658D01*
X19661658Y35271950D01*
X19668595Y35268415D01*
X19668597Y35268414D01*
X19761629Y35221012D01*
X19774696Y35214354D01*
X19782390Y35213135D01*
X19782391Y35213135D01*
X19892303Y35195727D01*
X19900000Y35194508D01*
X19907697Y35195727D01*
X20017609Y35213135D01*
X20017610Y35213135D01*
X20025304Y35214354D01*
X20038371Y35221012D01*
X20131403Y35268414D01*
X20131405Y35268415D01*
X20138342Y35271950D01*
X20228050Y35361658D01*
X20285646Y35474696D01*
X20295292Y35535595D01*
X20304273Y35592303D01*
X20305492Y35600000D01*
X20302659Y35617890D01*
X20286865Y35717609D01*
X20286865Y35717610D01*
X20285646Y35725304D01*
X20228050Y35838342D01*
X20138342Y35928050D01*
X20131405Y35931585D01*
X20131403Y35931586D01*
X20032244Y35982110D01*
X20032243Y35982110D01*
X20025304Y35985646D01*
X20017610Y35986865D01*
X20017609Y35986865D01*
X19907697Y36004273D01*
X19900000Y36005492D01*
X19892303Y36004273D01*
X19782391Y35986865D01*
X19782390Y35986865D01*
X19774696Y35985646D01*
X19767757Y35982110D01*
X19767756Y35982110D01*
X19668597Y35931586D01*
X19668595Y35931585D01*
X19661658Y35928050D01*
X19571950Y35838342D01*
X19514354Y35725304D01*
X19513135Y35717610D01*
X19513135Y35717609D01*
X19497341Y35617890D01*
X19494508Y35600000D01*
X13934676Y35600000D01*
X14017609Y35613135D01*
X14017610Y35613135D01*
X14025304Y35614354D01*
X14032244Y35617890D01*
X14131403Y35668414D01*
X14131405Y35668415D01*
X14138342Y35671950D01*
X14228050Y35761658D01*
X14279226Y35862095D01*
X14282110Y35867756D01*
X14282110Y35867757D01*
X14285646Y35874696D01*
X14294097Y35928050D01*
X14304273Y35992303D01*
X14305492Y36000000D01*
X14293648Y36074783D01*
X14289654Y36100000D01*
X32294508Y36100000D01*
X32295727Y36092303D01*
X32312620Y35985646D01*
X32314354Y35974696D01*
X32317890Y35967757D01*
X32317890Y35967756D01*
X32365307Y35874696D01*
X32371950Y35861658D01*
X32461658Y35771950D01*
X32468595Y35768415D01*
X32468597Y35768414D01*
X32567756Y35717890D01*
X32574696Y35714354D01*
X32582390Y35713135D01*
X32582391Y35713135D01*
X32692303Y35695727D01*
X32700000Y35694508D01*
X32707697Y35695727D01*
X32817609Y35713135D01*
X32817610Y35713135D01*
X32825304Y35714354D01*
X32832244Y35717890D01*
X32931403Y35768414D01*
X32931405Y35768415D01*
X32938342Y35771950D01*
X33028050Y35861658D01*
X33034694Y35874696D01*
X33082110Y35967756D01*
X33082110Y35967757D01*
X33085646Y35974696D01*
X33087381Y35985646D01*
X33104273Y36092303D01*
X33105492Y36100000D01*
X33089360Y36201854D01*
X33086865Y36217609D01*
X33086865Y36217610D01*
X33085646Y36225304D01*
X33028050Y36338342D01*
X32938342Y36428050D01*
X32931405Y36431585D01*
X32931403Y36431586D01*
X32832244Y36482110D01*
X32832243Y36482110D01*
X32825304Y36485646D01*
X32817610Y36486865D01*
X32817609Y36486865D01*
X32707697Y36504273D01*
X32700000Y36505492D01*
X32692303Y36504273D01*
X32582391Y36486865D01*
X32582390Y36486865D01*
X32574696Y36485646D01*
X32567757Y36482110D01*
X32567756Y36482110D01*
X32468597Y36431586D01*
X32468595Y36431585D01*
X32461658Y36428050D01*
X32371950Y36338342D01*
X32314354Y36225304D01*
X32313135Y36217610D01*
X32313135Y36217609D01*
X32310640Y36201854D01*
X32294508Y36100000D01*
X14289654Y36100000D01*
X14286865Y36117609D01*
X14286865Y36117610D01*
X14285646Y36125304D01*
X14238614Y36217609D01*
X14231586Y36231403D01*
X14231585Y36231405D01*
X14228050Y36238342D01*
X14138342Y36328050D01*
X14131405Y36331585D01*
X14131403Y36331586D01*
X14032244Y36382110D01*
X14032243Y36382110D01*
X14025304Y36385646D01*
X14017610Y36386865D01*
X14017609Y36386865D01*
X13907697Y36404273D01*
X13900000Y36405492D01*
X13892303Y36404273D01*
X13782391Y36386865D01*
X13782390Y36386865D01*
X13774696Y36385646D01*
X13767757Y36382110D01*
X13767756Y36382110D01*
X13668597Y36331586D01*
X13668595Y36331585D01*
X13661658Y36328050D01*
X13571950Y36238342D01*
X13568415Y36231405D01*
X13568414Y36231403D01*
X13561386Y36217609D01*
X13514354Y36125304D01*
X13513135Y36117610D01*
X13513135Y36117609D01*
X13506352Y36074783D01*
X13494508Y36000000D01*
X8510766Y36000000D01*
X8525037Y36072074D01*
X8525038Y36072081D01*
X8525573Y36074783D01*
X8554116Y36414691D01*
X8555307Y36500000D01*
X8552769Y36545409D01*
X8536420Y36837818D01*
X8536266Y36840572D01*
X8479381Y37176899D01*
X8415408Y37400000D01*
X25794508Y37400000D01*
X25814354Y37274696D01*
X25817890Y37267757D01*
X25817890Y37267756D01*
X25865570Y37174180D01*
X25871950Y37161658D01*
X25961658Y37071950D01*
X25968595Y37068415D01*
X25968597Y37068414D01*
X26067756Y37017890D01*
X26074696Y37014354D01*
X26082390Y37013135D01*
X26082391Y37013135D01*
X26192303Y36995727D01*
X26200000Y36994508D01*
X26207697Y36995727D01*
X26317609Y37013135D01*
X26317610Y37013135D01*
X26325304Y37014354D01*
X26332244Y37017890D01*
X26431403Y37068414D01*
X26431405Y37068415D01*
X26438342Y37071950D01*
X26528050Y37161658D01*
X26534431Y37174180D01*
X26582110Y37267756D01*
X26582110Y37267757D01*
X26585646Y37274696D01*
X26605492Y37400000D01*
X32694508Y37400000D01*
X32714354Y37274696D01*
X32717890Y37267757D01*
X32717890Y37267756D01*
X32765570Y37174180D01*
X32771950Y37161658D01*
X32861658Y37071950D01*
X32868595Y37068415D01*
X32868597Y37068414D01*
X32967756Y37017890D01*
X32974696Y37014354D01*
X32982390Y37013135D01*
X32982391Y37013135D01*
X33092303Y36995727D01*
X33100000Y36994508D01*
X33107697Y36995727D01*
X33217609Y37013135D01*
X33217610Y37013135D01*
X33225304Y37014354D01*
X33338342Y37071950D01*
X33339332Y37070007D01*
X33387138Y37085545D01*
X33445330Y37066643D01*
X33481299Y37017146D01*
X33484521Y36968674D01*
X33469284Y36885653D01*
X33469283Y36885646D01*
X33468785Y36882932D01*
X33444991Y36542659D01*
X33453838Y36331586D01*
X33458615Y36217609D01*
X33459275Y36201854D01*
X33459696Y36199132D01*
X33459697Y36199126D01*
X33472317Y36117609D01*
X33511459Y35864766D01*
X33536676Y35771950D01*
X33584555Y35595727D01*
X33600892Y35535595D01*
X33726461Y35218445D01*
X33727750Y35216020D01*
X33727755Y35216010D01*
X33788885Y35101042D01*
X33886600Y34917268D01*
X33888162Y34914987D01*
X34077751Y34638098D01*
X34077756Y34638092D01*
X34079312Y34635819D01*
X34081109Y34633737D01*
X34081113Y34633732D01*
X34177088Y34522544D01*
X34302196Y34377605D01*
X34552474Y34145845D01*
X34554692Y34144209D01*
X34554699Y34144204D01*
X34674131Y34056152D01*
X34827026Y33943428D01*
X34829421Y33942045D01*
X34829426Y33942042D01*
X35120047Y33774252D01*
X35120053Y33774249D01*
X35122431Y33772876D01*
X35435005Y33636316D01*
X35437639Y33635501D01*
X35437638Y33635501D01*
X35758213Y33536266D01*
X35758222Y33536264D01*
X35760854Y33535449D01*
X36095916Y33471532D01*
X36436014Y33445363D01*
X36438766Y33445459D01*
X36438771Y33445459D01*
X36663906Y33453321D01*
X36776910Y33457267D01*
X37114355Y33507097D01*
X37117024Y33507802D01*
X37117028Y33507803D01*
X37441482Y33593527D01*
X37441485Y33593528D01*
X37444142Y33594230D01*
X37762161Y33717582D01*
X38051026Y33868597D01*
X38061994Y33874331D01*
X38061995Y33874332D01*
X38064448Y33875614D01*
X38347236Y34066357D01*
X38349868Y34068597D01*
X38604895Y34285642D01*
X38604898Y34285645D01*
X38606999Y34287433D01*
X38840501Y34536087D01*
X38846307Y34543848D01*
X39043170Y34806999D01*
X39043176Y34807008D01*
X39044830Y34809219D01*
X39046226Y34811599D01*
X39046231Y34811606D01*
X39216041Y35101042D01*
X39217440Y35103426D01*
X39356179Y35415039D01*
X39375103Y35474696D01*
X39458486Y35737549D01*
X39458487Y35737555D01*
X39459319Y35740176D01*
X39466701Y35777456D01*
X39525037Y36072074D01*
X39525038Y36072081D01*
X39525573Y36074783D01*
X39554116Y36414691D01*
X39555307Y36500000D01*
X39552769Y36545409D01*
X39536420Y36837818D01*
X39536266Y36840572D01*
X39479381Y37176899D01*
X39385360Y37504789D01*
X39255375Y37820155D01*
X39091047Y38119066D01*
X39067337Y38152677D01*
X38896013Y38395545D01*
X38896009Y38395549D01*
X38894424Y38397797D01*
X38667956Y38652874D01*
X38665907Y38654719D01*
X38665903Y38654723D01*
X38615618Y38700000D01*
X39564532Y38700000D01*
X39566434Y38690437D01*
X39578176Y38631403D01*
X39580092Y38621769D01*
X39613220Y38572189D01*
X40242189Y37943220D01*
X40291769Y37910092D01*
X40301328Y37908191D01*
X40301330Y37908190D01*
X40360437Y37896434D01*
X40370000Y37894532D01*
X40379563Y37896434D01*
X40438670Y37908190D01*
X40438672Y37908191D01*
X40448231Y37910092D01*
X40497811Y37943220D01*
X41126780Y38572189D01*
X41159908Y38621769D01*
X41161825Y38631403D01*
X41173566Y38690437D01*
X41175468Y38700000D01*
X41159908Y38778231D01*
X41126780Y38827811D01*
X40497811Y39456780D01*
X40448231Y39489908D01*
X40438672Y39491809D01*
X40438670Y39491810D01*
X40379563Y39503566D01*
X40370000Y39505468D01*
X40360437Y39503566D01*
X40301330Y39491810D01*
X40301328Y39491809D01*
X40291769Y39489908D01*
X40242189Y39456780D01*
X39613220Y38827811D01*
X39580092Y38778231D01*
X39564532Y38700000D01*
X38615618Y38700000D01*
X38416530Y38879260D01*
X38416524Y38879264D01*
X38414467Y38881117D01*
X38268462Y38985646D01*
X38139370Y39078067D01*
X38139365Y39078070D01*
X38137115Y39079681D01*
X38134698Y39081032D01*
X38134693Y39081035D01*
X37841777Y39244740D01*
X37841778Y39244740D01*
X37839358Y39246092D01*
X37836810Y39247163D01*
X37836802Y39247167D01*
X37644460Y39328020D01*
X37524908Y39378275D01*
X37522270Y39379052D01*
X37522257Y39379056D01*
X37216580Y39469020D01*
X37166095Y39503587D01*
X37145570Y39561227D01*
X37162845Y39619923D01*
X37199584Y39652201D01*
X37231402Y39668414D01*
X37231401Y39668414D01*
X37238342Y39671950D01*
X37328050Y39761658D01*
X37334694Y39774696D01*
X37382110Y39867756D01*
X37382110Y39867757D01*
X37385646Y39874696D01*
X37405492Y40000000D01*
X37385646Y40125304D01*
X37382110Y40132244D01*
X37331586Y40231403D01*
X37331585Y40231405D01*
X37328050Y40238342D01*
X37306392Y40260000D01*
X37974532Y40260000D01*
X37990092Y40181769D01*
X38023220Y40132189D01*
X38652189Y39503220D01*
X38701769Y39470092D01*
X38711328Y39468191D01*
X38711330Y39468190D01*
X38770437Y39456434D01*
X38780000Y39454532D01*
X38789563Y39456434D01*
X38848670Y39468190D01*
X38848672Y39468191D01*
X38858231Y39470092D01*
X38907811Y39503220D01*
X39536780Y40132189D01*
X39569908Y40181769D01*
X39585468Y40260000D01*
X39569908Y40338231D01*
X39536780Y40387811D01*
X38907811Y41016780D01*
X38858231Y41049908D01*
X38848672Y41051809D01*
X38848670Y41051810D01*
X38789563Y41063566D01*
X38780000Y41065468D01*
X38770437Y41063566D01*
X38711330Y41051810D01*
X38711328Y41051809D01*
X38701769Y41049908D01*
X38652189Y41016780D01*
X38023220Y40387811D01*
X37990092Y40338231D01*
X37974532Y40260000D01*
X37306392Y40260000D01*
X37238342Y40328050D01*
X37231405Y40331585D01*
X37231403Y40331586D01*
X37132244Y40382110D01*
X37132243Y40382110D01*
X37125304Y40385646D01*
X37117610Y40386865D01*
X37117609Y40386865D01*
X37007697Y40404273D01*
X37000000Y40405492D01*
X36992303Y40404273D01*
X36882391Y40386865D01*
X36882390Y40386865D01*
X36874696Y40385646D01*
X36867757Y40382110D01*
X36867756Y40382110D01*
X36768597Y40331586D01*
X36768595Y40331585D01*
X36761658Y40328050D01*
X36671950Y40238342D01*
X36668415Y40231405D01*
X36668414Y40231403D01*
X36617890Y40132244D01*
X36614354Y40125304D01*
X36594508Y40000000D01*
X36614354Y39874696D01*
X36617890Y39867757D01*
X36617890Y39867756D01*
X36665307Y39774696D01*
X36671950Y39761658D01*
X36717087Y39716521D01*
X36744864Y39662004D01*
X36735293Y39601572D01*
X36692028Y39558307D01*
X36640866Y39547712D01*
X36521330Y39555233D01*
X36518569Y39555098D01*
X36518565Y39555098D01*
X36228968Y39540934D01*
X36180633Y39538570D01*
X35843918Y39484034D01*
X35515379Y39392304D01*
X35362972Y39330727D01*
X35201675Y39265559D01*
X35201671Y39265557D01*
X35199114Y39264524D01*
X35196690Y39263213D01*
X35196685Y39263211D01*
X34901491Y39103601D01*
X34901482Y39103596D01*
X34899062Y39102287D01*
X34896800Y39100715D01*
X34896797Y39100713D01*
X34718393Y38976719D01*
X34618965Y38907615D01*
X34616881Y38905790D01*
X34616879Y38905789D01*
X34460250Y38768670D01*
X34362314Y38682933D01*
X34360453Y38680895D01*
X34360452Y38680894D01*
X34293614Y38607697D01*
X34132307Y38431044D01*
X33931811Y38155085D01*
X33763326Y37858497D01*
X33762233Y37855948D01*
X33762233Y37855947D01*
X33642156Y37575787D01*
X33601854Y37529750D01*
X33542189Y37516194D01*
X33485952Y37540298D01*
X33462954Y37569840D01*
X33428050Y37638342D01*
X33338342Y37728050D01*
X33331405Y37731585D01*
X33331403Y37731586D01*
X33232244Y37782110D01*
X33232243Y37782110D01*
X33225304Y37785646D01*
X33217610Y37786865D01*
X33217609Y37786865D01*
X33107697Y37804273D01*
X33100000Y37805492D01*
X33092303Y37804273D01*
X32982391Y37786865D01*
X32982390Y37786865D01*
X32974696Y37785646D01*
X32967757Y37782110D01*
X32967756Y37782110D01*
X32868597Y37731586D01*
X32868595Y37731585D01*
X32861658Y37728050D01*
X32771950Y37638342D01*
X32714354Y37525304D01*
X32694508Y37400000D01*
X26605492Y37400000D01*
X26585646Y37525304D01*
X26528050Y37638342D01*
X26438342Y37728050D01*
X26431405Y37731585D01*
X26431403Y37731586D01*
X26332244Y37782110D01*
X26332243Y37782110D01*
X26325304Y37785646D01*
X26317610Y37786865D01*
X26317609Y37786865D01*
X26207697Y37804273D01*
X26200000Y37805492D01*
X26192303Y37804273D01*
X26082391Y37786865D01*
X26082390Y37786865D01*
X26074696Y37785646D01*
X26067757Y37782110D01*
X26067756Y37782110D01*
X25968597Y37731586D01*
X25968595Y37731585D01*
X25961658Y37728050D01*
X25871950Y37638342D01*
X25814354Y37525304D01*
X25794508Y37400000D01*
X8415408Y37400000D01*
X8385360Y37504789D01*
X8255375Y37820155D01*
X8091047Y38119066D01*
X8067337Y38152677D01*
X7896013Y38395545D01*
X7896009Y38395549D01*
X7894424Y38397797D01*
X7714900Y38600000D01*
X20394508Y38600000D01*
X20395727Y38592303D01*
X20406339Y38525304D01*
X20414354Y38474696D01*
X20417890Y38467757D01*
X20417890Y38467756D01*
X20456336Y38392303D01*
X20471950Y38361658D01*
X20561658Y38271950D01*
X20568595Y38268415D01*
X20568597Y38268414D01*
X20667756Y38217890D01*
X20674696Y38214354D01*
X20682390Y38213135D01*
X20682391Y38213135D01*
X20792303Y38195727D01*
X20800000Y38194508D01*
X20807697Y38195727D01*
X20917609Y38213135D01*
X20917610Y38213135D01*
X20925304Y38214354D01*
X20932244Y38217890D01*
X21031403Y38268414D01*
X21031405Y38268415D01*
X21038342Y38271950D01*
X21128050Y38361658D01*
X21143665Y38392303D01*
X21147587Y38400000D01*
X27094508Y38400000D01*
X27114354Y38274696D01*
X27171950Y38161658D01*
X27261658Y38071950D01*
X27268595Y38068415D01*
X27268597Y38068414D01*
X27367756Y38017890D01*
X27374696Y38014354D01*
X27382390Y38013135D01*
X27382391Y38013135D01*
X27492303Y37995727D01*
X27500000Y37994508D01*
X27507697Y37995727D01*
X27617609Y38013135D01*
X27617610Y38013135D01*
X27625304Y38014354D01*
X27632244Y38017890D01*
X27731403Y38068414D01*
X27731405Y38068415D01*
X27738342Y38071950D01*
X27828050Y38161658D01*
X27885646Y38274696D01*
X27905492Y38400000D01*
X27894761Y38467756D01*
X27886865Y38517609D01*
X27886865Y38517610D01*
X27885646Y38525304D01*
X27861757Y38572189D01*
X27831586Y38631403D01*
X27831585Y38631405D01*
X27828050Y38638342D01*
X27738342Y38728050D01*
X27731405Y38731585D01*
X27731403Y38731586D01*
X27632244Y38782110D01*
X27632243Y38782110D01*
X27625304Y38785646D01*
X27617610Y38786865D01*
X27617609Y38786865D01*
X27507697Y38804273D01*
X27500000Y38805492D01*
X27492303Y38804273D01*
X27382391Y38786865D01*
X27382390Y38786865D01*
X27374696Y38785646D01*
X27367757Y38782110D01*
X27367756Y38782110D01*
X27268597Y38731586D01*
X27268595Y38731585D01*
X27261658Y38728050D01*
X27171950Y38638342D01*
X27168415Y38631405D01*
X27168414Y38631403D01*
X27138243Y38572189D01*
X27114354Y38525304D01*
X27113135Y38517610D01*
X27113135Y38517609D01*
X27105239Y38467756D01*
X27094508Y38400000D01*
X21147587Y38400000D01*
X21182110Y38467756D01*
X21182110Y38467757D01*
X21185646Y38474696D01*
X21193662Y38525304D01*
X21204273Y38592303D01*
X21205492Y38600000D01*
X21192069Y38684753D01*
X21186865Y38717609D01*
X21186865Y38717610D01*
X21185646Y38725304D01*
X21144788Y38805492D01*
X21131586Y38831403D01*
X21131585Y38831405D01*
X21128050Y38838342D01*
X21038342Y38928050D01*
X21031405Y38931585D01*
X21031403Y38931586D01*
X20932244Y38982110D01*
X20932243Y38982110D01*
X20925304Y38985646D01*
X20917610Y38986865D01*
X20917609Y38986865D01*
X20807697Y39004273D01*
X20800000Y39005492D01*
X20792303Y39004273D01*
X20682391Y38986865D01*
X20682390Y38986865D01*
X20674696Y38985646D01*
X20667757Y38982110D01*
X20667756Y38982110D01*
X20568597Y38931586D01*
X20568595Y38931585D01*
X20561658Y38928050D01*
X20471950Y38838342D01*
X20468415Y38831405D01*
X20468414Y38831403D01*
X20455212Y38805492D01*
X20414354Y38725304D01*
X20413135Y38717610D01*
X20413135Y38717609D01*
X20407931Y38684753D01*
X20394508Y38600000D01*
X7714900Y38600000D01*
X7667956Y38652874D01*
X7665907Y38654719D01*
X7665903Y38654723D01*
X7416530Y38879260D01*
X7416524Y38879264D01*
X7414467Y38881117D01*
X7268462Y38985646D01*
X7139370Y39078067D01*
X7139365Y39078070D01*
X7137115Y39079681D01*
X7134698Y39081032D01*
X7134693Y39081035D01*
X6841777Y39244740D01*
X6841778Y39244740D01*
X6839358Y39246092D01*
X6836810Y39247163D01*
X6836802Y39247167D01*
X6644460Y39328020D01*
X6524908Y39378275D01*
X6522266Y39379053D01*
X6522262Y39379054D01*
X6392161Y39417344D01*
X6197682Y39474582D01*
X6029721Y39504198D01*
X5864479Y39533335D01*
X5864471Y39533336D01*
X5861760Y39533814D01*
X5521330Y39555233D01*
X5518569Y39555098D01*
X5518565Y39555098D01*
X5228968Y39540934D01*
X5180633Y39538570D01*
X4843918Y39484034D01*
X4515379Y39392304D01*
X4362972Y39330727D01*
X4201675Y39265559D01*
X4201671Y39265557D01*
X4199114Y39264524D01*
X4196690Y39263213D01*
X4196685Y39263211D01*
X3901491Y39103601D01*
X3901482Y39103596D01*
X3899062Y39102287D01*
X3896800Y39100715D01*
X3896797Y39100713D01*
X3718393Y38976719D01*
X3618965Y38907615D01*
X3616881Y38905790D01*
X3616879Y38905789D01*
X3460250Y38768670D01*
X3362314Y38682933D01*
X3360453Y38680895D01*
X3360452Y38680894D01*
X3293614Y38607697D01*
X3132307Y38431044D01*
X2931811Y38155085D01*
X2763326Y37858497D01*
X2762237Y37855955D01*
X2762233Y37855948D01*
X2732624Y37786865D01*
X2628951Y37544977D01*
X2628155Y37542342D01*
X2628154Y37542338D01*
X2616014Y37502129D01*
X2530361Y37218431D01*
X2529863Y37215720D01*
X2529862Y37215714D01*
X2499573Y37050682D01*
X2468785Y36882932D01*
X2444991Y36542659D01*
X2453838Y36331586D01*
X2458615Y36217609D01*
X2459275Y36201854D01*
X2459696Y36199132D01*
X2459697Y36199126D01*
X2472317Y36117609D01*
X2511459Y35864766D01*
X2536676Y35771950D01*
X2584555Y35595727D01*
X2600892Y35535595D01*
X2726461Y35218445D01*
X2727750Y35216020D01*
X2727755Y35216010D01*
X2788885Y35101042D01*
X2886600Y34917268D01*
X2888162Y34914987D01*
X3077751Y34638098D01*
X3077756Y34638092D01*
X3079312Y34635819D01*
X3081112Y34633734D01*
X3081121Y34633722D01*
X3101899Y34609651D01*
X3125610Y34553247D01*
X3111638Y34493678D01*
X3065322Y34453698D01*
X3004351Y34448577D01*
X2982012Y34456752D01*
X2932244Y34482110D01*
X2932243Y34482110D01*
X2925304Y34485646D01*
X2917610Y34486865D01*
X2917609Y34486865D01*
X2807697Y34504273D01*
X2800000Y34505492D01*
X2792303Y34504273D01*
X2682391Y34486865D01*
X2682390Y34486865D01*
X2674696Y34485646D01*
X2667757Y34482110D01*
X2667756Y34482110D01*
X2568597Y34431586D01*
X2568595Y34431585D01*
X2561658Y34428050D01*
X2471950Y34338342D01*
X2468415Y34331405D01*
X2468414Y34331403D01*
X2446010Y34287433D01*
X2414354Y34225304D01*
X2413135Y34217610D01*
X2413135Y34217609D01*
X2405239Y34167756D01*
X2394508Y34100000D01*
X200500Y34100000D01*
X200500Y38875942D01*
X219407Y38934133D01*
X229496Y38945946D01*
X1183550Y39900000D01*
X30394508Y39900000D01*
X30414354Y39774696D01*
X30471950Y39661658D01*
X30561658Y39571950D01*
X30568595Y39568415D01*
X30568597Y39568414D01*
X30667756Y39517890D01*
X30674696Y39514354D01*
X30682390Y39513135D01*
X30682391Y39513135D01*
X30792303Y39495727D01*
X30800000Y39494508D01*
X30807697Y39495727D01*
X30917609Y39513135D01*
X30917610Y39513135D01*
X30925304Y39514354D01*
X30932244Y39517890D01*
X31031403Y39568414D01*
X31031405Y39568415D01*
X31038342Y39571950D01*
X31128050Y39661658D01*
X31185646Y39774696D01*
X31205492Y39900000D01*
X31185646Y40025304D01*
X31138614Y40117609D01*
X31131586Y40131403D01*
X31131585Y40131405D01*
X31128050Y40138342D01*
X31038342Y40228050D01*
X31031405Y40231585D01*
X31031403Y40231586D01*
X30932244Y40282110D01*
X30932243Y40282110D01*
X30925304Y40285646D01*
X30917610Y40286865D01*
X30917609Y40286865D01*
X30807697Y40304273D01*
X30800000Y40305492D01*
X30792303Y40304273D01*
X30682391Y40286865D01*
X30682390Y40286865D01*
X30674696Y40285646D01*
X30667757Y40282110D01*
X30667756Y40282110D01*
X30568597Y40231586D01*
X30568595Y40231585D01*
X30561658Y40228050D01*
X30471950Y40138342D01*
X30468415Y40131405D01*
X30468414Y40131403D01*
X30461386Y40117609D01*
X30414354Y40025304D01*
X30394508Y39900000D01*
X1183550Y39900000D01*
X3054054Y41770504D01*
X3108571Y41798281D01*
X3124058Y41799500D01*
X38875942Y41799500D01*
X38934133Y41780593D01*
G37*
%TD.AperFunction*%
M02*
